# Blender 4.5.4 LTS
# www.blender.org
mtllib cabeca lowpoly anime.mtl
o Cube
v 0.202332 6.514834 4.836986
v 0.280985 7.989490 3.782062
v 0.692552 8.790492 4.135503
v 0.708923 10.455723 3.784160
v 0.587263 6.133623 4.088837
v 0.744629 8.062543 3.384698
v 0.203019 7.338364 4.123677
v 0.426625 7.342352 3.861779
v 1.667888 8.761032 4.009865
v 2.201770 8.610967 3.537787
v 2.745498 8.822449 1.613750
v 0.667199 4.324851 3.206127
v 1.299716 6.082918 3.544491
v 2.083114 7.314662 3.648337
v 2.193425 8.047863 3.198628
v 2.704700 7.971318 1.649705
v 2.658242 7.218445 1.884421
v 2.303189 6.056701 2.347329
v 0.334833 4.126020 3.476510
v 1.530225 4.909716 2.494420
v 1.637343 10.270538 3.588572
v 2.184921 9.920986 2.731603
v 2.740247 10.093719 1.286974
v 2.871255 9.185339 0.147658
v 2.749665 7.831935 0.903167
v 2.480208 6.317227 0.407587
v 2.865536 9.898210 -0.265917
v 0.582141 11.937212 2.728809
v 1.575011 11.819799 2.455522
v 2.364228 11.357737 1.833478
v 2.636440 11.131217 0.860191
v 2.772402 11.109306 0.120227
v 2.199780 5.731486 0.591250
v 1.728081 5.280354 1.503479
v 0.772398 4.733493 2.238400
v 0.585940 12.629266 1.060981
v 0.611083 12.547878 -1.364016
v 1.602313 12.401631 0.821054
v 2.226296 11.994402 0.358076
v 1.652819 12.309551 -1.372212
v 2.273887 11.879615 -1.141325
v 0.628369 11.968861 -2.817586
v 1.687052 11.727182 -2.869972
v 2.318008 11.342819 -2.536045
v 2.765489 10.793262 -0.965490
v 2.744682 10.600449 -2.219205
v 2.867506 9.632591 -1.088810
v 2.768990 9.814793 -2.126876
v 2.932781 9.292886 -1.159318
v 2.573332 8.837338 -2.093040
v 2.305257 7.626421 -2.068344
v 2.280681 6.321573 -0.756126
v 2.064255 6.667943 -1.633454
v 0.474802 11.019126 -3.688459
v 0.441592 9.846441 -4.243298
v 0.434153 8.042761 -4.140715
v 0.448634 6.705619 -3.344368
v 0.451121 5.846134 -2.676373
v 1.467365 10.910068 -3.635865
v 1.337301 9.800172 -4.038509
v 1.327942 8.071843 -3.966182
v 1.092529 6.905116 -3.239268
v 1.003453 6.010343 -2.459461
v 2.327019 10.785315 -3.290987
v 2.351287 9.694386 -3.441530
v 2.216509 8.069804 -3.337515
v 1.824845 6.871787 -2.701924
v 1.542408 6.130799 -1.979566
v 1.786314 6.127517 -1.152226
v 2.032866 5.958066 -0.384732
v 0.000001 6.545995 4.936098
v 0.000001 7.969647 3.843528
v 0.000001 8.782505 4.183791
v 0.000001 10.488187 3.797747
v 0.000001 6.025957 4.171975
v 0.000001 7.386254 4.154550
v 0.000001 4.094521 3.531094
v 0.000000 4.119904 3.206127
v 0.000000 11.937212 2.728809
v 0.000000 4.735402 2.231299
v 0.000000 12.629246 1.060852
v -0.000000 12.547728 -1.364931
v -0.000000 11.968870 -2.818521
v -0.000001 11.019016 -3.689036
v -0.000001 9.846421 -4.243606
v -0.000001 8.042741 -4.140725
v -0.000001 6.705539 -3.344477
v -0.000000 5.810875 -2.725716
v 1.270225 1.696090 0.320072
v 1.418202 5.201384 0.471232
v 1.143971 4.875363 1.002787
v 0.603216 4.579201 1.268773
v 0.445183 4.982422 -2.243931
v 0.901695 5.082429 -1.995489
v 1.309482 5.007158 -1.618117
v 1.527837 5.036866 -1.054149
v 1.576990 5.497178 -0.159674
v 0.000000 4.358479 1.419465
v -0.000000 4.979816 -2.292954
v 1.585066 1.882279 -0.321008
v 0.653165 1.594272 0.670649
v 0.476384 2.705222 -2.623878
v 0.979662 2.644323 -2.414197
v 1.464033 2.555893 -2.109729
v 1.682507 2.274709 -1.672204
v 1.750847 2.081170 -1.005821
v 0.000000 1.533224 0.880858
v -0.000000 2.715576 -2.659515
v 2.809819 8.398360 -0.201099
v 2.777444 7.727094 0.140298
v 2.507002 6.553813 0.017654
v 2.919533 8.600354 -0.878015
v 2.685742 8.182532 -1.379642
v 2.619452 7.436770 -1.392174
v 2.552177 6.595278 -0.710275
v 2.445725 6.872582 -1.064870
v 3.174758 8.680171 -0.302866
v 2.834554 7.802913 -0.099858
v 2.632262 6.735029 -0.138061
v 3.466345 9.002183 -1.033570
v 3.477166 8.440631 -1.587782
v 3.250278 7.300380 -1.513555
v 2.859400 6.442606 -0.669546
v 2.861667 6.469580 -0.948900
v 3.377905 8.456415 -0.547200
v 2.978006 7.927695 -0.521261
v 2.807511 7.027133 -0.465593
v 3.589069 8.726072 -1.032079
v 3.706014 8.355822 -1.545144
v 3.486655 7.419136 -1.482742
v 3.084090 6.610793 -0.715278
v 3.094076 6.654447 -0.911831
v 3.341483 8.563843 -0.411935
v 2.875522 7.901189 -0.349742
v 2.708618 6.914166 -0.301375
v 3.626496 8.902534 -1.033501
v 3.785861 8.422987 -1.691798
v 3.534644 7.352328 -1.620654
v 3.030103 6.447500 -0.670849
v 3.102052 6.513601 -0.995000
v 3.269971 8.206084 -0.747632
v 2.992248 7.944713 -0.722588
v 2.826240 7.200343 -0.642573
v 3.333446 8.429651 -1.121901
v 3.344984 8.140580 -1.532592
v 3.186484 7.409269 -1.451442
v 2.994904 6.778145 -0.802505
v 2.972665 6.812230 -0.954539
v -0.202331 6.514834 4.836986
v -0.280984 7.989490 3.782062
v -0.692550 8.790492 4.135503
v -0.708921 10.455723 3.784160
v -0.587262 6.133623 4.088837
v -0.744628 8.062543 3.384699
v -0.203017 7.338364 4.123677
v -0.426624 7.342352 3.861779
v -1.667886 8.761032 4.009865
v -2.201769 8.610967 3.537788
v -2.745497 8.822449 1.613751
v -0.667198 4.324851 3.206127
v -1.299715 6.082918 3.544491
v -2.083113 7.314662 3.648337
v -2.193424 8.047863 3.198629
v -2.704699 7.971318 1.649706
v -2.658241 7.218445 1.884422
v -2.303188 6.056701 2.347329
v -0.334832 4.126020 3.476510
v -1.530224 4.909716 2.494421
v -1.637342 10.270538 3.588572
v -2.184920 9.920986 2.731604
v -2.740246 10.093719 1.286975
v -2.871255 9.185339 0.147659
v -2.749665 7.831935 0.903168
v -2.480208 6.317227 0.407588
v -2.865536 9.898210 -0.265916
v -0.582140 11.937212 2.728809
v -1.575011 11.819799 2.455522
v -2.364227 11.357737 1.833479
v -2.636440 11.131217 0.860192
v -2.772402 11.109306 0.120228
v -2.199780 5.731486 0.591251
v -1.728080 5.280354 1.503479
v -0.772397 4.733493 2.238400
v -0.585939 12.629266 1.060982
v -0.611083 12.547878 -1.364016
v -1.602313 12.401631 0.821054
v -2.226296 11.994402 0.358077
v -1.652819 12.309551 -1.372211
v -2.273888 11.879615 -1.141324
v -0.628370 11.968861 -2.817586
v -1.687053 11.727182 -2.869972
v -2.318009 11.342819 -2.536044
v -2.765490 10.793262 -0.965489
v -2.744683 10.600449 -2.219204
v -2.867506 9.632591 -1.088809
v -2.768991 9.814793 -2.126875
v -2.932781 9.292886 -1.159317
v -2.573333 8.837338 -2.093039
v -2.305258 7.626421 -2.068343
v -2.280681 6.321573 -0.756126
v -2.064256 6.667943 -1.633454
v -0.474803 11.019126 -3.688459
v -0.441594 9.846441 -4.243298
v -0.434154 8.042761 -4.140715
v -0.448635 6.705619 -3.344367
v -0.451122 5.846134 -2.676373
v -1.467366 10.910068 -3.635864
v -1.337302 9.800172 -4.038509
v -1.327943 8.071843 -3.966182
v -1.092530 6.905116 -3.239268
v -1.003454 6.010343 -2.459460
v -2.327020 10.785315 -3.290987
v -2.351288 9.694386 -3.441529
v -2.216510 8.069804 -3.337514
v -1.824845 6.871787 -2.701924
v -1.542408 6.130799 -1.979565
v -1.786314 6.127517 -1.152226
v -2.032866 5.958066 -0.384732
v -1.270225 1.696090 0.320072
v -1.418202 5.201384 0.471232
v -1.143971 4.875363 1.002787
v -0.603216 4.579201 1.268773
v -0.445184 4.982422 -2.243931
v -0.901696 5.082429 -1.995489
v -1.309483 5.007158 -1.618117
v -1.527837 5.036866 -1.054148
v -1.576990 5.497178 -0.159673
v -1.585066 1.882279 -0.321008
v -0.653165 1.594272 0.670649
v -0.476385 2.705222 -2.623878
v -0.979663 2.644323 -2.414196
v -1.464034 2.555893 -2.109729
v -1.682508 2.274709 -1.672204
v -1.750847 2.081170 -1.005821
v -2.809819 8.398360 -0.201098
v -2.777444 7.727094 0.140299
v -2.507002 6.553813 0.017654
v -2.919533 8.600354 -0.878014
v -2.685742 8.182532 -1.379641
v -2.619452 7.436770 -1.392173
v -2.552177 6.595278 -0.710274
v -2.445725 6.872582 -1.064870
v -3.174758 8.680171 -0.302866
v -2.834554 7.802913 -0.099858
v -2.632262 6.735029 -0.138060
v -3.466345 9.002183 -1.033569
v -3.477167 8.440631 -1.587781
v -3.250278 7.300380 -1.513554
v -2.859400 6.442606 -0.669545
v -2.861667 6.469580 -0.948899
v -3.377905 8.456415 -0.547199
v -2.978006 7.927695 -0.521260
v -2.807511 7.027133 -0.465592
v -3.589069 8.726072 -1.032077
v -3.706015 8.355822 -1.545143
v -3.486655 7.419136 -1.482741
v -3.084090 6.610793 -0.715277
v -3.094076 6.654447 -0.911830
v -3.341483 8.563843 -0.411934
v -2.875522 7.901189 -0.349741
v -2.708618 6.914166 -0.301374
v -3.626496 8.902534 -1.033500
v -3.785861 8.422987 -1.691797
v -3.534645 7.352328 -1.620653
v -3.030103 6.447500 -0.670848
v -3.102053 6.513601 -0.994999
v -3.269971 8.206084 -0.747631
v -2.992248 7.944713 -0.722587
v -2.826240 7.200343 -0.642572
v -3.333447 8.429651 -1.121900
v -3.344984 8.140580 -1.532591
v -3.186485 7.409269 -1.451441
v -2.994904 6.778145 -0.802504
v -2.972665 6.812230 -0.954539
v 0.891431 3.868379 -2.037581
v 1.301257 3.768422 -1.734685
v 1.501669 3.751046 -1.156215
v 1.556064 3.730448 -0.552223
v 1.406187 3.445862 0.028982
v -0.000000 3.874456 -2.278692
v 0.601883 2.944533 0.818049
v 0.000000 2.797531 0.976698
v 1.134651 3.156672 0.546344
v 0.450325 3.868319 -2.240380
v -0.891432 3.868379 -2.037580
v -1.301257 3.768422 -1.734684
v -1.501669 3.751046 -1.156214
v -1.556064 3.730448 -0.552223
v -1.406187 3.445862 0.028983
v -0.601883 2.944533 0.818049
v -1.134651 3.156672 0.546344
v -0.450326 3.868319 -2.240380
v 3.177831 0.146232 0.927873
v 3.965476 0.552975 0.025490
v 1.634061 -0.076190 1.421334
v 1.191801 2.103707 -3.414945
v 2.450896 1.970679 -3.119807
v 3.662679 1.777508 -2.691223
v 4.209262 1.410241 -1.876436
v 4.380235 0.987456 -0.938447
v 0.000000 -0.209567 1.717238
v -0.000001 2.126325 -3.465112
v -3.177831 0.146232 0.927874
v -3.965476 0.552975 0.025492
v -1.634060 -0.076190 1.421335
v -1.191802 2.103707 -3.414944
v -2.450897 1.970679 -3.119806
v -3.662680 1.777508 -2.691222
v -4.209263 1.410241 -1.876435
v -4.380235 0.987456 -0.938446
v -2.224028 0.792544 0.623973
v -2.775266 1.089005 -0.147758
v -2.945890 1.713863 -1.774319
v -2.563357 2.038083 -2.400470
v 2.775266 1.089005 -0.147759
v 2.224028 0.792544 0.623972
v 1.715279 2.178879 -2.767002
v 2.563356 2.038083 -2.400471
v -3.065541 1.405696 -0.972133
v 2.945890 1.713863 -1.774320
v 0.834092 2.275843 -3.019411
v -1.715280 2.178879 -2.767001
v 3.065541 1.405696 -0.972134
v -0.834093 2.275843 -3.019411
v 0.000000 0.533211 1.299048
v -1.143613 0.630424 1.045992
v 1.143613 0.630424 1.045992
v -0.000000 2.292333 -3.062319
vn 0.8666 0.2641 0.4234
vn 0.3037 -0.0294 0.9523
vn 0.6587 0.2362 0.7143
vn 0.2679 -0.6824 0.6802
vn 0.6097 -0.3257 0.7226
vn 0.8286 -0.3258 0.4552
vn 0.1166 0.5093 0.8526
vn 0.1803 -0.6779 0.7127
vn 0.7139 -0.3839 0.5857
vn 0.9536 -0.0945 0.2860
vn 0.9500 0.0423 0.3093
vn 0.9439 -0.3277 0.0421
vn 0.7943 -0.6072 0.0173
vn 0.1873 0.2331 0.9543
vn 0.7948 0.2534 0.5515
vn 0.9349 0.1494 0.3220
vn 0.9337 0.1474 0.3263
vn 0.9360 0.1445 0.3210
vn 0.9903 -0.1386 0.0056
vn 0.9957 0.0372 0.0849
vn 0.9963 -0.0475 0.0721
vn 0.2783 0.5736 0.7704
vn 0.7833 0.3284 0.5278
vn 0.9366 0.1462 0.3184
vn 0.9376 0.1415 0.3177
vn 0.9388 0.1436 0.3132
vn 0.9906 0.0886 0.1045
vn 0.3132 -0.8981 -0.3089
vn 0.6427 0.7208 0.2596
vn 0.5536 0.8322 -0.0319
vn 0.2449 0.9038 0.3510
vn 0.2169 0.9756 -0.0331
vn 0.8623 0.4881 0.1347
vn 0.1984 0.9132 -0.3559
vn 0.6079 0.7459 -0.2721
vn 0.8823 0.4664 -0.0638
vn 0.8998 0.4226 -0.1085
vn 0.9965 0.0655 -0.0522
vn 0.9728 -0.0904 -0.2134
vn 0.9957 0.0883 -0.0295
vn 0.9969 0.0751 0.0241
vn 0.2106 -0.9478 -0.2394
vn 0.1133 0.6622 -0.7407
vn 0.1554 0.3727 -0.9149
vn 0.2067 -0.0494 -0.9772
vn 0.2271 -0.5207 -0.8230
vn 0.3730 -0.6015 -0.7065
vn 0.4913 0.6112 -0.6205
vn 0.4596 0.1957 -0.8663
vn 0.9260 0.1852 -0.3289
vn 0.9528 -0.0622 -0.2970
vn 0.9712 -0.1465 -0.1881
vn 0.5376 -0.0673 -0.8405
vn 0.8969 -0.3775 -0.2304
vn 0.4878 -0.5293 -0.6942
vn 0.5047 -0.6433 -0.5757
vn 0.7709 -0.5814 -0.2601
vn 0.5891 -0.7087 -0.3881
vn 0.8027 -0.5625 -0.1982
vn 0.3461 0.6270 0.6980
vn 0.0674 -0.5901 -0.8045
vn 0.0002 -0.5117 -0.8592
vn 0.0004 -0.0569 -0.9984
vn 0.0008 0.4276 -0.9040
vn 0.1136 -0.4167 0.9019
vn 0.0009 0.6757 -0.7372
vn 0.0004 0.9290 -0.3700
vn -0.0001 0.9994 -0.0336
vn -0.0001 0.9236 0.3832
vn 0.1264 -0.8803 -0.4573
vn 0.0233 0.5874 0.8090
vn 0.1925 0.4491 0.8725
vn 0.2036 -0.8174 0.5389
vn 0.0468 0.2132 0.9759
vn 0.1859 -0.3087 0.9328
vn 0.8983 -0.4312 -0.0844
vn 0.1784 -0.9474 0.2656
vn 0.5918 -0.7657 -0.2519
vn 0.5971 -0.7934 -0.1186
vn 0.6318 -0.3758 -0.6779
vn 0.9164 -0.2655 -0.2994
vn 0.5193 -0.8526 0.0583
vn 0.4685 -0.4177 -0.7785
vn 0.1162 -0.4519 -0.8845
vn 0.5786 0.2943 -0.7606
vn 0.9227 0.2223 -0.3151
vn 0.9874 0.1409 -0.0716
vn 0.9648 0.0475 0.2587
vn 0.2936 -0.0828 0.9523
vn 0.8912 0.0062 0.4536
vn 0.0811 0.3125 -0.9465
vn 0.4917 -0.0826 0.8669
vn 0.3983 0.2956 -0.8683
vn 0.7621 -0.4749 -0.4402
vn 0.9791 -0.2020 0.0233
vn 0.9426 -0.1506 -0.2980
vn 0.9955 -0.0538 0.0775
vn 0.7890 -0.4330 -0.4358
vn 0.9128 -0.1583 -0.3765
vn 0.9977 -0.0643 0.0214
vn 0.8356 -0.5433 -0.0813
vn 0.1222 -0.9680 0.2193
vn -0.2380 -0.4533 -0.8590
vn -0.2260 0.0033 -0.9741
vn 0.9325 -0.2174 0.2884
vn -0.5685 0.8107 0.1397
vn -0.5431 -0.7883 -0.2891
vn -0.4860 0.6895 -0.5370
vn 0.5338 0.1632 0.8297
vn 0.1011 -0.9850 -0.1395
vn 0.0470 0.7611 -0.6469
vn 0.8068 -0.3390 0.4839
vn 0.6755 -0.3073 0.6703
vn -0.1488 -0.5245 -0.8383
vn -0.3359 0.0107 -0.9418
vn 0.9718 -0.1738 0.1592
vn 0.5813 0.6054 0.5437
vn 0.8417 -0.5384 -0.0400
vn 0.7328 -0.4983 0.4633
vn 0.8732 -0.1302 0.4697
vn 0.9054 -0.2124 0.3676
vn 0.8968 -0.1834 0.4026
vn 0.9793 -0.1634 0.1197
vn 0.9038 -0.1731 0.3914
vn 0.9305 -0.1589 0.3300
vn 0.7622 0.0646 0.6441
vn 0.9299 -0.1880 0.3161
vn 0.8169 0.5683 0.0980
vn 0.4913 -0.6752 0.5502
vn 0.7511 -0.6318 0.1917
vn 0.9015 0.3658 0.2311
vn 0.1740 0.5585 0.8110
vn 0.0400 0.0767 0.9963
vn 0.9793 -0.2017 -0.0161
vn -0.8666 0.2641 0.4234
vn -0.3037 -0.0294 0.9523
vn -0.6587 0.2362 0.7143
vn -0.2679 -0.6824 0.6802
vn -0.6097 -0.3257 0.7226
vn -0.8286 -0.3258 0.4552
vn -0.1166 0.5093 0.8526
vn -0.1803 -0.6779 0.7127
vn -0.7139 -0.3839 0.5857
vn -0.9536 -0.0945 0.2860
vn -0.9500 0.0423 0.3093
vn -0.9439 -0.3277 0.0421
vn -0.7943 -0.6072 0.0173
vn -0.1873 0.2331 0.9543
vn -0.7948 0.2534 0.5515
vn -0.9349 0.1494 0.3220
vn -0.9360 0.1445 0.3210
vn -0.9337 0.1474 0.3263
vn -0.9903 -0.1386 0.0056
vn -0.9957 0.0372 0.0849
vn -0.9963 -0.0475 0.0721
vn -0.2783 0.5736 0.7704
vn -0.7833 0.3284 0.5278
vn -0.9366 0.1462 0.3184
vn -0.9388 0.1436 0.3132
vn -0.9376 0.1415 0.3177
vn -0.9906 0.0886 0.1045
vn -0.3132 -0.8981 -0.3089
vn -0.6427 0.7208 0.2596
vn -0.5536 0.8322 -0.0319
vn -0.2449 0.9038 0.3510
vn -0.2169 0.9756 -0.0331
vn -0.8623 0.4881 0.1347
vn -0.1984 0.9132 -0.3559
vn -0.6079 0.7459 -0.2721
vn -0.8823 0.4664 -0.0638
vn -0.8998 0.4226 -0.1085
vn -0.9965 0.0655 -0.0522
vn -0.9728 -0.0904 -0.2134
vn -0.9957 0.0883 -0.0295
vn -0.9969 0.0751 0.0241
vn -0.2106 -0.9478 -0.2394
vn -0.1133 0.6622 -0.7407
vn -0.1554 0.3727 -0.9149
vn -0.2067 -0.0494 -0.9772
vn -0.2271 -0.5207 -0.8230
vn -0.3730 -0.6015 -0.7065
vn -0.4913 0.6112 -0.6205
vn -0.4596 0.1957 -0.8663
vn -0.9260 0.1852 -0.3289
vn -0.9528 -0.0622 -0.2970
vn -0.9712 -0.1465 -0.1881
vn -0.5376 -0.0673 -0.8405
vn -0.8969 -0.3775 -0.2304
vn -0.4878 -0.5293 -0.6942
vn -0.5047 -0.6433 -0.5757
vn -0.7709 -0.5814 -0.2601
vn -0.5891 -0.7087 -0.3881
vn -0.8027 -0.5625 -0.1982
vn -0.3461 0.6270 0.6980
vn -0.0674 -0.5901 -0.8045
vn -0.0002 -0.5117 -0.8592
vn -0.0004 -0.0569 -0.9984
vn -0.0008 0.4276 -0.9040
vn -0.1136 -0.4167 0.9019
vn -0.0009 0.6757 -0.7372
vn -0.0004 0.9290 -0.3700
vn 0.0001 0.9994 -0.0336
vn 0.0001 0.9236 0.3832
vn -0.1264 -0.8803 -0.4573
vn -0.0233 0.5874 0.8090
vn -0.1925 0.4491 0.8725
vn -0.2036 -0.8174 0.5389
vn -0.0468 0.2132 0.9759
vn -0.1859 -0.3087 0.9328
vn -0.8983 -0.4312 -0.0844
vn -0.1784 -0.9474 0.2656
vn -0.5918 -0.7657 -0.2519
vn -0.5971 -0.7934 -0.1186
vn -0.6318 -0.3758 -0.6779
vn -0.9164 -0.2655 -0.2994
vn -0.5193 -0.8526 0.0583
vn -0.4685 -0.4177 -0.7785
vn -0.1162 -0.4519 -0.8845
vn -0.5786 0.2943 -0.7606
vn -0.9227 0.2223 -0.3151
vn -0.9874 0.1409 -0.0716
vn -0.9648 0.0475 0.2587
vn -0.2936 -0.0828 0.9523
vn -0.8912 0.0062 0.4536
vn -0.0811 0.3125 -0.9465
vn -0.4917 -0.0826 0.8669
vn -0.3983 0.2956 -0.8683
vn -0.7621 -0.4749 -0.4402
vn -0.9791 -0.2020 0.0233
vn -0.9426 -0.1506 -0.2980
vn -0.9955 -0.0538 0.0775
vn -0.7890 -0.4330 -0.4358
vn -0.9128 -0.1583 -0.3765
vn -0.9977 -0.0643 0.0214
vn -0.8356 -0.5433 -0.0813
vn -0.1222 -0.9680 0.2193
vn 0.2380 -0.4533 -0.8590
vn 0.2260 0.0033 -0.9741
vn -0.9325 -0.2174 0.2884
vn 0.5685 0.8107 0.1397
vn 0.5431 -0.7883 -0.2891
vn 0.4860 0.6895 -0.5370
vn -0.5338 0.1632 0.8297
vn -0.1011 -0.9850 -0.1395
vn -0.0470 0.7611 -0.6469
vn -0.8068 -0.3390 0.4839
vn -0.6755 -0.3073 0.6703
vn 0.1488 -0.5245 -0.8383
vn 0.3359 0.0107 -0.9418
vn -0.9718 -0.1738 0.1592
vn -0.5813 0.6054 0.5437
vn -0.8417 -0.5384 -0.0400
vn -0.7328 -0.4983 0.4633
vn -0.8732 -0.1302 0.4697
vn -0.9054 -0.2124 0.3676
vn -0.8968 -0.1834 0.4026
vn -0.9793 -0.1634 0.1197
vn -0.9038 -0.1731 0.3914
vn -0.9305 -0.1589 0.3300
vn -0.7622 0.0646 0.6441
vn -0.9299 -0.1880 0.3161
vn -0.8169 0.5683 0.0980
vn -0.4913 -0.6752 0.5502
vn -0.7511 -0.6318 0.1917
vn -0.9015 0.3658 0.2311
vn -0.1740 0.5585 0.8110
vn -0.0400 0.0767 0.9963
vn -0.9793 -0.2017 -0.0161
vn -0.4479 0.0138 -0.8940
vn -0.5194 -0.2247 0.8245
vn -0.0970 -0.0078 -0.9953
vn -0.9068 -0.1108 0.4068
vn -0.3129 -0.2559 0.9147
vn -0.9739 -0.0610 0.2188
vn -0.9977 -0.0044 -0.0676
vn -0.9387 0.0170 -0.3443
vn -0.6446 0.0445 -0.7632
vn 0.4479 0.0138 -0.8940
vn 0.5194 -0.2247 0.8245
vn 0.0970 -0.0078 -0.9953
vn 0.9068 -0.1108 0.4068
vn 0.3129 -0.2559 0.9147
vn 0.9739 -0.0610 0.2188
vn 0.9977 -0.0044 -0.0676
vn 0.9387 0.0170 -0.3443
vn 0.6446 0.0445 -0.7632
vn -0.2995 0.7703 0.5630
vn -0.2661 0.9247 0.2722
vn 0.2995 0.7703 0.5630
vn 0.2049 0.9710 -0.1230
vn -0.2622 0.9046 0.3362
vn 0.2661 0.9247 0.2722
vn 0.1652 0.9555 -0.2443
vn -0.2049 0.9710 -0.1230
vn -0.2817 0.8399 0.4639
vn 0.2622 0.9046 0.3362
vn -0.1652 0.9555 -0.2443
vn -0.1261 0.5089 0.8516
vn 0.2817 0.8399 0.4639
vn 0.1865 0.5926 0.7836
vn -0.0352 0.9258 -0.3764
vn 0.1261 0.5089 0.8516
vn -0.1865 0.5926 0.7836
vn 0.0352 0.9258 -0.3764
vn 0.0572 0.6950 -0.7167
vn -0.2872 0.5157 0.8072
vn 0.1939 0.4088 0.8918
vn -0.0572 0.6950 -0.7167
vn 0.2872 0.5157 0.8072
vn 0.4370 0.8025 0.4062
vn -0.1939 0.4088 0.8918
vn -0.2729 0.7912 -0.5473
vn 0.4266 0.8728 0.2370
vn 0.4246 0.8720 0.2435
vn 0.4309 0.8691 0.2427
vn -0.4370 0.8025 0.4062
vn -0.3350 0.8669 -0.3692
vn 0.2729 0.7912 -0.5473
vn 0.4361 0.8656 0.2462
vn 0.4300 0.8684 0.2472
vn 0.4363 0.8635 0.2529
vn -0.4246 0.8720 0.2435
vn -0.4266 0.8728 0.2370
vn -0.4309 0.8691 0.2427
vn 0.3350 0.8669 -0.3692
vn 0.4537 0.7206 0.5243
vn -0.4300 0.8684 0.2472
vn -0.4361 0.8656 0.2462
vn -0.4363 0.8635 0.2529
vn -0.4537 0.7206 0.5243
vn -0.0000 -0.9117 -0.4109
vt 0.625000 0.500000
vt 0.875000 0.500000
vt 0.000000 0.000000
s 0
usemtl Material.001
f 1/1/1 5/1/1 8/2/1 7/2/1
f 5/1/2 13/1/2 14/2/2 8/2/2
f 2/2/3 7/2/3 8/2/3 6/2/3
f 3/2/4 2/2/4 6/2/4 9/3/4
f 5/1/5 19/1/5 12/3/5 13/1/5
f 13/1/6 18/3/6 17/3/6 14/2/6
f 6/2/7 8/2/7 14/2/7 15/3/7
f 10/3/8 9/3/8 6/2/8 15/3/8
f 20/3/9 18/3/9 13/1/9 12/3/9
f 11/3/10 10/3/10 15/3/10 16/3/10
f 14/2/11 17/3/11 16/3/11 15/3/11
f 18/3/12 33/3/12 26/3/12 17/3/12
f 20/3/13 34/3/13 33/3/13 18/3/13
f 4/2/14 3/2/14 9/3/14 21/3/14
f 10/3/15 22/3/15 21/3/15 9/3/15
f 11/3/16 23/3/17 22/3/18 10/3/16
f 16/3/19 17/3/19 26/3/19 25/3/19
f 23/3/20 11/3/20 24/3/20 27/3/20
f 11/3/21 16/3/21 25/3/21 24/3/21
f 21/3/22 29/3/22 28/2/22 4/2/22
f 22/3/23 30/3/23 29/3/23 21/3/23
f 23/3/24 31/3/25 30/3/25 22/3/26
f 32/3/27 31/3/27 23/3/27 27/3/27
f 35/3/28 34/3/28 20/3/28 12/3/28
f 29/3/29 30/3/29 39/3/29 38/3/29
f 38/3/30 39/3/30 41/3/30 40/3/30
f 29/3/31 38/3/31 36/2/31 28/2/31
f 36/2/32 38/3/32 40/3/32 37/2/32
f 30/3/33 31/3/33 32/3/33 39/3/33
f 37/2/34 40/3/34 43/3/34 42/2/34
f 40/3/35 41/3/35 44/3/35 43/3/35
f 41/3/36 39/3/36 32/3/36 45/3/36
f 44/3/37 41/3/37 45/3/37 46/3/37
f 46/3/38 45/3/38 47/3/38 48/3/38
f 48/3/39 47/3/39 49/3/39 50/3/39
f 27/3/40 47/3/40 45/3/40 32/3/40
f 24/3/41 49/3/41 47/3/41 27/3/41
f 78/3/42 12/3/42 19/1/42 77/1/42
f 43/3/43 59/3/43 54/2/43 42/2/43
f 55/2/44 54/2/44 59/3/44 60/3/44
f 56/2/45 55/2/45 60/3/45 61/3/45
f 57/2/46 56/2/46 61/3/46 62/3/46
f 58/2/47 57/2/47 62/3/47 63/3/47
f 44/3/48 64/3/48 59/3/48 43/3/48
f 60/3/49 59/3/49 64/3/49 65/3/49
f 44/3/50 46/3/50 48/3/50 64/3/50
f 50/3/51 65/3/51 64/3/51 48/3/51
f 66/3/52 65/3/52 50/3/52 51/3/52
f 61/3/53 60/3/53 65/3/53 66/3/53
f 67/3/54 66/3/54 51/3/54 53/3/54
f 62/3/55 61/3/55 66/3/55 67/3/55
f 63/3/56 62/3/56 67/3/56 68/3/56
f 69/3/57 68/3/57 67/3/57 53/3/57
f 70/3/58 69/3/58 53/3/58 52/3/58
f 33/3/59 70/3/59 52/3/59 26/3/59
f 71/1/60 1/1/60 7/2/60 76/2/60
f 58/2/61 88/2/61 87/2/61 57/2/61
f 57/2/62 87/2/62 86/2/62 56/2/62
f 56/2/63 86/2/63 85/2/63 55/2/63
f 55/2/64 85/2/64 84/2/64 54/2/64
f 3/2/65 73/2/65 72/2/65 2/2/65
f 54/2/66 84/2/66 83/2/66 42/2/66
f 42/2/67 83/2/67 82/2/67 37/2/67
f 37/2/68 82/2/68 81/2/68 36/2/68
f 36/2/69 81/2/69 79/2/69 28/2/69
f 12/3/70 78/3/70 80/3/70 35/3/70
f 28/2/71 79/2/71 74/2/71 4/2/71
f 2/2/72 72/2/72 76/2/72 7/2/72
f 1/1/73 71/1/73 75/1/73 5/1/73
f 4/2/74 74/2/74 73/2/74 3/2/74
f 5/1/75 75/1/75 77/1/75 19/1/75
f 69/3/76 70/3/76 97/3/76 96/3/76
f 35/3/77 80/3/77 98/3/77 92/3/77
f 70/3/78 33/3/78 90/3/78 97/3/78
f 33/3/79 34/3/79 91/3/79 90/3/79
f 63/3/80 68/3/80 95/3/80 94/3/80
f 68/3/81 69/3/81 96/3/81 95/3/81
f 34/3/82 35/3/82 92/3/82 91/3/82
f 58/2/83 63/3/83 94/3/83 93/2/83
f 88/2/84 58/2/84 93/2/84 99/2/84
f 275/3/85 276/3/85 104/3/85 103/3/85
f 276/3/86 277/3/86 105/3/86 104/3/86
f 277/3/87 278/3/87 106/3/87 105/3/87
f 278/3/88 279/3/88 100/3/88 106/3/88
f 281/3/89 282/3/89 107/3/89 101/3/89
f 279/3/90 283/3/90 89/3/90 100/3/90
f 280/2/91 284/2/91 102/2/91 108/2/91
f 283/3/92 281/3/92 101/3/92 89/3/92
f 284/2/93 275/3/93 103/3/93 102/2/93
f 52/3/94 53/3/94 116/3/94 115/3/94
f 25/3/95 26/3/95 111/3/95 110/3/95
f 50/3/96 49/3/96 112/3/96 113/3/96
f 49/3/97 24/3/97 109/3/97 112/3/97
f 53/3/98 51/3/98 114/3/98 116/3/98
f 51/3/99 50/3/99 113/3/99 114/3/99
f 24/3/100 25/3/100 110/3/100 109/3/100
f 26/3/101 52/3/101 115/3/101 111/3/101
f 111/3/102 115/3/102 123/3/102 119/3/102
f 116/3/103 114/3/103 122/3/103 124/3/103
f 114/3/104 113/3/104 121/3/104 122/3/104
f 110/3/105 111/3/105 119/3/105 118/3/105
f 112/3/106 109/3/106 117/3/106 120/3/106
f 115/3/107 116/3/107 124/3/107 123/3/107
f 113/3/108 112/3/108 120/3/108 121/3/108
f 109/3/109 110/3/109 118/3/109 117/3/109
f 123/3/110 124/3/110 140/3/110 139/3/110
f 121/3/111 120/3/111 136/3/111 137/3/111
f 117/3/112 118/3/112 134/3/112 133/3/112
f 119/3/113 123/3/113 139/3/113 135/3/113
f 124/3/114 122/3/114 138/3/114 140/3/114
f 122/3/115 121/3/115 137/3/115 138/3/115
f 118/3/116 119/3/116 135/3/116 134/3/116
f 120/3/117 117/3/117 133/3/117 136/3/117
f 128/3/118 125/3/118 141/3/118 144/3/118
f 126/3/119 125/3/119 133/3/119 134/3/119
f 127/3/120 126/3/120 134/3/120 135/3/120
f 128/3/121 129/3/121 137/3/121 136/3/121
f 129/3/122 130/3/122 138/3/122 137/3/122
f 132/3/123 131/3/123 139/3/123 140/3/123
f 130/3/124 132/3/124 140/3/124 138/3/124
f 125/3/125 128/3/125 136/3/125 133/3/125
f 131/3/126 127/3/126 135/3/126 139/3/126
f 141/3/127 142/3/127 143/3/127 147/3/127 148/3/127 146/3/127 145/3/127 144/3/127
f 131/3/128 132/3/128 148/3/128 147/3/128
f 129/3/129 128/3/129 144/3/129 145/3/129
f 125/3/130 126/3/130 142/3/130 141/3/130
f 127/3/131 131/3/131 147/3/131 143/3/131
f 132/3/132 130/3/132 146/3/132 148/3/132
f 130/3/133 129/3/133 145/3/133 146/3/133
f 126/3/134 127/3/134 143/3/134 142/3/134
f 149/1/135 155/2/135 156/2/135 153/1/135
f 153/1/136 156/2/136 162/2/136 161/1/136
f 150/2/137 154/2/137 156/2/137 155/2/137
f 151/2/138 157/3/138 154/2/138 150/2/138
f 153/1/139 161/1/139 160/3/139 167/1/139
f 161/1/140 162/2/140 165/3/140 166/3/140
f 154/2/141 163/3/141 162/2/141 156/2/141
f 158/3/142 163/3/142 154/2/142 157/3/142
f 168/3/143 160/3/143 161/1/143 166/3/143
f 159/3/144 164/3/144 163/3/144 158/3/144
f 162/2/145 163/3/145 164/3/145 165/3/145
f 166/3/146 165/3/146 174/3/146 181/3/146
f 168/3/147 166/3/147 181/3/147 182/3/147
f 152/2/148 169/3/148 157/3/148 151/2/148
f 158/3/149 157/3/149 169/3/149 170/3/149
f 159/3/150 158/3/150 170/3/151 171/3/152
f 164/3/153 173/3/153 174/3/153 165/3/153
f 171/3/154 175/3/154 172/3/154 159/3/154
f 159/3/155 172/3/155 173/3/155 164/3/155
f 169/3/156 152/2/156 176/2/156 177/3/156
f 170/3/157 169/3/157 177/3/157 178/3/157
f 171/3/158 170/3/159 178/3/160 179/3/160
f 180/3/161 175/3/161 171/3/161 179/3/161
f 183/3/162 160/3/162 168/3/162 182/3/162
f 177/3/163 186/3/163 187/3/163 178/3/163
f 186/3/164 188/3/164 189/3/164 187/3/164
f 177/3/165 176/2/165 184/2/165 186/3/165
f 184/2/166 185/2/166 188/3/166 186/3/166
f 178/3/167 187/3/167 180/3/167 179/3/167
f 185/2/168 190/2/168 191/3/168 188/3/168
f 188/3/169 191/3/169 192/3/169 189/3/169
f 189/3/170 193/3/170 180/3/170 187/3/170
f 192/3/171 194/3/171 193/3/171 189/3/171
f 194/3/172 196/3/172 195/3/172 193/3/172
f 196/3/173 198/3/173 197/3/173 195/3/173
f 175/3/174 180/3/174 193/3/174 195/3/174
f 172/3/175 175/3/175 195/3/175 197/3/175
f 78/3/176 77/1/176 167/1/176 160/3/176
f 191/3/177 190/2/177 202/2/177 207/3/177
f 203/2/178 208/3/178 207/3/178 202/2/178
f 204/2/179 209/3/179 208/3/179 203/2/179
f 205/2/180 210/3/180 209/3/180 204/2/180
f 206/2/181 211/3/181 210/3/181 205/2/181
f 192/3/182 191/3/182 207/3/182 212/3/182
f 208/3/183 213/3/183 212/3/183 207/3/183
f 192/3/184 212/3/184 196/3/184 194/3/184
f 198/3/185 196/3/185 212/3/185 213/3/185
f 214/3/186 199/3/186 198/3/186 213/3/186
f 209/3/187 214/3/187 213/3/187 208/3/187
f 215/3/188 201/3/188 199/3/188 214/3/188
f 210/3/189 215/3/189 214/3/189 209/3/189
f 211/3/190 216/3/190 215/3/190 210/3/190
f 217/3/191 201/3/191 215/3/191 216/3/191
f 218/3/192 200/3/192 201/3/192 217/3/192
f 181/3/193 174/3/193 200/3/193 218/3/193
f 71/1/194 76/2/194 155/2/194 149/1/194
f 206/2/195 205/2/195 87/2/195 88/2/195
f 205/2/196 204/2/196 86/2/196 87/2/196
f 204/2/197 203/2/197 85/2/197 86/2/197
f 203/2/198 202/2/198 84/2/198 85/2/198
f 151/2/199 150/2/199 72/2/199 73/2/199
f 202/2/200 190/2/200 83/2/200 84/2/200
f 190/2/201 185/2/201 82/2/201 83/2/201
f 185/2/202 184/2/202 81/2/202 82/2/202
f 184/2/203 176/2/203 79/2/203 81/2/203
f 160/3/204 183/3/204 80/3/204 78/3/204
f 176/2/205 152/2/205 74/2/205 79/2/205
f 150/2/206 155/2/206 76/2/206 72/2/206
f 149/1/207 153/1/207 75/1/207 71/1/207
f 152/2/208 151/2/208 73/2/208 74/2/208
f 153/1/209 167/1/209 77/1/209 75/1/209
f 217/3/210 226/3/210 227/3/210 218/3/210
f 183/3/211 222/3/211 98/3/211 80/3/211
f 218/3/212 227/3/212 220/3/212 181/3/212
f 181/3/213 220/3/213 221/3/213 182/3/213
f 211/3/214 224/3/214 225/3/214 216/3/214
f 216/3/215 225/3/215 226/3/215 217/3/215
f 182/3/216 221/3/216 222/3/216 183/3/216
f 206/2/217 223/2/217 224/3/217 211/3/217
f 88/2/218 99/2/218 223/2/218 206/2/218
f 285/3/219 231/3/219 232/3/219 286/3/219
f 286/3/220 232/3/220 233/3/220 287/3/220
f 287/3/221 233/3/221 234/3/221 288/3/221
f 288/3/222 234/3/222 228/3/222 289/3/222
f 290/3/223 229/3/223 107/3/223 282/3/223
f 289/3/224 228/3/224 219/3/224 291/3/224
f 280/2/225 108/2/225 230/2/225 292/2/225
f 291/3/226 219/3/226 229/3/226 290/3/226
f 292/2/227 230/2/227 231/3/227 285/3/227
f 200/3/228 241/3/228 242/3/228 201/3/228
f 173/3/229 236/3/229 237/3/229 174/3/229
f 198/3/230 239/3/230 238/3/230 197/3/230
f 197/3/231 238/3/231 235/3/231 172/3/231
f 201/3/232 242/3/232 240/3/232 199/3/232
f 199/3/233 240/3/233 239/3/233 198/3/233
f 172/3/234 235/3/234 236/3/234 173/3/234
f 174/3/235 237/3/235 241/3/235 200/3/235
f 237/3/236 245/3/236 249/3/236 241/3/236
f 242/3/237 250/3/237 248/3/237 240/3/237
f 240/3/238 248/3/238 247/3/238 239/3/238
f 236/3/239 244/3/239 245/3/239 237/3/239
f 238/3/240 246/3/240 243/3/240 235/3/240
f 241/3/241 249/3/241 250/3/241 242/3/241
f 239/3/242 247/3/242 246/3/242 238/3/242
f 235/3/243 243/3/243 244/3/243 236/3/243
f 249/3/244 265/3/244 266/3/244 250/3/244
f 247/3/245 263/3/245 262/3/245 246/3/245
f 243/3/246 259/3/246 260/3/246 244/3/246
f 245/3/247 261/3/247 265/3/247 249/3/247
f 250/3/248 266/3/248 264/3/248 248/3/248
f 248/3/249 264/3/249 263/3/249 247/3/249
f 244/3/250 260/3/250 261/3/250 245/3/250
f 246/3/251 262/3/251 259/3/251 243/3/251
f 254/3/252 270/3/252 267/3/252 251/3/252
f 252/3/253 260/3/253 259/3/253 251/3/253
f 253/3/254 261/3/254 260/3/254 252/3/254
f 254/3/255 262/3/255 263/3/255 255/3/255
f 255/3/256 263/3/256 264/3/256 256/3/256
f 258/3/257 266/3/257 265/3/257 257/3/257
f 256/3/258 264/3/258 266/3/258 258/3/258
f 251/3/259 259/3/259 262/3/259 254/3/259
f 257/3/260 265/3/260 261/3/260 253/3/260
f 267/3/261 270/3/261 271/3/261 272/3/261 274/3/261 273/3/261 269/3/261 268/3/261
f 257/3/262 273/3/262 274/3/262 258/3/262
f 255/3/263 271/3/263 270/3/263 254/3/263
f 251/3/264 267/3/264 268/3/264 252/3/264
f 253/3/265 269/3/265 273/3/265 257/3/265
f 258/3/266 274/3/266 272/3/266 256/3/266
f 256/3/267 272/3/267 271/3/267 255/3/267
f 252/3/268 268/3/268 269/3/268 253/3/268
f 223/2/269 292/2/269 285/3/269 224/3/269
f 221/3/270 291/3/270 290/3/270 222/3/270
f 99/2/271 280/2/271 292/2/271 223/2/271
f 220/3/272 289/3/272 291/3/272 221/3/272
f 222/3/273 290/3/273 282/3/273 98/3/273
f 227/3/274 288/3/274 289/3/274 220/3/274
f 226/3/275 287/3/275 288/3/275 227/3/275
f 225/3/276 286/3/276 287/3/276 226/3/276
f 224/3/277 285/3/277 286/3/277 225/3/277
f 93/2/278 94/3/278 275/3/278 284/2/278
f 91/3/279 92/3/279 281/3/279 283/3/279
f 99/2/280 93/2/280 284/2/280 280/2/280
f 90/3/281 91/3/281 283/3/281 279/3/281
f 92/3/282 98/3/282 282/3/282 281/3/282
f 97/3/283 90/3/283 279/3/283 278/3/283
f 96/3/284 97/3/284 278/3/284 277/3/284
f 95/3/285 96/3/285 277/3/285 276/3/285
f 94/3/286 95/3/286 276/3/286 275/3/286
f 311/3/287 312/3/287 304/3/287 303/3/287
f 313/3/288 314/3/288 308/3/288 309/3/288
f 315/3/289 316/3/289 293/3/289 294/3/289
f 317/3/290 318/3/290 298/3/290 297/3/290
f 319/3/291 313/3/291 309/3/291 310/3/291
f 318/3/292 320/3/292 299/3/292 298/3/292
f 321/2/293 317/3/293 297/3/293 296/2/293
f 314/3/294 322/3/294 307/3/294 308/3/294
f 312/3/295 319/3/295 310/3/295 304/3/295
f 320/3/296 323/3/296 300/3/296 299/3/296
f 322/3/297 324/2/297 306/2/297 307/3/297
f 325/3/298 326/3/298 305/3/298 301/3/298
f 323/3/299 315/3/299 294/3/299 300/3/299
f 316/3/300 327/3/300 295/3/300 293/3/300
f 324/2/301 328/2/301 302/2/301 306/2/301
f 327/3/302 325/3/302 301/3/302 295/3/302
f 326/3/303 311/3/303 303/3/303 305/3/303
f 328/2/304 321/2/304 296/2/304 302/2/304
f 108/2/305 102/2/305 321/2/305 328/2/305
f 229/3/306 219/3/306 311/3/306 326/3/306
f 101/3/307 107/3/307 325/3/307 327/3/307
f 230/2/308 108/2/308 328/2/308 324/2/308
f 89/3/309 101/3/309 327/3/309 316/3/309
f 106/3/310 100/3/310 315/3/310 323/3/310
f 107/3/311 229/3/311 326/3/311 325/3/311
f 231/3/312 230/2/312 324/2/312 322/3/312
f 105/3/313 106/3/314 323/3/314 320/3/315
f 228/3/316 234/3/316 319/3/316 312/3/316
f 232/3/317 231/3/317 322/3/317 314/3/317
f 102/2/318 103/3/318 317/3/318 321/2/318
f 104/3/319 105/3/320 320/3/321 318/3/319
f 234/3/322 233/3/323 313/3/324 319/3/322
f 103/3/325 104/3/325 318/3/325 317/3/325
f 100/3/326 89/3/326 316/3/326 315/3/326
f 233/3/327 232/3/328 314/3/328 313/3/329
f 219/3/330 228/3/330 312/3/330 311/3/330
f 297/3/331 299/3/331 294/3/331
f 305/3/331 303/3/331 307/3/331
f 303/3/331 304/3/331 307/3/331
f 304/3/331 310/3/331 309/3/331
f 309/3/331 308/3/331 307/3/331
f 307/3/331 306/2/331 305/3/331
f 306/2/331 302/2/331 305/3/331
f 302/2/331 296/2/331 295/3/331
f 296/2/331 297/3/331 295/3/331
f 297/3/331 298/3/331 299/3/331
f 299/3/331 300/3/331 294/3/331
f 294/3/331 293/3/331 297/3/331
f 293/3/331 295/3/331 297/3/331
f 295/3/331 301/3/331 302/2/331
f 301/3/331 305/3/331 302/2/331
f 304/3/331 309/3/331 307/3/331
