# Blender 4.5.4 LTS
# www.blender.org
o Cylinder
v 0.000000 -0.143361 -0.494383
v 0.000000 1.470266 -0.494383
v 0.015004 -0.143361 -0.494155
v 0.015004 1.470266 -0.494155
v 0.029994 -0.143361 -0.493472
v 0.029994 1.470266 -0.493472
v 0.044957 -0.143361 -0.492335
v 0.044957 1.470266 -0.492335
v 0.059878 -0.143361 -0.490743
v 0.059878 1.470266 -0.490743
v 0.074744 -0.143361 -0.488700
v 0.074744 1.470266 -0.488700
v 0.089541 -0.143361 -0.486207
v 0.089541 1.470266 -0.486207
v 0.104255 -0.143361 -0.483265
v 0.104255 1.470266 -0.483265
v 0.118874 -0.143361 -0.479879
v 0.118874 1.470266 -0.479879
v 0.133383 -0.143361 -0.476050
v 0.133383 1.470266 -0.476050
v 0.147769 -0.143361 -0.471783
v 0.147769 1.470266 -0.471783
v 0.162019 -0.143361 -0.467081
v 0.162019 1.470266 -0.467081
v 0.176120 -0.143361 -0.461948
v 0.176120 1.470266 -0.461948
v 0.190058 -0.143361 -0.456391
v 0.190058 1.470266 -0.456391
v 0.203822 -0.143361 -0.450412
v 0.203822 1.470266 -0.450412
v 0.217397 -0.143361 -0.444019
v 0.217397 1.470266 -0.444019
v 0.230773 -0.143361 -0.437217
v 0.230773 1.470266 -0.437217
v 0.243935 -0.143361 -0.430012
v 0.243935 1.470266 -0.430012
v 0.256873 -0.143361 -0.422410
v 0.256873 1.470266 -0.422410
v 0.269575 -0.143361 -0.414420
v 0.269575 1.470266 -0.414420
v 0.282028 -0.143361 -0.406048
v 0.282028 1.470266 -0.406048
v 0.294221 -0.143361 -0.397302
v 0.294221 1.470266 -0.397302
v 0.306143 -0.143361 -0.388189
v 0.306143 1.470266 -0.388189
v 0.317783 -0.143361 -0.378719
v 0.317783 1.470266 -0.378719
v 0.329131 -0.143361 -0.368901
v 0.329131 1.470266 -0.368901
v 0.340175 -0.143361 -0.358742
v 0.340175 1.470266 -0.358742
v 0.350905 -0.143361 -0.348253
v 0.350905 1.470266 -0.348253
v 0.361313 -0.143361 -0.337443
v 0.361313 1.470266 -0.337443
v 0.371387 -0.143361 -0.326322
v 0.371387 1.470266 -0.326322
v 0.381120 -0.143361 -0.314900
v 0.381120 1.470266 -0.314900
v 0.390501 -0.143361 -0.303189
v 0.390501 1.470266 -0.303189
v 0.399523 -0.143361 -0.291198
v 0.399523 1.470266 -0.291198
v 0.408176 -0.143361 -0.278939
v 0.408176 1.470266 -0.278939
v 0.416454 -0.143361 -0.266422
v 0.416454 1.470266 -0.266422
v 0.424347 -0.143361 -0.253661
v 0.424347 1.470266 -0.253661
v 0.431850 -0.143361 -0.240665
v 0.431850 1.470266 -0.240665
v 0.438955 -0.143361 -0.227448
v 0.438955 1.470266 -0.227448
v 0.445656 -0.143361 -0.214022
v 0.445656 1.470266 -0.214022
v 0.451946 -0.143361 -0.200398
v 0.451946 1.470266 -0.200398
v 0.457820 -0.143361 -0.186590
v 0.457820 1.470266 -0.186590
v 0.463272 -0.143361 -0.172609
v 0.463272 1.470266 -0.172609
v 0.468297 -0.143361 -0.158470
v 0.468297 1.470266 -0.158470
v 0.472890 -0.143361 -0.144185
v 0.472890 1.470266 -0.144185
v 0.477048 -0.143361 -0.129767
v 0.477048 1.470266 -0.129767
v 0.480767 -0.143361 -0.115229
v 0.480767 1.470266 -0.115229
v 0.484042 -0.143361 -0.100585
v 0.484042 1.470266 -0.100585
v 0.486872 -0.143361 -0.085849
v 0.486872 1.470266 -0.085849
v 0.489253 -0.143361 -0.071033
v 0.489253 1.470266 -0.071033
v 0.491184 -0.143361 -0.056152
v 0.491184 1.470266 -0.056152
v 0.492662 -0.143361 -0.041219
v 0.492662 1.470266 -0.041219
v 0.493686 -0.143361 -0.026249
v 0.493686 1.470266 -0.026249
v 0.494255 -0.143361 -0.011254
v 0.494255 1.470266 -0.011254
v 0.494369 -0.143361 0.003752
v 0.494369 1.470266 0.003752
v 0.494027 -0.143361 0.018753
v 0.494027 1.470266 0.018753
v 0.493230 -0.143361 0.033738
v 0.493230 1.470266 0.033738
v 0.491979 -0.143361 0.048691
v 0.491979 1.470266 0.048691
v 0.490275 -0.143361 0.063600
v 0.490275 1.470266 0.063600
v 0.488119 -0.143361 0.078450
v 0.488119 1.470266 0.078450
v 0.485513 -0.143361 0.093228
v 0.485513 1.470266 0.093228
v 0.482460 -0.143361 0.107920
v 0.482460 1.470266 0.107920
v 0.478963 -0.143361 0.122512
v 0.478963 1.470266 0.122512
v 0.475024 -0.143361 0.136992
v 0.475024 1.470266 0.136992
v 0.470648 -0.143361 0.151345
v 0.470648 1.470266 0.151345
v 0.465838 -0.143361 0.165559
v 0.465838 1.470266 0.165559
v 0.460599 -0.143361 0.179620
v 0.460599 1.470266 0.179620
v 0.454935 -0.143361 0.193516
v 0.454935 1.470266 0.193516
v 0.448853 -0.143361 0.207234
v 0.448853 1.470266 0.207234
v 0.442357 -0.143361 0.220760
v 0.442357 1.470266 0.220760
v 0.435453 -0.143361 0.234084
v 0.435453 1.470266 0.234084
v 0.428148 -0.143361 0.247191
v 0.428148 1.470266 0.247191
v 0.420449 -0.143361 0.260071
v 0.420449 1.470266 0.260071
v 0.412362 -0.143361 0.272712
v 0.412362 1.470266 0.272712
v 0.403896 -0.143361 0.285101
v 0.403896 1.470266 0.285101
v 0.395057 -0.143361 0.297227
v 0.395057 1.470266 0.297227
v 0.385855 -0.143361 0.309080
v 0.385855 1.470266 0.309080
v 0.376297 -0.143361 0.320648
v 0.376297 1.470266 0.320648
v 0.366392 -0.143361 0.331920
v 0.366392 1.470266 0.331920
v 0.356150 -0.143361 0.342887
v 0.356150 1.470266 0.342887
v 0.345580 -0.143361 0.353538
v 0.345580 1.470266 0.353538
v 0.334691 -0.143361 0.363863
v 0.334691 1.470266 0.363863
v 0.323494 -0.143361 0.373853
v 0.323494 1.470266 0.373853
v 0.311999 -0.143361 0.383498
v 0.311999 1.470266 0.383498
v 0.300217 -0.143361 0.392791
v 0.300217 1.470266 0.392791
v 0.288158 -0.143361 0.401721
v 0.288158 1.470266 0.401721
v 0.275833 -0.143361 0.410281
v 0.275833 1.470266 0.410281
v 0.263254 -0.143361 0.418463
v 0.263254 1.470266 0.418463
v 0.250433 -0.143361 0.426260
v 0.250433 1.470266 0.426260
v 0.237381 -0.143361 0.433664
v 0.237381 1.470266 0.433664
v 0.224111 -0.143361 0.440669
v 0.224111 1.470266 0.440669
v 0.210634 -0.143361 0.447267
v 0.210634 1.470266 0.447267
v 0.196963 -0.143361 0.453454
v 0.196963 1.470266 0.453454
v 0.183110 -0.143361 0.459222
v 0.183110 1.470266 0.459222
v 0.169089 -0.143361 0.464568
v 0.169089 1.470266 0.464568
v 0.154912 -0.143361 0.469486
v 0.154912 1.470266 0.469486
v 0.140592 -0.143361 0.473971
v 0.140592 1.470266 0.473971
v 0.126143 -0.143361 0.478019
v 0.126143 1.470266 0.478019
v 0.111577 -0.143361 0.481627
v 0.111577 1.470266 0.481627
v 0.096909 -0.143361 0.484792
v 0.096909 1.470266 0.484792
v 0.082152 -0.143361 0.487510
v 0.082152 1.470266 0.487510
v 0.067318 -0.143361 0.489778
v 0.067318 1.470266 0.489778
v 0.052423 -0.143361 0.491596
v 0.052423 1.470266 0.491596
v 0.037480 -0.143361 0.492960
v 0.037480 1.470266 0.492960
v 0.022502 -0.143361 0.493871
v 0.022502 1.470266 0.493871
v 0.007503 -0.143361 0.494326
v 0.007503 1.470266 0.494326
v -0.007503 -0.143361 0.494326
v -0.007503 1.470266 0.494326
v -0.022502 -0.143361 0.493871
v -0.022502 1.470266 0.493871
v -0.037480 -0.143361 0.492960
v -0.037480 1.470266 0.492960
v -0.052423 -0.143361 0.491596
v -0.052423 1.470266 0.491596
v -0.067318 -0.143361 0.489778
v -0.067318 1.470266 0.489778
v -0.082152 -0.143361 0.487510
v -0.082152 1.470266 0.487510
v -0.096909 -0.143361 0.484792
v -0.096909 1.470266 0.484792
v -0.111577 -0.143361 0.481627
v -0.111577 1.470266 0.481627
v -0.126143 -0.143361 0.478019
v -0.126143 1.470266 0.478019
v -0.140592 -0.143361 0.473971
v -0.140592 1.470266 0.473971
v -0.154912 -0.143361 0.469486
v -0.154912 1.470266 0.469486
v -0.169089 -0.143361 0.464568
v -0.169089 1.470266 0.464568
v -0.183110 -0.143361 0.459222
v -0.183110 1.470266 0.459222
v -0.196963 -0.143361 0.453454
v -0.196963 1.470266 0.453454
v -0.210634 -0.143361 0.447267
v -0.210634 1.470266 0.447267
v -0.224111 -0.143361 0.440669
v -0.224111 1.470266 0.440669
v -0.237381 -0.143361 0.433664
v -0.237381 1.470266 0.433664
v -0.250433 -0.143361 0.426260
v -0.250433 1.470266 0.426260
v -0.263254 -0.143361 0.418463
v -0.263254 1.470266 0.418463
v -0.275833 -0.143361 0.410281
v -0.275833 1.470266 0.410281
v -0.288158 -0.143361 0.401721
v -0.288158 1.470266 0.401721
v -0.300217 -0.143361 0.392791
v -0.300217 1.470266 0.392791
v -0.311999 -0.143361 0.383498
v -0.311999 1.470266 0.383498
v -0.323494 -0.143361 0.373853
v -0.323494 1.470266 0.373853
v -0.334691 -0.143361 0.363863
v -0.334691 1.470266 0.363863
v -0.345580 -0.143361 0.353538
v -0.345580 1.470266 0.353538
v -0.356150 -0.143361 0.342887
v -0.356150 1.470266 0.342887
v -0.366392 -0.143361 0.331920
v -0.366392 1.470266 0.331920
v -0.376297 -0.143361 0.320648
v -0.376297 1.470266 0.320648
v -0.385855 -0.143361 0.309080
v -0.385855 1.470266 0.309080
v -0.395057 -0.143361 0.297227
v -0.395057 1.470266 0.297227
v -0.403896 -0.143361 0.285101
v -0.403896 1.470266 0.285101
v -0.412362 -0.143361 0.272712
v -0.412362 1.470266 0.272712
v -0.420449 -0.143361 0.260071
v -0.420449 1.470266 0.260071
v -0.428148 -0.143361 0.247191
v -0.428148 1.470266 0.247191
v -0.435453 -0.143361 0.234084
v -0.435453 1.470266 0.234084
v -0.442357 -0.143361 0.220760
v -0.442357 1.470266 0.220760
v -0.448853 -0.143361 0.207234
v -0.448853 1.470266 0.207234
v -0.454935 -0.143361 0.193516
v -0.454935 1.470266 0.193516
v -0.460599 -0.143361 0.179620
v -0.460599 1.470266 0.179620
v -0.465838 -0.143361 0.165559
v -0.465838 1.470266 0.165559
v -0.470648 -0.143361 0.151345
v -0.470648 1.470266 0.151345
v -0.475024 -0.143361 0.136992
v -0.475024 1.470266 0.136992
v -0.478963 -0.143361 0.122512
v -0.478963 1.470266 0.122512
v -0.482460 -0.143361 0.107920
v -0.482460 1.470266 0.107920
v -0.485513 -0.143361 0.093228
v -0.485513 1.470266 0.093228
v -0.488119 -0.143361 0.078450
v -0.488119 1.470266 0.078450
v -0.490275 -0.143361 0.063600
v -0.490275 1.470266 0.063600
v -0.491979 -0.143361 0.048691
v -0.491979 1.470266 0.048691
v -0.493230 -0.143361 0.033738
v -0.493230 1.470266 0.033738
v -0.494027 -0.143361 0.018753
v -0.494027 1.470266 0.018753
v -0.494369 -0.143361 0.003752
v -0.494369 1.470266 0.003752
v -0.494255 -0.143361 -0.011254
v -0.494255 1.470266 -0.011254
v -0.493686 -0.143361 -0.026249
v -0.493686 1.470266 -0.026249
v -0.492662 -0.143361 -0.041219
v -0.492662 1.470266 -0.041219
v -0.491184 -0.143361 -0.056152
v -0.491184 1.470266 -0.056152
v -0.489253 -0.143361 -0.071033
v -0.489253 1.470266 -0.071033
v -0.486872 -0.143361 -0.085849
v -0.486872 1.470266 -0.085849
v -0.484042 -0.143361 -0.100585
v -0.484042 1.470266 -0.100585
v -0.480767 -0.143361 -0.115229
v -0.480767 1.470266 -0.115229
v -0.477048 -0.143361 -0.129767
v -0.477048 1.470266 -0.129767
v -0.472890 -0.143361 -0.144185
v -0.472890 1.470266 -0.144185
v -0.468297 -0.143361 -0.158470
v -0.468297 1.470266 -0.158470
v -0.463272 -0.143361 -0.172609
v -0.463272 1.470266 -0.172609
v -0.457820 -0.143361 -0.186590
v -0.457820 1.470266 -0.186590
v -0.451946 -0.143361 -0.200398
v -0.451946 1.470266 -0.200398
v -0.445656 -0.143361 -0.214022
v -0.445656 1.470266 -0.214022
v -0.438955 -0.143361 -0.227448
v -0.438955 1.470266 -0.227448
v -0.431850 -0.143361 -0.240665
v -0.431850 1.470266 -0.240665
v -0.424347 -0.143361 -0.253661
v -0.424347 1.470266 -0.253661
v -0.416454 -0.143361 -0.266422
v -0.416454 1.470266 -0.266422
v -0.408176 -0.143361 -0.278939
v -0.408176 1.470266 -0.278939
v -0.399523 -0.143361 -0.291198
v -0.399523 1.470266 -0.291198
v -0.390501 -0.143361 -0.303189
v -0.390501 1.470266 -0.303189
v -0.381120 -0.143361 -0.314900
v -0.381120 1.470266 -0.314900
v -0.371387 -0.143361 -0.326322
v -0.371387 1.470266 -0.326322
v -0.361313 -0.143361 -0.337443
v -0.361313 1.470266 -0.337443
v -0.350905 -0.143361 -0.348253
v -0.350905 1.470266 -0.348253
v -0.340175 -0.143361 -0.358742
v -0.340175 1.470266 -0.358742
v -0.329131 -0.143361 -0.368901
v -0.329131 1.470266 -0.368901
v -0.317783 -0.143361 -0.378719
v -0.317783 1.470266 -0.378719
v -0.306143 -0.143361 -0.388189
v -0.306143 1.470266 -0.388189
v -0.294221 -0.143361 -0.397302
v -0.294221 1.470266 -0.397302
v -0.282028 -0.143361 -0.406048
v -0.282028 1.470266 -0.406048
v -0.269575 -0.143361 -0.414420
v -0.269575 1.470266 -0.414420
v -0.256873 -0.143361 -0.422410
v -0.256873 1.470266 -0.422410
v -0.243935 -0.143361 -0.430012
v -0.243935 1.470266 -0.430012
v -0.230773 -0.143361 -0.437217
v -0.230773 1.470266 -0.437217
v -0.217397 -0.143361 -0.444019
v -0.217397 1.470266 -0.444019
v -0.203822 -0.143361 -0.450412
v -0.203822 1.470266 -0.450412
v -0.190058 -0.143361 -0.456391
v -0.190058 1.470266 -0.456391
v -0.176120 -0.143361 -0.461948
v -0.176120 1.470266 -0.461948
v -0.162019 -0.143361 -0.467081
v -0.162019 1.470266 -0.467081
v -0.147769 -0.143361 -0.471783
v -0.147769 1.470266 -0.471783
v -0.133383 -0.143361 -0.476050
v -0.133383 1.470266 -0.476050
v -0.118874 -0.143361 -0.479879
v -0.118874 1.470266 -0.479879
v -0.104255 -0.143361 -0.483265
v -0.104255 1.470266 -0.483265
v -0.089541 -0.143361 -0.486207
v -0.089541 1.470266 -0.486207
v -0.074744 -0.143361 -0.488700
v -0.074744 1.470266 -0.488700
v -0.059878 -0.143361 -0.490743
v -0.059878 1.470266 -0.490743
v -0.044957 -0.143361 -0.492335
v -0.044957 1.470266 -0.492335
v -0.029994 -0.143361 -0.493472
v -0.029994 1.470266 -0.493472
v -0.015004 -0.143361 -0.494155
v -0.015004 1.470266 -0.494155
vn 0.0152 -0.0000 -0.9999
vn 0.0455 -0.0000 -0.9990
vn 0.0758 -0.0000 -0.9971
vn 0.1060 -0.0000 -0.9944
vn 0.1362 -0.0000 -0.9907
vn 0.1662 -0.0000 -0.9861
vn 0.1960 -0.0000 -0.9806
vn 0.2257 -0.0000 -0.9742
vn 0.2552 -0.0000 -0.9669
vn 0.2844 -0.0000 -0.9587
vn 0.3133 -0.0000 -0.9496
vn 0.3420 -0.0000 -0.9397
vn 0.3704 -0.0000 -0.9289
vn 0.3984 -0.0000 -0.9172
vn 0.4261 -0.0000 -0.9047
vn 0.4533 -0.0000 -0.8914
vn 0.4802 -0.0000 -0.8772
vn 0.5066 -0.0000 -0.8622
vn 0.5325 -0.0000 -0.8464
vn 0.5579 -0.0000 -0.8299
vn 0.5829 -0.0000 -0.8126
vn 0.6073 -0.0000 -0.7945
vn 0.6311 -0.0000 -0.7757
vn 0.6543 -0.0000 -0.7562
vn 0.6770 -0.0000 -0.7360
vn 0.6990 -0.0000 -0.7151
vn 0.7204 -0.0000 -0.6936
vn 0.7411 -0.0000 -0.6714
vn 0.7611 -0.0000 -0.6486
vn 0.7805 -0.0000 -0.6252
vn 0.7991 -0.0000 -0.6012
vn 0.8170 -0.0000 -0.5767
vn 0.8341 -0.0000 -0.5516
vn 0.8505 -0.0000 -0.5261
vn 0.8660 -0.0000 -0.5000
vn 0.8808 -0.0000 -0.4735
vn 0.8948 -0.0000 -0.4465
vn 0.9079 -0.0000 -0.4192
vn 0.9202 -0.0000 -0.3914
vn 0.9317 -0.0000 -0.3633
vn 0.9423 -0.0000 -0.3349
vn 0.9520 -0.0000 -0.3061
vn 0.9608 -0.0000 -0.2771
vn 0.9688 -0.0000 -0.2478
vn 0.9759 -0.0000 -0.2183
vn 0.9821 -0.0000 -0.1886
vn 0.9873 -0.0000 -0.1587
vn 0.9917 -0.0000 -0.1286
vn 0.9951 -0.0000 -0.0985
vn 0.9977 -0.0000 -0.0682
vn 0.9993 -0.0000 -0.0379
vn 1.0000 -0.0000 -0.0076
vn 0.9997 -0.0000 0.0228
vn 0.9986 -0.0000 0.0531
vn 0.9965 -0.0000 0.0834
vn 0.9935 -0.0000 0.1136
vn 0.9896 -0.0000 0.1437
vn 0.9848 -0.0000 0.1736
vn 0.9791 -0.0000 0.2035
vn 0.9725 -0.0000 0.2331
vn 0.9649 -0.0000 0.2625
vn 0.9565 -0.0000 0.2916
vn 0.9472 -0.0000 0.3205
vn 0.9371 -0.0000 0.3491
vn 0.9260 -0.0000 0.3774
vn 0.9142 -0.0000 0.4054
vn 0.9014 -0.0000 0.4329
vn 0.8879 -0.0000 0.4601
vn 0.8735 -0.0000 0.4868
vn 0.8583 -0.0000 0.5131
vn 0.8424 -0.0000 0.5389
vn 0.8256 -0.0000 0.5642
vn 0.8081 -0.0000 0.5890
vn 0.7899 -0.0000 0.6133
vn 0.7709 -0.0000 0.6370
vn 0.7512 -0.0000 0.6601
vn 0.7308 -0.0000 0.6826
vn 0.7098 -0.0000 0.7044
vn 0.6881 -0.0000 0.7256
vn 0.6657 -0.0000 0.7462
vn 0.6428 -0.0000 0.7660
vn 0.6192 -0.0000 0.7852
vn 0.5951 -0.0000 0.8036
vn 0.5705 -0.0000 0.8213
vn 0.5453 -0.0000 0.8383
vn 0.5196 -0.0000 0.8544
vn 0.4934 -0.0000 0.8698
vn 0.4668 -0.0000 0.8844
vn 0.4397 -0.0000 0.8981
vn 0.4123 -0.0000 0.9111
vn 0.3844 -0.0000 0.9232
vn 0.3562 -0.0000 0.9344
vn 0.3277 -0.0000 0.9448
vn 0.2989 -0.0000 0.9543
vn 0.2698 -0.0000 0.9629
vn 0.2404 -0.0000 0.9707
vn 0.2109 -0.0000 0.9775
vn 0.1811 -0.0000 0.9835
vn 0.1512 -0.0000 0.9885
vn 0.1211 -0.0000 0.9926
vn 0.0909 -0.0000 0.9959
vn 0.0607 -0.0000 0.9982
vn 0.0303 -0.0000 0.9995
vn -0.0000 -0.0000 1.0000
vn -0.0303 -0.0000 0.9995
vn -0.0607 -0.0000 0.9982
vn -0.0909 -0.0000 0.9959
vn -0.1211 -0.0000 0.9926
vn -0.1512 -0.0000 0.9885
vn -0.1811 -0.0000 0.9835
vn -0.2109 -0.0000 0.9775
vn -0.2404 -0.0000 0.9707
vn -0.2698 -0.0000 0.9629
vn -0.2989 -0.0000 0.9543
vn -0.3277 -0.0000 0.9448
vn -0.3562 -0.0000 0.9344
vn -0.3844 -0.0000 0.9232
vn -0.4123 -0.0000 0.9111
vn -0.4397 -0.0000 0.8981
vn -0.4668 -0.0000 0.8844
vn -0.4934 -0.0000 0.8698
vn -0.5196 -0.0000 0.8544
vn -0.5453 -0.0000 0.8383
vn -0.5705 -0.0000 0.8213
vn -0.5951 -0.0000 0.8036
vn -0.6192 -0.0000 0.7852
vn -0.6428 -0.0000 0.7660
vn -0.6657 -0.0000 0.7462
vn -0.6881 -0.0000 0.7256
vn -0.7098 -0.0000 0.7044
vn -0.7308 -0.0000 0.6826
vn -0.7512 -0.0000 0.6601
vn -0.7709 -0.0000 0.6370
vn -0.7899 -0.0000 0.6133
vn -0.8081 -0.0000 0.5890
vn -0.8256 -0.0000 0.5642
vn -0.8424 -0.0000 0.5389
vn -0.8583 -0.0000 0.5131
vn -0.8735 -0.0000 0.4868
vn -0.8879 -0.0000 0.4601
vn -0.9014 -0.0000 0.4329
vn -0.9142 -0.0000 0.4054
vn -0.9260 -0.0000 0.3774
vn -0.9371 -0.0000 0.3491
vn -0.9472 -0.0000 0.3205
vn -0.9565 -0.0000 0.2916
vn -0.9649 -0.0000 0.2625
vn -0.9725 -0.0000 0.2331
vn -0.9791 -0.0000 0.2035
vn -0.9848 -0.0000 0.1736
vn -0.9896 -0.0000 0.1437
vn -0.9935 -0.0000 0.1136
vn -0.9965 -0.0000 0.0834
vn -0.9986 -0.0000 0.0531
vn -0.9997 -0.0000 0.0228
vn -1.0000 -0.0000 -0.0076
vn -0.9993 -0.0000 -0.0379
vn -0.9977 -0.0000 -0.0682
vn -0.9951 -0.0000 -0.0985
vn -0.9917 -0.0000 -0.1286
vn -0.9873 -0.0000 -0.1587
vn -0.9821 -0.0000 -0.1886
vn -0.9759 -0.0000 -0.2183
vn -0.9688 -0.0000 -0.2478
vn -0.9608 -0.0000 -0.2771
vn -0.9520 -0.0000 -0.3061
vn -0.9423 -0.0000 -0.3349
vn -0.9317 -0.0000 -0.3633
vn -0.9202 -0.0000 -0.3914
vn -0.9079 -0.0000 -0.4192
vn -0.8948 -0.0000 -0.4465
vn -0.8808 -0.0000 -0.4735
vn -0.8660 -0.0000 -0.5000
vn -0.8505 -0.0000 -0.5261
vn -0.8341 -0.0000 -0.5516
vn -0.8170 -0.0000 -0.5767
vn -0.7991 -0.0000 -0.6012
vn -0.7805 -0.0000 -0.6252
vn -0.7611 -0.0000 -0.6486
vn -0.7411 -0.0000 -0.6714
vn -0.7204 -0.0000 -0.6936
vn -0.6990 -0.0000 -0.7151
vn -0.6770 -0.0000 -0.7360
vn -0.6543 -0.0000 -0.7562
vn -0.6311 -0.0000 -0.7757
vn -0.6073 -0.0000 -0.7945
vn -0.5829 -0.0000 -0.8126
vn -0.5579 -0.0000 -0.8299
vn -0.5325 -0.0000 -0.8464
vn -0.5066 -0.0000 -0.8622
vn -0.4802 -0.0000 -0.8772
vn -0.4533 -0.0000 -0.8914
vn -0.4261 -0.0000 -0.9047
vn -0.3984 -0.0000 -0.9172
vn -0.3704 -0.0000 -0.9289
vn -0.3420 -0.0000 -0.9397
vn -0.3133 -0.0000 -0.9496
vn -0.2844 -0.0000 -0.9587
vn -0.2552 -0.0000 -0.9669
vn -0.2257 -0.0000 -0.9742
vn -0.1960 -0.0000 -0.9806
vn -0.1662 -0.0000 -0.9861
vn -0.1362 -0.0000 -0.9907
vn -0.1060 -0.0000 -0.9944
vn -0.0758 -0.0000 -0.9971
vn -0.0000 1.0000 -0.0000
vn -0.0455 -0.0000 -0.9990
vn -0.0152 -0.0000 -0.9999
vn -0.0000 -1.0000 -0.0000
vt 1.000000 0.500000
vt 1.000000 1.000000
vt 0.995169 1.000000
vt 0.995169 0.500000
vt 0.990338 1.000000
vt 0.990338 0.500000
vt 0.985507 1.000000
vt 0.985507 0.500000
vt 0.980676 1.000000
vt 0.980676 0.500000
vt 0.975846 1.000000
vt 0.975846 0.500000
vt 0.971015 1.000000
vt 0.971015 0.500000
vt 0.966184 1.000000
vt 0.966184 0.500000
vt 0.961353 1.000000
vt 0.961353 0.500000
vt 0.956522 1.000000
vt 0.956522 0.500000
vt 0.951691 1.000000
vt 0.951691 0.500000
vt 0.946860 1.000000
vt 0.946860 0.500000
vt 0.942029 1.000000
vt 0.942029 0.500000
vt 0.937198 1.000000
vt 0.937198 0.500000
vt 0.932367 1.000000
vt 0.932367 0.500000
vt 0.927537 1.000000
vt 0.927537 0.500000
vt 0.922706 1.000000
vt 0.922706 0.500000
vt 0.917875 1.000000
vt 0.917875 0.500000
vt 0.913044 1.000000
vt 0.913044 0.500000
vt 0.908213 1.000000
vt 0.908213 0.500000
vt 0.903382 1.000000
vt 0.903382 0.500000
vt 0.898551 1.000000
vt 0.898551 0.500000
vt 0.893720 1.000000
vt 0.893720 0.500000
vt 0.888889 1.000000
vt 0.888889 0.500000
vt 0.884058 1.000000
vt 0.884058 0.500000
vt 0.879228 1.000000
vt 0.879228 0.500000
vt 0.874397 1.000000
vt 0.874397 0.500000
vt 0.869566 1.000000
vt 0.869566 0.500000
vt 0.864735 1.000000
vt 0.864735 0.500000
vt 0.859904 1.000000
vt 0.859904 0.500000
vt 0.855073 1.000000
vt 0.855073 0.500000
vt 0.850242 1.000000
vt 0.850242 0.500000
vt 0.845411 1.000000
vt 0.845411 0.500000
vt 0.840580 1.000000
vt 0.840580 0.500000
vt 0.835750 1.000000
vt 0.835750 0.500000
vt 0.830919 1.000000
vt 0.830919 0.500000
vt 0.826088 1.000000
vt 0.826088 0.500000
vt 0.821257 1.000000
vt 0.821257 0.500000
vt 0.816426 1.000000
vt 0.816426 0.500000
vt 0.811595 1.000000
vt 0.811595 0.500000
vt 0.806764 1.000000
vt 0.806764 0.500000
vt 0.801933 1.000000
vt 0.801933 0.500000
vt 0.797102 1.000000
vt 0.797102 0.500000
vt 0.792271 1.000000
vt 0.792271 0.500000
vt 0.787441 1.000000
vt 0.787441 0.500000
vt 0.782610 1.000000
vt 0.782610 0.500000
vt 0.777779 1.000000
vt 0.777779 0.500000
vt 0.772948 1.000000
vt 0.772948 0.500000
vt 0.768117 1.000000
vt 0.768117 0.500000
vt 0.763286 1.000000
vt 0.763286 0.500000
vt 0.758455 1.000000
vt 0.758455 0.500000
vt 0.753624 1.000000
vt 0.753624 0.500000
vt 0.748793 1.000000
vt 0.748793 0.500000
vt 0.743962 1.000000
vt 0.743962 0.500000
vt 0.739132 1.000000
vt 0.739132 0.500000
vt 0.734301 1.000000
vt 0.734301 0.500000
vt 0.729470 1.000000
vt 0.729470 0.500000
vt 0.724639 1.000000
vt 0.724639 0.500000
vt 0.719808 1.000000
vt 0.719808 0.500000
vt 0.714977 1.000000
vt 0.714977 0.500000
vt 0.710146 1.000000
vt 0.710146 0.500000
vt 0.705315 1.000000
vt 0.705315 0.500000
vt 0.700484 1.000000
vt 0.700484 0.500000
vt 0.695653 1.000000
vt 0.695653 0.500000
vt 0.690823 1.000000
vt 0.690823 0.500000
vt 0.685992 1.000000
vt 0.685992 0.500000
vt 0.681161 1.000000
vt 0.681161 0.500000
vt 0.676330 1.000000
vt 0.676330 0.500000
vt 0.671499 1.000000
vt 0.671499 0.500000
vt 0.666668 1.000000
vt 0.666668 0.500000
vt 0.661837 1.000000
vt 0.661837 0.500000
vt 0.657006 1.000000
vt 0.657006 0.500000
vt 0.652175 1.000000
vt 0.652175 0.500000
vt 0.647345 1.000000
vt 0.647345 0.500000
vt 0.642514 1.000000
vt 0.642514 0.500000
vt 0.637683 1.000000
vt 0.637683 0.500000
vt 0.632852 1.000000
vt 0.632852 0.500000
vt 0.628021 1.000000
vt 0.628021 0.500000
vt 0.623190 1.000000
vt 0.623190 0.500000
vt 0.618359 1.000000
vt 0.618359 0.500000
vt 0.613528 1.000000
vt 0.613528 0.500000
vt 0.608697 1.000000
vt 0.608697 0.500000
vt 0.603866 1.000000
vt 0.603866 0.500000
vt 0.599036 1.000000
vt 0.599036 0.500000
vt 0.594205 1.000000
vt 0.594205 0.500000
vt 0.589374 1.000000
vt 0.589374 0.500000
vt 0.584543 1.000000
vt 0.584543 0.500000
vt 0.579712 1.000000
vt 0.579712 0.500000
vt 0.574881 1.000000
vt 0.574881 0.500000
vt 0.570050 1.000000
vt 0.570050 0.500000
vt 0.565219 1.000000
vt 0.565219 0.500000
vt 0.560388 1.000000
vt 0.560388 0.500000
vt 0.555557 1.000000
vt 0.555557 0.500000
vt 0.550727 1.000000
vt 0.550727 0.500000
vt 0.545896 1.000000
vt 0.545896 0.500000
vt 0.541065 1.000000
vt 0.541065 0.500000
vt 0.536234 1.000000
vt 0.536234 0.500000
vt 0.531403 1.000000
vt 0.531403 0.500000
vt 0.526572 1.000000
vt 0.526572 0.500000
vt 0.521741 1.000000
vt 0.521741 0.500000
vt 0.516910 1.000000
vt 0.516910 0.500000
vt 0.512079 1.000000
vt 0.512079 0.500000
vt 0.507249 1.000000
vt 0.507249 0.500000
vt 0.502418 1.000000
vt 0.502418 0.500000
vt 0.497587 1.000000
vt 0.497587 0.500000
vt 0.492756 1.000000
vt 0.492756 0.500000
vt 0.487925 1.000000
vt 0.487925 0.500000
vt 0.483094 1.000000
vt 0.483094 0.500000
vt 0.478263 1.000000
vt 0.478263 0.500000
vt 0.473432 1.000000
vt 0.473432 0.500000
vt 0.468601 1.000000
vt 0.468601 0.500000
vt 0.463770 1.000000
vt 0.463770 0.500000
vt 0.458939 1.000000
vt 0.458939 0.500000
vt 0.454108 1.000000
vt 0.454108 0.500000
vt 0.449277 1.000000
vt 0.449277 0.500000
vt 0.444447 1.000000
vt 0.444447 0.500000
vt 0.439616 1.000000
vt 0.439616 0.500000
vt 0.434785 1.000000
vt 0.434785 0.500000
vt 0.429954 1.000000
vt 0.429954 0.500000
vt 0.425123 1.000000
vt 0.425123 0.500000
vt 0.420292 1.000000
vt 0.420292 0.500000
vt 0.415461 1.000000
vt 0.415461 0.500000
vt 0.410630 1.000000
vt 0.410630 0.500000
vt 0.405799 1.000000
vt 0.405799 0.500000
vt 0.400968 1.000000
vt 0.400968 0.500000
vt 0.396137 1.000000
vt 0.396137 0.500000
vt 0.391306 1.000000
vt 0.391306 0.500000
vt 0.386475 1.000000
vt 0.386475 0.500000
vt 0.381644 1.000000
vt 0.381644 0.500000
vt 0.376814 1.000000
vt 0.376814 0.500000
vt 0.371983 1.000000
vt 0.371983 0.500000
vt 0.367152 1.000000
vt 0.367152 0.500000
vt 0.362321 1.000000
vt 0.362321 0.500000
vt 0.357490 1.000000
vt 0.357490 0.500000
vt 0.352659 1.000000
vt 0.352659 0.500000
vt 0.347828 1.000000
vt 0.347828 0.500000
vt 0.342997 1.000000
vt 0.342997 0.500000
vt 0.338166 1.000000
vt 0.338166 0.500000
vt 0.333335 1.000000
vt 0.333335 0.500000
vt 0.328504 1.000000
vt 0.328504 0.500000
vt 0.323673 1.000000
vt 0.323673 0.500000
vt 0.318842 1.000000
vt 0.318842 0.500000
vt 0.314011 1.000000
vt 0.314011 0.500000
vt 0.309181 1.000000
vt 0.309181 0.500000
vt 0.304350 1.000000
vt 0.304350 0.500000
vt 0.299519 1.000000
vt 0.299519 0.500000
vt 0.294688 1.000000
vt 0.294688 0.500000
vt 0.289857 1.000000
vt 0.289857 0.500000
vt 0.285026 1.000000
vt 0.285026 0.500000
vt 0.280195 1.000000
vt 0.280195 0.500000
vt 0.275364 1.000000
vt 0.275364 0.500000
vt 0.270533 1.000000
vt 0.270533 0.500000
vt 0.265702 1.000000
vt 0.265702 0.500000
vt 0.260871 1.000000
vt 0.260871 0.500000
vt 0.256040 1.000000
vt 0.256040 0.500000
vt 0.251209 1.000000
vt 0.251209 0.500000
vt 0.246379 1.000000
vt 0.246379 0.500000
vt 0.241548 1.000000
vt 0.241548 0.500000
vt 0.236717 1.000000
vt 0.236717 0.500000
vt 0.231886 1.000000
vt 0.231886 0.500000
vt 0.227055 1.000000
vt 0.227055 0.500000
vt 0.222224 1.000000
vt 0.222224 0.500000
vt 0.217393 1.000000
vt 0.217393 0.500000
vt 0.212562 1.000000
vt 0.212562 0.500000
vt 0.207731 1.000000
vt 0.207731 0.500000
vt 0.202900 1.000000
vt 0.202900 0.500000
vt 0.198069 1.000000
vt 0.198069 0.500000
vt 0.193238 1.000000
vt 0.193238 0.500000
vt 0.188408 1.000000
vt 0.188408 0.500000
vt 0.183577 1.000000
vt 0.183577 0.500000
vt 0.178746 1.000000
vt 0.178746 0.500000
vt 0.173915 1.000000
vt 0.173915 0.500000
vt 0.169084 1.000000
vt 0.169084 0.500000
vt 0.164253 1.000000
vt 0.164253 0.500000
vt 0.159422 1.000000
vt 0.159422 0.500000
vt 0.154591 1.000000
vt 0.154591 0.500000
vt 0.149760 1.000000
vt 0.149760 0.500000
vt 0.144929 1.000000
vt 0.144929 0.500000
vt 0.140098 1.000000
vt 0.140098 0.500000
vt 0.135268 1.000000
vt 0.135268 0.500000
vt 0.130437 1.000000
vt 0.130437 0.500000
vt 0.125606 1.000000
vt 0.125606 0.500000
vt 0.120775 1.000000
vt 0.120775 0.500000
vt 0.115944 1.000000
vt 0.115944 0.500000
vt 0.111113 1.000000
vt 0.111113 0.500000
vt 0.106282 1.000000
vt 0.106282 0.500000
vt 0.101451 1.000000
vt 0.101451 0.500000
vt 0.096620 1.000000
vt 0.096620 0.500000
vt 0.091789 1.000000
vt 0.091789 0.500000
vt 0.086958 1.000000
vt 0.086958 0.500000
vt 0.082127 1.000000
vt 0.082127 0.500000
vt 0.077297 1.000000
vt 0.077297 0.500000
vt 0.072466 1.000000
vt 0.072466 0.500000
vt 0.067635 1.000000
vt 0.067635 0.500000
vt 0.062804 1.000000
vt 0.062804 0.500000
vt 0.057973 1.000000
vt 0.057973 0.500000
vt 0.053142 1.000000
vt 0.053142 0.500000
vt 0.048311 1.000000
vt 0.048311 0.500000
vt 0.043480 1.000000
vt 0.043480 0.500000
vt 0.038649 1.000000
vt 0.038649 0.500000
vt 0.033818 1.000000
vt 0.033818 0.500000
vt 0.028987 1.000000
vt 0.028987 0.500000
vt 0.024156 1.000000
vt 0.024156 0.500000
vt 0.019326 1.000000
vt 0.019326 0.500000
vt 0.014495 1.000000
vt 0.014495 0.500000
vt 0.009664 1.000000
vt 0.009664 0.500000
vt 0.257284 0.489889
vt 0.250000 0.490000
vt 0.242716 0.489889
vt 0.235439 0.489558
vt 0.228176 0.489006
vt 0.220932 0.488233
vt 0.213715 0.487241
vt 0.206532 0.486031
vt 0.199389 0.484603
vt 0.192292 0.482959
vt 0.185249 0.481100
vt 0.178265 0.479029
vt 0.171347 0.476746
vt 0.164502 0.474255
vt 0.157735 0.471556
vt 0.151054 0.468654
vt 0.144464 0.465551
vt 0.137971 0.462248
vt 0.131581 0.458751
vt 0.125300 0.455061
vt 0.119134 0.451182
vt 0.113089 0.447117
vt 0.107169 0.442871
vt 0.101382 0.438448
vt 0.095731 0.433851
vt 0.090222 0.429084
vt 0.084861 0.424152
vt 0.079652 0.419061
vt 0.074599 0.413813
vt 0.069709 0.408414
vt 0.064984 0.402869
vt 0.060430 0.397184
vt 0.056050 0.391363
vt 0.051849 0.385412
vt 0.047831 0.379336
vt 0.043999 0.373141
vt 0.040357 0.366832
vt 0.036908 0.360416
vt 0.033655 0.353898
vt 0.030601 0.347284
vt 0.027750 0.340581
vt 0.025103 0.333794
vt 0.022664 0.326930
vt 0.020434 0.319995
vt 0.018415 0.312996
vt 0.016610 0.305938
vt 0.015020 0.298829
vt 0.013646 0.291676
vt 0.012490 0.284483
vt 0.011553 0.277259
vt 0.010836 0.270010
vt 0.010339 0.262742
vt 0.010062 0.255463
vt 0.010007 0.248179
vt 0.010173 0.240896
vt 0.010560 0.233622
vt 0.011167 0.226363
vt 0.011994 0.219125
vt 0.013041 0.211916
vt 0.014306 0.204742
vt 0.015788 0.197610
vt 0.017486 0.190526
vt 0.019398 0.183497
vt 0.021522 0.176529
vt 0.023857 0.169629
vt 0.026401 0.162803
vt 0.029150 0.156057
vt 0.032103 0.149398
vt 0.035256 0.142831
vt 0.038608 0.136363
vt 0.042154 0.130000
vt 0.045892 0.123747
vt 0.049817 0.117611
vt 0.053927 0.111597
vt 0.058218 0.105710
vt 0.062685 0.099956
vt 0.067325 0.094340
vt 0.072134 0.088868
vt 0.077106 0.083544
vt 0.082237 0.078374
vt 0.087523 0.073361
vt 0.092959 0.068512
vt 0.098539 0.063829
vt 0.104259 0.059318
vt 0.110113 0.054983
vt 0.116096 0.050828
vt 0.122202 0.046855
vt 0.128426 0.043070
vt 0.134762 0.039476
vt 0.141205 0.036076
vt 0.147747 0.032873
vt 0.154384 0.029869
vt 0.161109 0.027069
vt 0.167915 0.024474
vt 0.174797 0.022086
vt 0.181749 0.019909
vt 0.188763 0.017944
vt 0.195834 0.016192
vt 0.202955 0.014656
vt 0.210119 0.013337
vt 0.217320 0.012235
vt 0.224551 0.011353
vt 0.231805 0.010691
vt 0.239076 0.010249
vt 0.246358 0.010028
vt 0.253642 0.010028
vt 0.260924 0.010249
vt 0.268195 0.010691
vt 0.275449 0.011353
vt 0.282680 0.012235
vt 0.289881 0.013337
vt 0.297045 0.014656
vt 0.304166 0.016192
vt 0.311237 0.017944
vt 0.318251 0.019909
vt 0.325203 0.022086
vt 0.332085 0.024474
vt 0.338892 0.027069
vt 0.345616 0.029869
vt 0.352253 0.032873
vt 0.358795 0.036076
vt 0.365238 0.039476
vt 0.371574 0.043070
vt 0.377798 0.046855
vt 0.383904 0.050828
vt 0.389887 0.054983
vt 0.395741 0.059318
vt 0.401461 0.063829
vt 0.407041 0.068512
vt 0.412477 0.073361
vt 0.417763 0.078374
vt 0.422894 0.083544
vt 0.427866 0.088868
vt 0.432675 0.094340
vt 0.437315 0.099956
vt 0.441782 0.105710
vt 0.446073 0.111597
vt 0.450183 0.117611
vt 0.454108 0.123747
vt 0.457846 0.130000
vt 0.461392 0.136363
vt 0.464744 0.142831
vt 0.467897 0.149398
vt 0.470850 0.156057
vt 0.473599 0.162803
vt 0.476143 0.169629
vt 0.478478 0.176529
vt 0.480602 0.183497
vt 0.482514 0.190526
vt 0.484212 0.197610
vt 0.485694 0.204742
vt 0.486959 0.211916
vt 0.488006 0.219125
vt 0.488833 0.226363
vt 0.489441 0.233622
vt 0.489827 0.240896
vt 0.489993 0.248179
vt 0.489938 0.255463
vt 0.489661 0.262742
vt 0.489164 0.270010
vt 0.488447 0.277259
vt 0.487510 0.284483
vt 0.486354 0.291676
vt 0.484980 0.298829
vt 0.483390 0.305938
vt 0.481585 0.312996
vt 0.479566 0.319995
vt 0.477336 0.326930
vt 0.474897 0.333794
vt 0.472250 0.340581
vt 0.469399 0.347284
vt 0.466345 0.353898
vt 0.463092 0.360416
vt 0.459643 0.366832
vt 0.456001 0.373141
vt 0.452169 0.379336
vt 0.448151 0.385412
vt 0.443950 0.391363
vt 0.439570 0.397184
vt 0.435016 0.402869
vt 0.430291 0.408414
vt 0.425401 0.413813
vt 0.420348 0.419061
vt 0.415139 0.424152
vt 0.409778 0.429084
vt 0.404269 0.433851
vt 0.398618 0.438448
vt 0.392831 0.442871
vt 0.386911 0.447117
vt 0.380866 0.451182
vt 0.374700 0.455061
vt 0.368419 0.458751
vt 0.362029 0.462248
vt 0.355536 0.465551
vt 0.348946 0.468654
vt 0.342265 0.471556
vt 0.335498 0.474255
vt 0.328653 0.476746
vt 0.321735 0.479029
vt 0.314751 0.481100
vt 0.307708 0.482959
vt 0.300611 0.484603
vt 0.293468 0.486031
vt 0.286285 0.487241
vt 0.279068 0.488233
vt 0.271824 0.489006
vt 0.264561 0.489558
vt 0.004833 1.000000
vt 0.004833 0.500000
vt 0.000002 1.000000
vt 0.000002 0.500000
vt 0.750000 0.490000
vt 0.757284 0.489889
vt 0.764561 0.489558
vt 0.771824 0.489006
vt 0.779068 0.488233
vt 0.786285 0.487241
vt 0.793468 0.486031
vt 0.800611 0.484603
vt 0.807708 0.482959
vt 0.814751 0.481100
vt 0.821735 0.479029
vt 0.828653 0.476746
vt 0.835498 0.474255
vt 0.842265 0.471556
vt 0.848946 0.468654
vt 0.855536 0.465551
vt 0.862029 0.462248
vt 0.868419 0.458751
vt 0.874700 0.455061
vt 0.880866 0.451182
vt 0.886911 0.447117
vt 0.892831 0.442871
vt 0.898618 0.438448
vt 0.904269 0.433851
vt 0.909778 0.429084
vt 0.915139 0.424152
vt 0.920348 0.419061
vt 0.925401 0.413813
vt 0.930291 0.408414
vt 0.935016 0.402869
vt 0.939570 0.397184
vt 0.943950 0.391363
vt 0.948151 0.385412
vt 0.952169 0.379336
vt 0.956001 0.373141
vt 0.959643 0.366832
vt 0.963092 0.360416
vt 0.966345 0.353898
vt 0.969399 0.347284
vt 0.972250 0.340581
vt 0.974897 0.333794
vt 0.977336 0.326930
vt 0.979566 0.319995
vt 0.981585 0.312996
vt 0.983390 0.305938
vt 0.984980 0.298829
vt 0.986354 0.291676
vt 0.987510 0.284483
vt 0.988447 0.277259
vt 0.989164 0.270010
vt 0.989661 0.262742
vt 0.989938 0.255463
vt 0.989993 0.248179
vt 0.989827 0.240896
vt 0.989441 0.233622
vt 0.988833 0.226363
vt 0.988006 0.219125
vt 0.986959 0.211916
vt 0.985694 0.204742
vt 0.984212 0.197610
vt 0.982514 0.190526
vt 0.980602 0.183497
vt 0.978478 0.176529
vt 0.976143 0.169629
vt 0.973599 0.162803
vt 0.970850 0.156057
vt 0.967897 0.149398
vt 0.964744 0.142831
vt 0.961392 0.136363
vt 0.957846 0.130000
vt 0.954108 0.123747
vt 0.950183 0.117611
vt 0.946073 0.111597
vt 0.941782 0.105710
vt 0.937315 0.099956
vt 0.932675 0.094340
vt 0.927866 0.088868
vt 0.922894 0.083544
vt 0.917763 0.078374
vt 0.912477 0.073361
vt 0.907041 0.068512
vt 0.901461 0.063829
vt 0.895741 0.059318
vt 0.889887 0.054983
vt 0.883904 0.050828
vt 0.877798 0.046855
vt 0.871574 0.043070
vt 0.865238 0.039476
vt 0.858795 0.036076
vt 0.852253 0.032873
vt 0.845616 0.029869
vt 0.838892 0.027069
vt 0.832085 0.024474
vt 0.825203 0.022086
vt 0.818251 0.019909
vt 0.811237 0.017944
vt 0.804166 0.016192
vt 0.797045 0.014656
vt 0.789881 0.013337
vt 0.782680 0.012235
vt 0.775449 0.011353
vt 0.768195 0.010691
vt 0.760924 0.010249
vt 0.753642 0.010028
vt 0.746358 0.010028
vt 0.739076 0.010249
vt 0.731805 0.010691
vt 0.724551 0.011353
vt 0.717320 0.012235
vt 0.710119 0.013337
vt 0.702955 0.014656
vt 0.695834 0.016192
vt 0.688763 0.017944
vt 0.681749 0.019909
vt 0.674797 0.022086
vt 0.667915 0.024474
vt 0.661108 0.027069
vt 0.654384 0.029869
vt 0.647747 0.032873
vt 0.641205 0.036076
vt 0.634762 0.039476
vt 0.628426 0.043070
vt 0.622202 0.046855
vt 0.616096 0.050828
vt 0.610113 0.054983
vt 0.604259 0.059318
vt 0.598539 0.063829
vt 0.592959 0.068512
vt 0.587523 0.073361
vt 0.582237 0.078374
vt 0.577106 0.083544
vt 0.572134 0.088868
vt 0.567325 0.094340
vt 0.562685 0.099956
vt 0.558218 0.105710
vt 0.553927 0.111597
vt 0.549817 0.117611
vt 0.545892 0.123747
vt 0.542154 0.130000
vt 0.538608 0.136363
vt 0.535256 0.142831
vt 0.532103 0.149398
vt 0.529150 0.156057
vt 0.526401 0.162803
vt 0.523857 0.169629
vt 0.521522 0.176529
vt 0.519398 0.183497
vt 0.517486 0.190526
vt 0.515788 0.197610
vt 0.514306 0.204742
vt 0.513041 0.211916
vt 0.511994 0.219125
vt 0.511167 0.226363
vt 0.510559 0.233622
vt 0.510173 0.240896
vt 0.510007 0.248179
vt 0.510062 0.255463
vt 0.510339 0.262742
vt 0.510836 0.270010
vt 0.511553 0.277259
vt 0.512490 0.284483
vt 0.513646 0.291676
vt 0.515020 0.298829
vt 0.516610 0.305938
vt 0.518415 0.312996
vt 0.520434 0.319995
vt 0.522664 0.326930
vt 0.525103 0.333794
vt 0.527750 0.340581
vt 0.530601 0.347284
vt 0.533655 0.353898
vt 0.536908 0.360416
vt 0.540357 0.366832
vt 0.543999 0.373141
vt 0.547831 0.379336
vt 0.551849 0.385412
vt 0.556050 0.391363
vt 0.560430 0.397184
vt 0.564984 0.402869
vt 0.569709 0.408414
vt 0.574599 0.413813
vt 0.579652 0.419061
vt 0.584861 0.424152
vt 0.590222 0.429084
vt 0.595731 0.433851
vt 0.601382 0.438448
vt 0.607169 0.442871
vt 0.613089 0.447117
vt 0.619134 0.451182
vt 0.625300 0.455061
vt 0.631581 0.458751
vt 0.637971 0.462248
vt 0.644464 0.465551
vt 0.651054 0.468654
vt 0.657735 0.471556
vt 0.664502 0.474255
vt 0.671347 0.476746
vt 0.678265 0.479029
vt 0.685249 0.481100
vt 0.692292 0.482959
vt 0.699389 0.484603
vt 0.706532 0.486031
vt 0.713715 0.487241
vt 0.720932 0.488233
vt 0.728176 0.489006
vt 0.735439 0.489558
vt 0.742716 0.489889
s 0
f 1/1/1 2/2/1 4/3/1 3/4/1
f 3/4/2 4/3/2 6/5/2 5/6/2
f 5/6/3 6/5/3 8/7/3 7/8/3
f 7/8/4 8/7/4 10/9/4 9/10/4
f 9/10/5 10/9/5 12/11/5 11/12/5
f 11/12/6 12/11/6 14/13/6 13/14/6
f 13/14/7 14/13/7 16/15/7 15/16/7
f 15/16/8 16/15/8 18/17/8 17/18/8
f 17/18/9 18/17/9 20/19/9 19/20/9
f 19/20/10 20/19/10 22/21/10 21/22/10
f 21/22/11 22/21/11 24/23/11 23/24/11
f 23/24/12 24/23/12 26/25/12 25/26/12
f 25/26/13 26/25/13 28/27/13 27/28/13
f 27/28/14 28/27/14 30/29/14 29/30/14
f 29/30/15 30/29/15 32/31/15 31/32/15
f 31/32/16 32/31/16 34/33/16 33/34/16
f 33/34/17 34/33/17 36/35/17 35/36/17
f 35/36/18 36/35/18 38/37/18 37/38/18
f 37/38/19 38/37/19 40/39/19 39/40/19
f 39/40/20 40/39/20 42/41/20 41/42/20
f 41/42/21 42/41/21 44/43/21 43/44/21
f 43/44/22 44/43/22 46/45/22 45/46/22
f 45/46/23 46/45/23 48/47/23 47/48/23
f 47/48/24 48/47/24 50/49/24 49/50/24
f 49/50/25 50/49/25 52/51/25 51/52/25
f 51/52/26 52/51/26 54/53/26 53/54/26
f 53/54/27 54/53/27 56/55/27 55/56/27
f 55/56/28 56/55/28 58/57/28 57/58/28
f 57/58/29 58/57/29 60/59/29 59/60/29
f 59/60/30 60/59/30 62/61/30 61/62/30
f 61/62/31 62/61/31 64/63/31 63/64/31
f 63/64/32 64/63/32 66/65/32 65/66/32
f 65/66/33 66/65/33 68/67/33 67/68/33
f 67/68/34 68/67/34 70/69/34 69/70/34
f 69/70/35 70/69/35 72/71/35 71/72/35
f 71/72/36 72/71/36 74/73/36 73/74/36
f 73/74/37 74/73/37 76/75/37 75/76/37
f 75/76/38 76/75/38 78/77/38 77/78/38
f 77/78/39 78/77/39 80/79/39 79/80/39
f 79/80/40 80/79/40 82/81/40 81/82/40
f 81/82/41 82/81/41 84/83/41 83/84/41
f 83/84/42 84/83/42 86/85/42 85/86/42
f 85/86/43 86/85/43 88/87/43 87/88/43
f 87/88/44 88/87/44 90/89/44 89/90/44
f 89/90/45 90/89/45 92/91/45 91/92/45
f 91/92/46 92/91/46 94/93/46 93/94/46
f 93/94/47 94/93/47 96/95/47 95/96/47
f 95/96/48 96/95/48 98/97/48 97/98/48
f 97/98/49 98/97/49 100/99/49 99/100/49
f 99/100/50 100/99/50 102/101/50 101/102/50
f 101/102/51 102/101/51 104/103/51 103/104/51
f 103/104/52 104/103/52 106/105/52 105/106/52
f 105/106/53 106/105/53 108/107/53 107/108/53
f 107/108/54 108/107/54 110/109/54 109/110/54
f 109/110/55 110/109/55 112/111/55 111/112/55
f 111/112/56 112/111/56 114/113/56 113/114/56
f 113/114/57 114/113/57 116/115/57 115/116/57
f 115/116/58 116/115/58 118/117/58 117/118/58
f 117/118/59 118/117/59 120/119/59 119/120/59
f 119/120/60 120/119/60 122/121/60 121/122/60
f 121/122/61 122/121/61 124/123/61 123/124/61
f 123/124/62 124/123/62 126/125/62 125/126/62
f 125/126/63 126/125/63 128/127/63 127/128/63
f 127/128/64 128/127/64 130/129/64 129/130/64
f 129/130/65 130/129/65 132/131/65 131/132/65
f 131/132/66 132/131/66 134/133/66 133/134/66
f 133/134/67 134/133/67 136/135/67 135/136/67
f 135/136/68 136/135/68 138/137/68 137/138/68
f 137/138/69 138/137/69 140/139/69 139/140/69
f 139/140/70 140/139/70 142/141/70 141/142/70
f 141/142/71 142/141/71 144/143/71 143/144/71
f 143/144/72 144/143/72 146/145/72 145/146/72
f 145/146/73 146/145/73 148/147/73 147/148/73
f 147/148/74 148/147/74 150/149/74 149/150/74
f 149/150/75 150/149/75 152/151/75 151/152/75
f 151/152/76 152/151/76 154/153/76 153/154/76
f 153/154/77 154/153/77 156/155/77 155/156/77
f 155/156/78 156/155/78 158/157/78 157/158/78
f 157/158/79 158/157/79 160/159/79 159/160/79
f 159/160/80 160/159/80 162/161/80 161/162/80
f 161/162/81 162/161/81 164/163/81 163/164/81
f 163/164/82 164/163/82 166/165/82 165/166/82
f 165/166/83 166/165/83 168/167/83 167/168/83
f 167/168/84 168/167/84 170/169/84 169/170/84
f 169/170/85 170/169/85 172/171/85 171/172/85
f 171/172/86 172/171/86 174/173/86 173/174/86
f 173/174/87 174/173/87 176/175/87 175/176/87
f 175/176/88 176/175/88 178/177/88 177/178/88
f 177/178/89 178/177/89 180/179/89 179/180/89
f 179/180/90 180/179/90 182/181/90 181/182/90
f 181/182/91 182/181/91 184/183/91 183/184/91
f 183/184/92 184/183/92 186/185/92 185/186/92
f 185/186/93 186/185/93 188/187/93 187/188/93
f 187/188/94 188/187/94 190/189/94 189/190/94
f 189/190/95 190/189/95 192/191/95 191/192/95
f 191/192/96 192/191/96 194/193/96 193/194/96
f 193/194/97 194/193/97 196/195/97 195/196/97
f 195/196/98 196/195/98 198/197/98 197/198/98
f 197/198/99 198/197/99 200/199/99 199/200/99
f 199/200/100 200/199/100 202/201/100 201/202/100
f 201/202/101 202/201/101 204/203/101 203/204/101
f 203/204/102 204/203/102 206/205/102 205/206/102
f 205/206/103 206/205/103 208/207/103 207/208/103
f 207/208/104 208/207/104 210/209/104 209/210/104
f 209/210/105 210/209/105 212/211/105 211/212/105
f 211/212/106 212/211/106 214/213/106 213/214/106
f 213/214/107 214/213/107 216/215/107 215/216/107
f 215/216/108 216/215/108 218/217/108 217/218/108
f 217/218/109 218/217/109 220/219/109 219/220/109
f 219/220/110 220/219/110 222/221/110 221/222/110
f 221/222/111 222/221/111 224/223/111 223/224/111
f 223/224/112 224/223/112 226/225/112 225/226/112
f 225/226/113 226/225/113 228/227/113 227/228/113
f 227/228/114 228/227/114 230/229/114 229/230/114
f 229/230/115 230/229/115 232/231/115 231/232/115
f 231/232/116 232/231/116 234/233/116 233/234/116
f 233/234/117 234/233/117 236/235/117 235/236/117
f 235/236/118 236/235/118 238/237/118 237/238/118
f 237/238/119 238/237/119 240/239/119 239/240/119
f 239/240/120 240/239/120 242/241/120 241/242/120
f 241/242/121 242/241/121 244/243/121 243/244/121
f 243/244/122 244/243/122 246/245/122 245/246/122
f 245/246/123 246/245/123 248/247/123 247/248/123
f 247/248/124 248/247/124 250/249/124 249/250/124
f 249/250/125 250/249/125 252/251/125 251/252/125
f 251/252/126 252/251/126 254/253/126 253/254/126
f 253/254/127 254/253/127 256/255/127 255/256/127
f 255/256/128 256/255/128 258/257/128 257/258/128
f 257/258/129 258/257/129 260/259/129 259/260/129
f 259/260/130 260/259/130 262/261/130 261/262/130
f 261/262/131 262/261/131 264/263/131 263/264/131
f 263/264/132 264/263/132 266/265/132 265/266/132
f 265/266/133 266/265/133 268/267/133 267/268/133
f 267/268/134 268/267/134 270/269/134 269/270/134
f 269/270/135 270/269/135 272/271/135 271/272/135
f 271/272/136 272/271/136 274/273/136 273/274/136
f 273/274/137 274/273/137 276/275/137 275/276/137
f 275/276/138 276/275/138 278/277/138 277/278/138
f 277/278/139 278/277/139 280/279/139 279/280/139
f 279/280/140 280/279/140 282/281/140 281/282/140
f 281/282/141 282/281/141 284/283/141 283/284/141
f 283/284/142 284/283/142 286/285/142 285/286/142
f 285/286/143 286/285/143 288/287/143 287/288/143
f 287/288/144 288/287/144 290/289/144 289/290/144
f 289/290/145 290/289/145 292/291/145 291/292/145
f 291/292/146 292/291/146 294/293/146 293/294/146
f 293/294/147 294/293/147 296/295/147 295/296/147
f 295/296/148 296/295/148 298/297/148 297/298/148
f 297/298/149 298/297/149 300/299/149 299/300/149
f 299/300/150 300/299/150 302/301/150 301/302/150
f 301/302/151 302/301/151 304/303/151 303/304/151
f 303/304/152 304/303/152 306/305/152 305/306/152
f 305/306/153 306/305/153 308/307/153 307/308/153
f 307/308/154 308/307/154 310/309/154 309/310/154
f 309/310/155 310/309/155 312/311/155 311/312/155
f 311/312/156 312/311/156 314/313/156 313/314/156
f 313/314/157 314/313/157 316/315/157 315/316/157
f 315/316/158 316/315/158 318/317/158 317/318/158
f 317/318/159 318/317/159 320/319/159 319/320/159
f 319/320/160 320/319/160 322/321/160 321/322/160
f 321/322/161 322/321/161 324/323/161 323/324/161
f 323/324/162 324/323/162 326/325/162 325/326/162
f 325/326/163 326/325/163 328/327/163 327/328/163
f 327/328/164 328/327/164 330/329/164 329/330/164
f 329/330/165 330/329/165 332/331/165 331/332/165
f 331/332/166 332/331/166 334/333/166 333/334/166
f 333/334/167 334/333/167 336/335/167 335/336/167
f 335/336/168 336/335/168 338/337/168 337/338/168
f 337/338/169 338/337/169 340/339/169 339/340/169
f 339/340/170 340/339/170 342/341/170 341/342/170
f 341/342/171 342/341/171 344/343/171 343/344/171
f 343/344/172 344/343/172 346/345/172 345/346/172
f 345/346/173 346/345/173 348/347/173 347/348/173
f 347/348/174 348/347/174 350/349/174 349/350/174
f 349/350/175 350/349/175 352/351/175 351/352/175
f 351/352/176 352/351/176 354/353/176 353/354/176
f 353/354/177 354/353/177 356/355/177 355/356/177
f 355/356/178 356/355/178 358/357/178 357/358/178
f 357/358/179 358/357/179 360/359/179 359/360/179
f 359/360/180 360/359/180 362/361/180 361/362/180
f 361/362/181 362/361/181 364/363/181 363/364/181
f 363/364/182 364/363/182 366/365/182 365/366/182
f 365/366/183 366/365/183 368/367/183 367/368/183
f 367/368/184 368/367/184 370/369/184 369/370/184
f 369/370/185 370/369/185 372/371/185 371/372/185
f 371/372/186 372/371/186 374/373/186 373/374/186
f 373/374/187 374/373/187 376/375/187 375/376/187
f 375/376/188 376/375/188 378/377/188 377/378/188
f 377/378/189 378/377/189 380/379/189 379/380/189
f 379/380/190 380/379/190 382/381/190 381/382/190
f 381/382/191 382/381/191 384/383/191 383/384/191
f 383/384/192 384/383/192 386/385/192 385/386/192
f 385/386/193 386/385/193 388/387/193 387/388/193
f 387/388/194 388/387/194 390/389/194 389/390/194
f 389/390/195 390/389/195 392/391/195 391/392/195
f 391/392/196 392/391/196 394/393/196 393/394/196
f 393/394/197 394/393/197 396/395/197 395/396/197
f 395/396/198 396/395/198 398/397/198 397/398/198
f 397/398/199 398/397/199 400/399/199 399/400/199
f 399/400/200 400/399/200 402/401/200 401/402/200
f 401/402/201 402/401/201 404/403/201 403/404/201
f 403/404/202 404/403/202 406/405/202 405/406/202
f 405/406/203 406/405/203 408/407/203 407/408/203
f 407/408/204 408/407/204 410/409/204 409/410/204
f 409/410/205 410/409/205 412/411/205 411/412/205
f 4/413/206 2/414/206 414/415/206 412/416/206 410/417/206 408/418/206 406/419/206 404/420/206 402/421/206 400/422/206 398/423/206 396/424/206 394/425/206 392/426/206 390/427/206 388/428/206 386/429/206 384/430/206 382/431/206 380/432/206 378/433/206 376/434/206 374/435/206 372/436/206 370/437/206 368/438/206 366/439/206 364/440/206 362/441/206 360/442/206 358/443/206 356/444/206 354/445/206 352/446/206 350/447/206 348/448/206 346/449/206 344/450/206 342/451/206 340/452/206 338/453/206 336/454/206 334/455/206 332/456/206 330/457/206 328/458/206 326/459/206 324/460/206 322/461/206 320/462/206 318/463/206 316/464/206 314/465/206 312/466/206 310/467/206 308/468/206 306/469/206 304/470/206 302/471/206 300/472/206 298/473/206 296/474/206 294/475/206 292/476/206 290/477/206 288/478/206 286/479/206 284/480/206 282/481/206 280/482/206 278/483/206 276/484/206 274/485/206 272/486/206 270/487/206 268/488/206 266/489/206 264/490/206 262/491/206 260/492/206 258/493/206 256/494/206 254/495/206 252/496/206 250/497/206 248/498/206 246/499/206 244/500/206 242/501/206 240/502/206 238/503/206 236/504/206 234/505/206 232/506/206 230/507/206 228/508/206 226/509/206 224/510/206 222/511/206 220/512/206 218/513/206 216/514/206 214/515/206 212/516/206 210/517/206 208/518/206 206/519/206 204/520/206 202/521/206 200/522/206 198/523/206 196/524/206 194/525/206 192/526/206 190/527/206 188/528/206 186/529/206 184/530/206 182/531/206 180/532/206 178/533/206 176/534/206 174/535/206 172/536/206 170/537/206 168/538/206 166/539/206 164/540/206 162/541/206 160/542/206 158/543/206 156/544/206 154/545/206 152/546/206 150/547/206 148/548/206 146/549/206 144/550/206 142/551/206 140/552/206 138/553/206 136/554/206 134/555/206 132/556/206 130/557/206 128/558/206 126/559/206 124/560/206 122/561/206 120/562/206 118/563/206 116/564/206 114/565/206 112/566/206 110/567/206 108/568/206 106/569/206 104/570/206 102/571/206 100/572/206 98/573/206 96/574/206 94/575/206 92/576/206 90/577/206 88/578/206 86/579/206 84/580/206 82/581/206 80/582/206 78/583/206 76/584/206 74/585/206 72/586/206 70/587/206 68/588/206 66/589/206 64/590/206 62/591/206 60/592/206 58/593/206 56/594/206 54/595/206 52/596/206 50/597/206 48/598/206 46/599/206 44/600/206 42/601/206 40/602/206 38/603/206 36/604/206 34/605/206 32/606/206 30/607/206 28/608/206 26/609/206 24/610/206 22/611/206 20/612/206 18/613/206 16/614/206 14/615/206 12/616/206 10/617/206 8/618/206 6/619/206
f 411/412/207 412/411/207 414/620/207 413/621/207
f 413/621/208 414/620/208 2/622/208 1/623/208
f 1/624/209 3/625/209 5/626/209 7/627/209 9/628/209 11/629/209 13/630/209 15/631/209 17/632/209 19/633/209 21/634/209 23/635/209 25/636/209 27/637/209 29/638/209 31/639/209 33/640/209 35/641/209 37/642/209 39/643/209 41/644/209 43/645/209 45/646/209 47/647/209 49/648/209 51/649/209 53/650/209 55/651/209 57/652/209 59/653/209 61/654/209 63/655/209 65/656/209 67/657/209 69/658/209 71/659/209 73/660/209 75/661/209 77/662/209 79/663/209 81/664/209 83/665/209 85/666/209 87/667/209 89/668/209 91/669/209 93/670/209 95/671/209 97/672/209 99/673/209 101/674/209 103/675/209 105/676/209 107/677/209 109/678/209 111/679/209 113/680/209 115/681/209 117/682/209 119/683/209 121/684/209 123/685/209 125/686/209 127/687/209 129/688/209 131/689/209 133/690/209 135/691/209 137/692/209 139/693/209 141/694/209 143/695/209 145/696/209 147/697/209 149/698/209 151/699/209 153/700/209 155/701/209 157/702/209 159/703/209 161/704/209 163/705/209 165/706/209 167/707/209 169/708/209 171/709/209 173/710/209 175/711/209 177/712/209 179/713/209 181/714/209 183/715/209 185/716/209 187/717/209 189/718/209 191/719/209 193/720/209 195/721/209 197/722/209 199/723/209 201/724/209 203/725/209 205/726/209 207/727/209 209/728/209 211/729/209 213/730/209 215/731/209 217/732/209 219/733/209 221/734/209 223/735/209 225/736/209 227/737/209 229/738/209 231/739/209 233/740/209 235/741/209 237/742/209 239/743/209 241/744/209 243/745/209 245/746/209 247/747/209 249/748/209 251/749/209 253/750/209 255/751/209 257/752/209 259/753/209 261/754/209 263/755/209 265/756/209 267/757/209 269/758/209 271/759/209 273/760/209 275/761/209 277/762/209 279/763/209 281/764/209 283/765/209 285/766/209 287/767/209 289/768/209 291/769/209 293/770/209 295/771/209 297/772/209 299/773/209 301/774/209 303/775/209 305/776/209 307/777/209 309/778/209 311/779/209 313/780/209 315/781/209 317/782/209 319/783/209 321/784/209 323/785/209 325/786/209 327/787/209 329/788/209 331/789/209 333/790/209 335/791/209 337/792/209 339/793/209 341/794/209 343/795/209 345/796/209 347/797/209 349/798/209 351/799/209 353/800/209 355/801/209 357/802/209 359/803/209 361/804/209 363/805/209 365/806/209 367/807/209 369/808/209 371/809/209 373/810/209 375/811/209 377/812/209 379/813/209 381/814/209 383/815/209 385/816/209 387/817/209 389/818/209 391/819/209 393/820/209 395/821/209 397/822/209 399/823/209 401/824/209 403/825/209 405/826/209 407/827/209 409/828/209 411/829/209 413/830/209
