# Blender 4.5.4 LTS
# www.blender.org
o Cone
v 0.000000 -0.345188 -1.000000
v 0.015437 -0.345188 -0.999881
v 0.030871 -0.345188 -0.999523
v 0.046297 -0.345188 -0.998928
v 0.061712 -0.345188 -0.998094
v 0.077112 -0.345188 -0.997022
v 0.092494 -0.345188 -0.995713
v 0.107854 -0.345188 -0.994167
v 0.123189 -0.345188 -0.992383
v 0.138494 -0.345188 -0.990363
v 0.153766 -0.345188 -0.988107
v 0.169001 -0.345188 -0.985616
v 0.184196 -0.345188 -0.982890
v 0.199347 -0.345188 -0.979929
v 0.214451 -0.345188 -0.976735
v 0.229503 -0.345188 -0.973308
v 0.244501 -0.345188 -0.969649
v 0.259440 -0.345188 -0.965759
v 0.274318 -0.345188 -0.961639
v 0.289130 -0.345188 -0.957290
v 0.303874 -0.345188 -0.952712
v 0.318545 -0.345188 -0.947908
v 0.333140 -0.345188 -0.942877
v 0.347656 -0.345188 -0.937622
v 0.362088 -0.345188 -0.932144
v 0.376435 -0.345188 -0.926443
v 0.390692 -0.345188 -0.920522
v 0.404855 -0.345188 -0.914381
v 0.418923 -0.345188 -0.908022
v 0.432890 -0.345188 -0.901447
v 0.446754 -0.345188 -0.894657
v 0.460512 -0.345188 -0.887654
v 0.474160 -0.345188 -0.880439
v 0.487695 -0.345188 -0.873014
v 0.501114 -0.345188 -0.865381
v 0.514413 -0.345188 -0.857543
v 0.527590 -0.345188 -0.849499
v 0.540641 -0.345188 -0.841254
v 0.553563 -0.345188 -0.832807
v 0.566353 -0.345188 -0.824163
v 0.579008 -0.345188 -0.815322
v 0.591526 -0.345188 -0.806286
v 0.603902 -0.345188 -0.797059
v 0.616134 -0.345188 -0.787641
v 0.628220 -0.345188 -0.778036
v 0.640156 -0.345188 -0.768245
v 0.651939 -0.345188 -0.758271
v 0.663567 -0.345188 -0.748117
v 0.675037 -0.345188 -0.737784
v 0.686346 -0.345188 -0.727275
v 0.697491 -0.345188 -0.716594
v 0.708470 -0.345188 -0.705741
v 0.719280 -0.345188 -0.694720
v 0.729919 -0.345188 -0.683534
v 0.740384 -0.345188 -0.672184
v 0.750672 -0.345188 -0.660675
v 0.760782 -0.345188 -0.649008
v 0.770710 -0.345188 -0.637186
v 0.780455 -0.345188 -0.625213
v 0.790013 -0.345188 -0.613090
v 0.799383 -0.345188 -0.600821
v 0.808563 -0.345188 -0.588410
v 0.817550 -0.345188 -0.575858
v 0.826342 -0.345188 -0.563168
v 0.834938 -0.345188 -0.550345
v 0.843334 -0.345188 -0.537390
v 0.851529 -0.345188 -0.524307
v 0.859522 -0.345188 -0.511100
v 0.867309 -0.345188 -0.497770
v 0.874890 -0.345188 -0.484322
v 0.882262 -0.345188 -0.470758
v 0.889424 -0.345188 -0.457083
v 0.896374 -0.345188 -0.443298
v 0.903111 -0.345188 -0.429408
v 0.909632 -0.345188 -0.415415
v 0.915936 -0.345188 -0.401323
v 0.922023 -0.345188 -0.387136
v 0.927889 -0.345188 -0.372856
v 0.933534 -0.345188 -0.358488
v 0.938957 -0.345188 -0.344034
v 0.944156 -0.345188 -0.329498
v 0.949130 -0.345188 -0.314884
v 0.953878 -0.345188 -0.300195
v 0.958399 -0.345188 -0.285434
v 0.962691 -0.345188 -0.270605
v 0.966753 -0.345188 -0.255711
v 0.970586 -0.345188 -0.240757
v 0.974186 -0.345188 -0.225745
v 0.977555 -0.345188 -0.210679
v 0.980691 -0.345188 -0.195563
v 0.983593 -0.345188 -0.180401
v 0.986261 -0.345188 -0.165196
v 0.988693 -0.345188 -0.149951
v 0.990890 -0.345188 -0.134670
v 0.992851 -0.345188 -0.119358
v 0.994576 -0.345188 -0.104017
v 0.996063 -0.345188 -0.088651
v 0.997313 -0.345188 -0.073264
v 0.998325 -0.345188 -0.057859
v 0.999099 -0.345188 -0.042441
v 0.999635 -0.345188 -0.027013
v 0.999933 -0.345188 -0.011578
v 0.999993 -0.345188 0.003859
v 0.999814 -0.345188 0.019296
v 0.999397 -0.345188 0.034728
v 0.998742 -0.345188 0.050152
v 0.997848 -0.345188 0.065564
v 0.996717 -0.345188 0.080960
v 0.995349 -0.345188 0.096337
v 0.993743 -0.345188 0.111691
v 0.991900 -0.345188 0.127018
v 0.989821 -0.345188 0.142315
v 0.987507 -0.345188 0.157578
v 0.984956 -0.345188 0.172803
v 0.982171 -0.345188 0.187988
v 0.979152 -0.345188 0.203127
v 0.975900 -0.345188 0.218219
v 0.972415 -0.345188 0.233258
v 0.968698 -0.345188 0.248241
v 0.964751 -0.345188 0.263166
v 0.960573 -0.345188 0.278027
v 0.956167 -0.345188 0.292823
v 0.951532 -0.345188 0.307548
v 0.946671 -0.345188 0.322201
v 0.941585 -0.345188 0.336776
v 0.936274 -0.345188 0.351272
v 0.930739 -0.345188 0.365683
v 0.924983 -0.345188 0.380008
v 0.919007 -0.345188 0.394241
v 0.912811 -0.345188 0.408381
v 0.906398 -0.345188 0.422424
v 0.899769 -0.345188 0.436366
v 0.892926 -0.345188 0.450204
v 0.885870 -0.345188 0.463934
v 0.878602 -0.345188 0.477554
v 0.871125 -0.345188 0.491061
v 0.863441 -0.345188 0.504450
v 0.855551 -0.345188 0.517719
v 0.847457 -0.345188 0.530864
v 0.839161 -0.345188 0.543884
v 0.830665 -0.345188 0.556773
v 0.821971 -0.345188 0.569530
v 0.813081 -0.345188 0.582151
v 0.803997 -0.345188 0.594633
v 0.794722 -0.345188 0.606974
v 0.785257 -0.345188 0.619170
v 0.775605 -0.345188 0.631218
v 0.765769 -0.345188 0.643116
v 0.755750 -0.345188 0.654861
v 0.745550 -0.345188 0.666449
v 0.735173 -0.345188 0.677879
v 0.724621 -0.345188 0.689147
v 0.713896 -0.345188 0.700251
v 0.703001 -0.345188 0.711188
v 0.691939 -0.345188 0.721956
v 0.680711 -0.345188 0.732552
v 0.669322 -0.345188 0.742973
v 0.657773 -0.345188 0.753217
v 0.646067 -0.345188 0.763281
v 0.634207 -0.345188 0.773163
v 0.622196 -0.345188 0.782862
v 0.610036 -0.345188 0.792373
v 0.597732 -0.345188 0.801696
v 0.585285 -0.345188 0.810828
v 0.572698 -0.345188 0.819766
v 0.559975 -0.345188 0.828510
v 0.547118 -0.345188 0.837055
v 0.534131 -0.345188 0.845402
v 0.521017 -0.345188 0.853546
v 0.507779 -0.345188 0.861488
v 0.494419 -0.345188 0.869224
v 0.480942 -0.345188 0.876752
v 0.467350 -0.345188 0.884072
v 0.453647 -0.345188 0.891182
v 0.439835 -0.345188 0.898079
v 0.425919 -0.345188 0.904761
v 0.411901 -0.345188 0.911228
v 0.397785 -0.345188 0.917479
v 0.383575 -0.345188 0.923510
v 0.369273 -0.345188 0.929321
v 0.354882 -0.345188 0.934911
v 0.340408 -0.345188 0.940278
v 0.325852 -0.345188 0.945421
v 0.311219 -0.345188 0.950338
v 0.296511 -0.345188 0.955029
v 0.281733 -0.345188 0.959493
v 0.266887 -0.345188 0.963728
v 0.251978 -0.345188 0.967733
v 0.237009 -0.345188 0.971507
v 0.221983 -0.345188 0.975050
v 0.206905 -0.345188 0.978361
v 0.191777 -0.345188 0.981439
v 0.176604 -0.345188 0.984282
v 0.161388 -0.345188 0.986891
v 0.146134 -0.345188 0.989265
v 0.130845 -0.345188 0.991403
v 0.115525 -0.345188 0.993305
v 0.100177 -0.345188 0.994970
v 0.084806 -0.345188 0.996397
v 0.069414 -0.345188 0.997588
v 0.054006 -0.345188 0.998541
v 0.038585 -0.345188 0.999255
v 0.023155 -0.345188 0.999732
v 0.007719 -0.345188 0.999970
v -0.007719 -0.345188 0.999970
v -0.023155 -0.345188 0.999732
v -0.038585 -0.345188 0.999255
v -0.054006 -0.345188 0.998541
v -0.069414 -0.345188 0.997588
v -0.084806 -0.345188 0.996397
v -0.100177 -0.345188 0.994970
v -0.115525 -0.345188 0.993305
v -0.130845 -0.345188 0.991403
v -0.146134 -0.345188 0.989265
v -0.161388 -0.345188 0.986891
v -0.176604 -0.345188 0.984282
v -0.191777 -0.345188 0.981439
v -0.206905 -0.345188 0.978361
v -0.221983 -0.345188 0.975050
v -0.237009 -0.345188 0.971507
v -0.251978 -0.345188 0.967733
v -0.266887 -0.345188 0.963728
v -0.281733 -0.345188 0.959493
v -0.296511 -0.345188 0.955029
v -0.311219 -0.345188 0.950338
v -0.325852 -0.345188 0.945421
v -0.340408 -0.345188 0.940278
v -0.354882 -0.345188 0.934911
v -0.369273 -0.345188 0.929321
v -0.383575 -0.345188 0.923510
v -0.397785 -0.345188 0.917479
v -0.411901 -0.345188 0.911228
v -0.425919 -0.345188 0.904761
v -0.439835 -0.345188 0.898079
v -0.453647 -0.345188 0.891182
v -0.467350 -0.345188 0.884072
v -0.480942 -0.345188 0.876752
v -0.494419 -0.345188 0.869224
v -0.507779 -0.345188 0.861488
v -0.521017 -0.345188 0.853546
v -0.534131 -0.345188 0.845402
v -0.547118 -0.345188 0.837055
v -0.559975 -0.345188 0.828510
v -0.572698 -0.345188 0.819766
v -0.585285 -0.345188 0.810828
v -0.597732 -0.345188 0.801696
v -0.610036 -0.345188 0.792373
v -0.622196 -0.345188 0.782862
v -0.634207 -0.345188 0.773163
v -0.646067 -0.345188 0.763281
v -0.657773 -0.345188 0.753217
v -0.669322 -0.345188 0.742973
v -0.680711 -0.345188 0.732552
v -0.691939 -0.345188 0.721956
v -0.703001 -0.345188 0.711188
v -0.713896 -0.345188 0.700251
v -0.724621 -0.345188 0.689147
v -0.735173 -0.345188 0.677879
v -0.745550 -0.345188 0.666449
v -0.755750 -0.345188 0.654861
v -0.765769 -0.345188 0.643116
v -0.775605 -0.345188 0.631218
v -0.785257 -0.345188 0.619170
v -0.794722 -0.345188 0.606974
v -0.803997 -0.345188 0.594633
v -0.813081 -0.345188 0.582151
v -0.821971 -0.345188 0.569530
v -0.830665 -0.345188 0.556773
v -0.839161 -0.345188 0.543884
v -0.847457 -0.345188 0.530864
v -0.855551 -0.345188 0.517719
v -0.863441 -0.345188 0.504450
v -0.871125 -0.345188 0.491061
v -0.878602 -0.345188 0.477554
v -0.885870 -0.345188 0.463934
v -0.892926 -0.345188 0.450204
v -0.899769 -0.345188 0.436366
v -0.906398 -0.345188 0.422424
v -0.912811 -0.345188 0.408381
v -0.919007 -0.345188 0.394241
v -0.924983 -0.345188 0.380008
v -0.930739 -0.345188 0.365683
v -0.936274 -0.345188 0.351272
v -0.941585 -0.345188 0.336776
v -0.946671 -0.345188 0.322201
v -0.951532 -0.345188 0.307548
v -0.956167 -0.345188 0.292823
v -0.960573 -0.345188 0.278027
v -0.964751 -0.345188 0.263166
v -0.968698 -0.345188 0.248241
v -0.972415 -0.345188 0.233258
v -0.975900 -0.345188 0.218219
v -0.979152 -0.345188 0.203127
v -0.982171 -0.345188 0.187988
v -0.984956 -0.345188 0.172803
v -0.987507 -0.345188 0.157578
v -0.989821 -0.345188 0.142315
v -0.991900 -0.345188 0.127018
v -0.993743 -0.345188 0.111691
v -0.995349 -0.345188 0.096337
v -0.996717 -0.345188 0.080960
v -0.997848 -0.345188 0.065564
v -0.998742 -0.345188 0.050152
v -0.999397 -0.345188 0.034728
v -0.999814 -0.345188 0.019296
v -0.999993 -0.345188 0.003859
v -0.999933 -0.345188 -0.011578
v -0.999635 -0.345188 -0.027013
v -0.999099 -0.345188 -0.042441
v -0.998325 -0.345188 -0.057859
v -0.997313 -0.345188 -0.073264
v -0.996063 -0.345188 -0.088651
v -0.994576 -0.345188 -0.104017
v -0.992851 -0.345188 -0.119358
v -0.990890 -0.345188 -0.134670
v -0.988693 -0.345188 -0.149951
v -0.986261 -0.345188 -0.165196
v -0.983593 -0.345188 -0.180401
v -0.980691 -0.345188 -0.195563
v -0.977555 -0.345188 -0.210679
v -0.974186 -0.345188 -0.225745
v -0.970586 -0.345188 -0.240757
v -0.966753 -0.345188 -0.255711
v -0.962691 -0.345188 -0.270605
v -0.958399 -0.345188 -0.285434
v -0.953878 -0.345188 -0.300195
v -0.949130 -0.345188 -0.314884
v -0.944156 -0.345188 -0.329498
v -0.938957 -0.345188 -0.344034
v -0.933534 -0.345188 -0.358488
v -0.927889 -0.345188 -0.372856
v -0.922023 -0.345188 -0.387136
v -0.915936 -0.345188 -0.401323
v -0.909632 -0.345188 -0.415415
v -0.903111 -0.345188 -0.429408
v -0.896374 -0.345188 -0.443298
v -0.889424 -0.345188 -0.457083
v -0.882262 -0.345188 -0.470758
v -0.874890 -0.345188 -0.484322
v -0.867309 -0.345188 -0.497770
v -0.859522 -0.345188 -0.511100
v -0.851529 -0.345188 -0.524307
v -0.843334 -0.345188 -0.537390
v -0.834938 -0.345188 -0.550345
v -0.826342 -0.345188 -0.563168
v -0.817550 -0.345188 -0.575858
v -0.808563 -0.345188 -0.588410
v -0.799383 -0.345188 -0.600821
v -0.790013 -0.345188 -0.613090
v -0.780455 -0.345188 -0.625213
v -0.770710 -0.345188 -0.637186
v -0.760782 -0.345188 -0.649008
v -0.750672 -0.345188 -0.660675
v -0.740384 -0.345188 -0.672184
v -0.729919 -0.345188 -0.683534
v -0.719280 -0.345188 -0.694720
v -0.708470 -0.345188 -0.705741
v -0.697491 -0.345188 -0.716594
v -0.686346 -0.345188 -0.727275
v -0.675037 -0.345188 -0.737784
v -0.663567 -0.345188 -0.748117
v -0.651939 -0.345188 -0.758271
v -0.640156 -0.345188 -0.768245
v -0.628220 -0.345188 -0.778036
v -0.616134 -0.345188 -0.787641
v -0.603902 -0.345188 -0.797059
v -0.591526 -0.345188 -0.806286
v -0.579008 -0.345188 -0.815322
v -0.566353 -0.345188 -0.824163
v -0.553563 -0.345188 -0.832807
v -0.540641 -0.345188 -0.841254
v -0.527590 -0.345188 -0.849499
v -0.514413 -0.345188 -0.857543
v -0.501114 -0.345188 -0.865381
v -0.487695 -0.345188 -0.873014
v -0.474160 -0.345188 -0.880439
v -0.460512 -0.345188 -0.887654
v -0.446754 -0.345188 -0.894657
v -0.432890 -0.345188 -0.901447
v -0.418923 -0.345188 -0.908022
v -0.404855 -0.345188 -0.914381
v -0.390692 -0.345188 -0.920522
v -0.376435 -0.345188 -0.926443
v -0.362088 -0.345188 -0.932144
v -0.347656 -0.345188 -0.937622
v -0.333140 -0.345188 -0.942877
v -0.318545 -0.345188 -0.947908
v -0.303874 -0.345188 -0.952712
v -0.289130 -0.345188 -0.957290
v -0.274318 -0.345188 -0.961639
v -0.259440 -0.345188 -0.965759
v -0.244501 -0.345188 -0.969649
v -0.229503 -0.345188 -0.973308
v -0.214451 -0.345188 -0.976735
v -0.199347 -0.345188 -0.979929
v -0.184196 -0.345188 -0.982890
v -0.169001 -0.345188 -0.985616
v -0.153766 -0.345188 -0.988107
v -0.138494 -0.345188 -0.990363
v -0.123189 -0.345188 -0.992383
v -0.107854 -0.345188 -0.994167
v -0.092494 -0.345188 -0.995713
v -0.077112 -0.345188 -0.997022
v -0.061712 -0.345188 -0.998094
v -0.046297 -0.345188 -0.998928
v -0.030871 -0.345188 -0.999523
v -0.015437 -0.345188 -0.999881
v 0.000000 1.654812 0.000000
vn 0.0069 0.4472 -0.8944
vn 0.0207 0.4472 -0.8942
vn 0.0345 0.4472 -0.8938
vn 0.0483 0.4472 -0.8931
vn 0.0621 0.4472 -0.8923
vn 0.0759 0.4472 -0.8912
vn 0.0896 0.4472 -0.8899
vn 0.1033 0.4472 -0.8884
vn 0.1170 0.4472 -0.8867
vn 0.1307 0.4472 -0.8848
vn 0.1444 0.4472 -0.8827
vn 0.1580 0.4472 -0.8804
vn 0.1715 0.4472 -0.8778
vn 0.1851 0.4472 -0.8751
vn 0.1985 0.4472 -0.8721
vn 0.2120 0.4472 -0.8689
vn 0.2254 0.4472 -0.8656
vn 0.2387 0.4472 -0.8620
vn 0.2520 0.4472 -0.8582
vn 0.2652 0.4472 -0.8542
vn 0.2784 0.4472 -0.8500
vn 0.2914 0.4472 -0.8456
vn 0.3045 0.4472 -0.8410
vn 0.3174 0.4472 -0.8362
vn 0.3303 0.4472 -0.8312
vn 0.3431 0.4472 -0.8260
vn 0.3558 0.4472 -0.8206
vn 0.3684 0.4472 -0.8150
vn 0.3810 0.4472 -0.8092
vn 0.3934 0.4472 -0.8033
vn 0.4058 0.4472 -0.7971
vn 0.4180 0.4472 -0.7907
vn 0.4302 0.4472 -0.7842
vn 0.4422 0.4472 -0.7775
vn 0.4542 0.4472 -0.7705
vn 0.4660 0.4472 -0.7634
vn 0.4777 0.4472 -0.7562
vn 0.4894 0.4472 -0.7487
vn 0.5009 0.4472 -0.7410
vn 0.5122 0.4472 -0.7332
vn 0.5235 0.4472 -0.7252
vn 0.5346 0.4472 -0.7171
vn 0.5456 0.4472 -0.7087
vn 0.5565 0.4472 -0.7002
vn 0.5673 0.4472 -0.6915
vn 0.5779 0.4472 -0.6827
vn 0.5883 0.4472 -0.6737
vn 0.5987 0.4472 -0.6645
vn 0.6089 0.4472 -0.6552
vn 0.6189 0.4472 -0.6457
vn 0.6288 0.4472 -0.6361
vn 0.6385 0.4472 -0.6263
vn 0.6481 0.4472 -0.6164
vn 0.6576 0.4472 -0.6063
vn 0.6668 0.4472 -0.5961
vn 0.6760 0.4472 -0.5857
vn 0.6849 0.4472 -0.5752
vn 0.6937 0.4472 -0.5646
vn 0.7024 0.4472 -0.5538
vn 0.7108 0.4472 -0.5429
vn 0.7191 0.4472 -0.5319
vn 0.7272 0.4472 -0.5207
vn 0.7352 0.4472 -0.5094
vn 0.7430 0.4472 -0.4980
vn 0.7506 0.4472 -0.4865
vn 0.7580 0.4472 -0.4748
vn 0.7652 0.4472 -0.4631
vn 0.7723 0.4472 -0.4512
vn 0.7792 0.4472 -0.4392
vn 0.7859 0.4472 -0.4271
vn 0.7924 0.4472 -0.4150
vn 0.7987 0.4472 -0.4027
vn 0.8048 0.4472 -0.3903
vn 0.8107 0.4472 -0.3778
vn 0.8164 0.4472 -0.3653
vn 0.8220 0.4472 -0.3526
vn 0.8273 0.4472 -0.3399
vn 0.8325 0.4472 -0.3271
vn 0.8374 0.4472 -0.3142
vn 0.8422 0.4472 -0.3012
vn 0.8467 0.4472 -0.2882
vn 0.8511 0.4472 -0.2751
vn 0.8552 0.4472 -0.2619
vn 0.8592 0.4472 -0.2487
vn 0.8629 0.4472 -0.2354
vn 0.8664 0.4472 -0.2220
vn 0.8698 0.4472 -0.2086
vn 0.8729 0.4472 -0.1952
vn 0.8758 0.4472 -0.1817
vn 0.8785 0.4472 -0.1681
vn 0.8810 0.4472 -0.1546
vn 0.8833 0.4472 -0.1409
vn 0.8853 0.4472 -0.1273
vn 0.8872 0.4472 -0.1136
vn 0.8888 0.4472 -0.0999
vn 0.8903 0.4472 -0.0862
vn 0.8915 0.4472 -0.0724
vn 0.8925 0.4472 -0.0586
vn 0.8933 0.4472 -0.0449
vn 0.8939 0.4472 -0.0311
vn 0.8943 0.4472 -0.0173
vn 0.8944 0.4472 -0.0035
vn 0.8944 0.4472 0.0104
vn 0.8941 0.4472 0.0242
vn 0.8936 0.4472 0.0380
vn 0.8929 0.4472 0.0518
vn 0.8920 0.4472 0.0655
vn 0.8909 0.4472 0.0793
vn 0.8896 0.4472 0.0930
vn 0.8880 0.4472 0.1068
vn 0.8863 0.4472 0.1205
vn 0.8843 0.4472 0.1341
vn 0.8821 0.4472 0.1478
vn 0.8798 0.4472 0.1614
vn 0.8772 0.4472 0.1749
vn 0.8744 0.4472 0.1884
vn 0.8713 0.4472 0.2019
vn 0.8681 0.4472 0.2153
vn 0.8647 0.4472 0.2287
vn 0.8611 0.4472 0.2420
vn 0.8572 0.4472 0.2553
vn 0.8532 0.4472 0.2685
vn 0.8489 0.4472 0.2816
vn 0.8445 0.4472 0.2947
vn 0.8398 0.4472 0.3077
vn 0.8350 0.4472 0.3206
vn 0.8299 0.4472 0.3335
vn 0.8247 0.4472 0.3463
vn 0.8192 0.4472 0.3590
vn 0.8136 0.4472 0.3716
vn 0.8078 0.4472 0.3841
vn 0.8017 0.4472 0.3965
vn 0.7955 0.4472 0.4088
vn 0.7891 0.4472 0.4211
vn 0.7825 0.4472 0.4332
vn 0.7757 0.4472 0.4452
vn 0.7688 0.4472 0.4571
vn 0.7616 0.4472 0.4690
vn 0.7543 0.4472 0.4807
vn 0.7468 0.4472 0.4922
vn 0.7391 0.4472 0.5037
vn 0.7312 0.4472 0.5151
vn 0.7232 0.4472 0.5263
vn 0.7150 0.4472 0.5374
vn 0.7066 0.4472 0.5484
vn 0.6981 0.4472 0.5592
vn 0.6893 0.4472 0.5699
vn 0.6805 0.4472 0.5805
vn 0.6714 0.4472 0.5909
vn 0.6622 0.4472 0.6012
vn 0.6529 0.4472 0.6114
vn 0.6433 0.4472 0.6214
vn 0.6337 0.4472 0.6312
vn 0.6239 0.4472 0.6409
vn 0.6139 0.4472 0.6505
vn 0.6038 0.4472 0.6599
vn 0.5935 0.4472 0.6691
vn 0.5831 0.4472 0.6782
vn 0.5726 0.4472 0.6871
vn 0.5619 0.4472 0.6959
vn 0.5511 0.4472 0.7045
vn 0.5401 0.4472 0.7129
vn 0.5291 0.4472 0.7212
vn 0.5179 0.4472 0.7293
vn 0.5066 0.4472 0.7372
vn 0.4951 0.4472 0.7449
vn 0.4836 0.4472 0.7524
vn 0.4719 0.4472 0.7598
vn 0.4601 0.4472 0.7670
vn 0.4482 0.4472 0.7740
vn 0.4362 0.4472 0.7809
vn 0.4241 0.4472 0.7875
vn 0.4119 0.4472 0.7939
vn 0.3996 0.4472 0.8002
vn 0.3872 0.4472 0.8063
vn 0.3747 0.4472 0.8122
vn 0.3621 0.4472 0.8179
vn 0.3494 0.4472 0.8233
vn 0.3367 0.4472 0.8286
vn 0.3239 0.4472 0.8337
vn 0.3110 0.4472 0.8386
vn 0.2980 0.4472 0.8433
vn 0.2849 0.4472 0.8478
vn 0.2718 0.4472 0.8521
vn 0.2586 0.4472 0.8562
vn 0.2454 0.4472 0.8601
vn 0.2321 0.4472 0.8638
vn 0.2187 0.4472 0.8673
vn 0.2053 0.4472 0.8706
vn 0.1918 0.4472 0.8736
vn 0.1783 0.4472 0.8765
vn 0.1648 0.4472 0.8791
vn 0.1512 0.4472 0.8816
vn 0.1375 0.4472 0.8838
vn 0.1239 0.4472 0.8858
vn 0.1102 0.4472 0.8876
vn 0.0965 0.4472 0.8892
vn 0.0827 0.4472 0.8906
vn 0.0690 0.4472 0.8918
vn 0.0552 0.4472 0.8927
vn 0.0414 0.4472 0.8935
vn 0.0276 0.4472 0.8940
vn 0.0138 0.4472 0.8943
vn -0.0000 0.4472 0.8944
vn -0.0138 0.4472 0.8943
vn -0.0276 0.4472 0.8940
vn -0.0414 0.4472 0.8935
vn -0.0552 0.4472 0.8927
vn -0.0690 0.4472 0.8918
vn -0.0827 0.4472 0.8906
vn -0.0965 0.4472 0.8892
vn -0.1102 0.4472 0.8876
vn -0.1239 0.4472 0.8858
vn -0.1375 0.4472 0.8838
vn -0.1512 0.4472 0.8816
vn -0.1648 0.4472 0.8791
vn -0.1783 0.4472 0.8765
vn -0.1918 0.4472 0.8736
vn -0.2053 0.4472 0.8706
vn -0.2187 0.4472 0.8673
vn -0.2321 0.4472 0.8638
vn -0.2454 0.4472 0.8601
vn -0.2586 0.4472 0.8562
vn -0.2718 0.4472 0.8521
vn -0.2849 0.4472 0.8478
vn -0.2980 0.4472 0.8433
vn -0.3110 0.4472 0.8386
vn -0.3239 0.4472 0.8337
vn -0.3367 0.4472 0.8286
vn -0.3494 0.4472 0.8233
vn -0.3621 0.4472 0.8179
vn -0.3747 0.4472 0.8122
vn -0.3872 0.4472 0.8063
vn -0.3996 0.4472 0.8002
vn -0.4119 0.4472 0.7939
vn -0.4241 0.4472 0.7875
vn -0.4362 0.4472 0.7809
vn -0.4482 0.4472 0.7740
vn -0.4601 0.4472 0.7670
vn -0.4719 0.4472 0.7598
vn -0.4836 0.4472 0.7524
vn -0.4951 0.4472 0.7449
vn -0.5066 0.4472 0.7372
vn -0.5179 0.4472 0.7293
vn -0.5291 0.4472 0.7212
vn -0.5401 0.4472 0.7129
vn -0.5511 0.4472 0.7045
vn -0.5619 0.4472 0.6959
vn -0.5726 0.4472 0.6871
vn -0.5831 0.4472 0.6782
vn -0.5935 0.4472 0.6691
vn -0.6038 0.4472 0.6599
vn -0.6139 0.4472 0.6505
vn -0.6239 0.4472 0.6409
vn -0.6337 0.4472 0.6312
vn -0.6433 0.4472 0.6214
vn -0.6529 0.4472 0.6114
vn -0.6622 0.4472 0.6012
vn -0.6714 0.4472 0.5909
vn -0.6805 0.4472 0.5805
vn -0.6893 0.4472 0.5699
vn -0.6981 0.4472 0.5592
vn -0.7066 0.4472 0.5484
vn -0.7150 0.4472 0.5374
vn -0.7232 0.4472 0.5263
vn -0.7312 0.4472 0.5151
vn -0.7391 0.4472 0.5037
vn -0.7468 0.4472 0.4922
vn -0.7543 0.4472 0.4807
vn -0.7616 0.4472 0.4690
vn -0.7688 0.4472 0.4571
vn -0.7757 0.4472 0.4452
vn -0.7825 0.4472 0.4332
vn -0.7891 0.4472 0.4211
vn -0.7955 0.4472 0.4088
vn -0.8017 0.4472 0.3965
vn -0.8078 0.4472 0.3841
vn -0.8136 0.4472 0.3716
vn -0.8192 0.4472 0.3590
vn -0.8247 0.4472 0.3463
vn -0.8299 0.4472 0.3335
vn -0.8350 0.4472 0.3206
vn -0.8398 0.4472 0.3077
vn -0.8445 0.4472 0.2947
vn -0.8489 0.4472 0.2816
vn -0.8532 0.4472 0.2685
vn -0.8572 0.4472 0.2553
vn -0.8611 0.4472 0.2420
vn -0.8647 0.4472 0.2287
vn -0.8681 0.4472 0.2153
vn -0.8713 0.4472 0.2019
vn -0.8744 0.4472 0.1884
vn -0.8772 0.4472 0.1749
vn -0.8798 0.4472 0.1614
vn -0.8821 0.4472 0.1478
vn -0.8843 0.4472 0.1341
vn -0.8863 0.4472 0.1205
vn -0.8880 0.4472 0.1068
vn -0.8896 0.4472 0.0930
vn -0.8909 0.4472 0.0793
vn -0.8920 0.4472 0.0655
vn -0.8929 0.4472 0.0518
vn -0.8936 0.4472 0.0380
vn -0.8941 0.4472 0.0242
vn -0.8944 0.4472 0.0104
vn -0.8944 0.4472 -0.0035
vn -0.8943 0.4472 -0.0173
vn -0.8939 0.4472 -0.0311
vn -0.8933 0.4472 -0.0449
vn -0.8925 0.4472 -0.0586
vn -0.8915 0.4472 -0.0724
vn -0.8903 0.4472 -0.0862
vn -0.8888 0.4472 -0.0999
vn -0.8872 0.4472 -0.1136
vn -0.8853 0.4472 -0.1273
vn -0.8833 0.4472 -0.1409
vn -0.8810 0.4472 -0.1546
vn -0.8785 0.4472 -0.1681
vn -0.8758 0.4472 -0.1817
vn -0.8729 0.4472 -0.1952
vn -0.8698 0.4472 -0.2086
vn -0.8664 0.4472 -0.2220
vn -0.8629 0.4472 -0.2354
vn -0.8592 0.4472 -0.2487
vn -0.8552 0.4472 -0.2619
vn -0.8511 0.4472 -0.2751
vn -0.8467 0.4472 -0.2882
vn -0.8422 0.4472 -0.3012
vn -0.8374 0.4472 -0.3142
vn -0.8325 0.4472 -0.3271
vn -0.8273 0.4472 -0.3399
vn -0.8220 0.4472 -0.3526
vn -0.8164 0.4472 -0.3653
vn -0.8107 0.4472 -0.3778
vn -0.8048 0.4472 -0.3903
vn -0.7987 0.4472 -0.4027
vn -0.7924 0.4472 -0.4150
vn -0.7859 0.4472 -0.4271
vn -0.7792 0.4472 -0.4392
vn -0.7723 0.4472 -0.4512
vn -0.7652 0.4472 -0.4631
vn -0.7580 0.4472 -0.4748
vn -0.7506 0.4472 -0.4865
vn -0.7430 0.4472 -0.4980
vn -0.7352 0.4472 -0.5094
vn -0.7272 0.4472 -0.5207
vn -0.7191 0.4472 -0.5319
vn -0.7108 0.4472 -0.5429
vn -0.7024 0.4472 -0.5538
vn -0.6937 0.4472 -0.5646
vn -0.6849 0.4472 -0.5752
vn -0.6760 0.4472 -0.5857
vn -0.6668 0.4472 -0.5961
vn -0.6576 0.4472 -0.6063
vn -0.6481 0.4472 -0.6164
vn -0.6385 0.4472 -0.6263
vn -0.6288 0.4472 -0.6361
vn -0.6189 0.4472 -0.6457
vn -0.6089 0.4472 -0.6552
vn -0.5987 0.4472 -0.6645
vn -0.5883 0.4472 -0.6737
vn -0.5779 0.4472 -0.6827
vn -0.5673 0.4472 -0.6915
vn -0.5565 0.4472 -0.7002
vn -0.5456 0.4472 -0.7087
vn -0.5346 0.4472 -0.7171
vn -0.5235 0.4472 -0.7252
vn -0.5122 0.4472 -0.7332
vn -0.5009 0.4472 -0.7410
vn -0.4894 0.4472 -0.7487
vn -0.4777 0.4472 -0.7562
vn -0.4660 0.4472 -0.7634
vn -0.4542 0.4472 -0.7705
vn -0.4422 0.4472 -0.7775
vn -0.4302 0.4472 -0.7842
vn -0.4180 0.4472 -0.7907
vn -0.4058 0.4472 -0.7971
vn -0.3934 0.4472 -0.8033
vn -0.3810 0.4472 -0.8092
vn -0.3684 0.4472 -0.8150
vn -0.3558 0.4472 -0.8206
vn -0.3431 0.4472 -0.8260
vn -0.3303 0.4472 -0.8312
vn -0.3174 0.4472 -0.8362
vn -0.3045 0.4472 -0.8410
vn -0.2914 0.4472 -0.8456
vn -0.2784 0.4472 -0.8500
vn -0.2652 0.4472 -0.8542
vn -0.2520 0.4472 -0.8582
vn -0.2387 0.4472 -0.8620
vn -0.2254 0.4472 -0.8656
vn -0.2120 0.4472 -0.8689
vn -0.1985 0.4472 -0.8721
vn -0.1851 0.4472 -0.8751
vn -0.1715 0.4472 -0.8778
vn -0.1580 0.4472 -0.8804
vn -0.1444 0.4472 -0.8827
vn -0.1307 0.4472 -0.8848
vn -0.1170 0.4472 -0.8867
vn -0.1033 0.4472 -0.8884
vn -0.0896 0.4472 -0.8899
vn -0.0759 0.4472 -0.8912
vn -0.0621 0.4472 -0.8923
vn -0.0483 0.4472 -0.8931
vn -0.0345 0.4472 -0.8938
vn -0.0000 -1.0000 -0.0000
vn -0.0207 0.4472 -0.8942
vn -0.0069 0.4472 -0.8944
vt 0.250000 0.490000
vt 0.250000 0.250000
vt 0.253705 0.489971
vt 0.257409 0.489886
vt 0.261111 0.489743
vt 0.264811 0.489543
vt 0.268507 0.489285
vt 0.272199 0.488971
vt 0.275885 0.488600
vt 0.279565 0.488172
vt 0.283238 0.487687
vt 0.286904 0.487146
vt 0.290560 0.486548
vt 0.294207 0.485893
vt 0.297843 0.485183
vt 0.301468 0.484416
vt 0.305081 0.483594
vt 0.308680 0.482716
vt 0.312266 0.481782
vt 0.315836 0.480793
vt 0.319391 0.479750
vt 0.322930 0.478651
vt 0.326451 0.477498
vt 0.329954 0.476291
vt 0.333437 0.475029
vt 0.336901 0.473715
vt 0.340344 0.472346
vt 0.343766 0.470925
vt 0.347165 0.469451
vt 0.350541 0.467925
vt 0.353894 0.466347
vt 0.357221 0.464718
vt 0.360523 0.463037
vt 0.363798 0.461305
vt 0.367047 0.459523
vt 0.370267 0.457692
vt 0.373459 0.455810
vt 0.376622 0.453880
vt 0.379754 0.451901
vt 0.382855 0.449874
vt 0.385925 0.447799
vt 0.388962 0.445677
vt 0.391966 0.443509
vt 0.394937 0.441294
vt 0.397872 0.439034
vt 0.400773 0.436729
vt 0.403637 0.434379
vt 0.406465 0.431985
vt 0.409256 0.429548
vt 0.412009 0.427068
vt 0.414723 0.424546
vt 0.417398 0.421982
vt 0.420033 0.419378
vt 0.422627 0.416733
vt 0.425181 0.414048
vt 0.427692 0.411324
vt 0.430161 0.408562
vt 0.432588 0.405762
vt 0.434970 0.402925
vt 0.437309 0.400051
vt 0.439603 0.397142
vt 0.441852 0.394197
vt 0.444055 0.391218
vt 0.446212 0.388206
vt 0.448322 0.385160
vt 0.450385 0.382083
vt 0.452400 0.378974
vt 0.454367 0.375834
vt 0.456285 0.372664
vt 0.458154 0.369465
vt 0.459974 0.366237
vt 0.461743 0.362982
vt 0.463462 0.359700
vt 0.465130 0.356392
vt 0.466747 0.353058
vt 0.468312 0.349700
vt 0.469825 0.346318
vt 0.471285 0.342913
vt 0.472693 0.339486
vt 0.474048 0.336037
vt 0.475350 0.332568
vt 0.476597 0.329080
vt 0.477791 0.325572
vt 0.478931 0.322047
vt 0.480016 0.318504
vt 0.481046 0.314945
vt 0.482021 0.311371
vt 0.482941 0.307782
vt 0.483805 0.304179
vt 0.484613 0.300563
vt 0.485366 0.296935
vt 0.486062 0.293296
vt 0.486703 0.289647
vt 0.487286 0.285988
vt 0.487814 0.282321
vt 0.488284 0.278646
vt 0.488698 0.274964
vt 0.489055 0.271276
vt 0.489355 0.267583
vt 0.489598 0.263886
vt 0.489784 0.260186
vt 0.489912 0.256483
vt 0.489984 0.252779
vt 0.489998 0.249074
vt 0.489955 0.245369
vt 0.489855 0.241665
vt 0.489698 0.237964
vt 0.489484 0.234265
vt 0.489212 0.230570
vt 0.488884 0.226879
vt 0.488498 0.223194
vt 0.488056 0.219516
vt 0.487557 0.215844
vt 0.487002 0.212181
vt 0.486390 0.208527
vt 0.485721 0.204883
vt 0.484997 0.201249
vt 0.484216 0.197628
vt 0.483380 0.194018
vt 0.482488 0.190422
vt 0.481540 0.186840
vt 0.480538 0.183273
vt 0.479480 0.179723
vt 0.478368 0.176188
vt 0.477201 0.172672
vt 0.475980 0.169174
vt 0.474706 0.165695
vt 0.473377 0.162236
vt 0.471996 0.158798
vt 0.470562 0.155382
vt 0.469075 0.151988
vt 0.467536 0.148618
vt 0.465945 0.145272
vt 0.464302 0.141951
vt 0.462609 0.138656
vt 0.460865 0.135387
vt 0.459070 0.132145
vt 0.457226 0.128932
vt 0.455332 0.125747
vt 0.453390 0.122593
vt 0.451399 0.119468
vt 0.449360 0.116374
vt 0.447273 0.113313
vt 0.445139 0.110284
vt 0.442959 0.107288
vt 0.440733 0.104326
vt 0.438462 0.101399
vt 0.436145 0.098508
vt 0.433784 0.095652
vt 0.431380 0.092833
vt 0.428932 0.090052
vt 0.426442 0.087309
vt 0.423909 0.084605
vt 0.421335 0.081940
vt 0.418720 0.079315
vt 0.416065 0.076731
vt 0.413371 0.074188
vt 0.410637 0.071687
vt 0.407865 0.069228
vt 0.405056 0.066813
vt 0.402210 0.064441
vt 0.399327 0.062113
vt 0.396409 0.059830
vt 0.393456 0.057593
vt 0.390468 0.055401
vt 0.387448 0.053256
vt 0.384394 0.051158
vt 0.381308 0.049107
vt 0.378191 0.047104
vt 0.375044 0.045149
vt 0.371867 0.043243
vt 0.368661 0.041386
vt 0.365426 0.039579
vt 0.362164 0.037823
vt 0.358875 0.036116
vt 0.355560 0.034461
vt 0.352221 0.032857
vt 0.348856 0.031305
vt 0.345468 0.029805
vt 0.342058 0.028358
vt 0.338625 0.026963
vt 0.335172 0.025621
vt 0.331698 0.024333
vt 0.328204 0.023099
vt 0.324692 0.021919
vt 0.321163 0.020793
vt 0.317616 0.019722
vt 0.314053 0.018705
vt 0.310475 0.017744
vt 0.306882 0.016838
vt 0.303276 0.015988
vt 0.299657 0.015193
vt 0.296026 0.014455
vt 0.292385 0.013772
vt 0.288733 0.013146
vt 0.285072 0.012576
vt 0.281403 0.012063
vt 0.277726 0.011607
vt 0.274043 0.011207
vt 0.270353 0.010865
vt 0.266659 0.010579
vt 0.262961 0.010350
vt 0.259260 0.010179
vt 0.255557 0.010064
vt 0.251853 0.010007
vt 0.248147 0.010007
vt 0.244443 0.010064
vt 0.240740 0.010179
vt 0.237039 0.010350
vt 0.233341 0.010579
vt 0.229647 0.010865
vt 0.225957 0.011207
vt 0.222274 0.011607
vt 0.218597 0.012063
vt 0.214928 0.012576
vt 0.211267 0.013146
vt 0.207615 0.013772
vt 0.203974 0.014455
vt 0.200343 0.015193
vt 0.196724 0.015988
vt 0.193118 0.016838
vt 0.189525 0.017744
vt 0.185947 0.018705
vt 0.182384 0.019722
vt 0.178837 0.020793
vt 0.175308 0.021919
vt 0.171796 0.023099
vt 0.168302 0.024333
vt 0.164828 0.025621
vt 0.161375 0.026963
vt 0.157942 0.028358
vt 0.154532 0.029805
vt 0.151144 0.031305
vt 0.147779 0.032857
vt 0.144440 0.034461
vt 0.141125 0.036116
vt 0.137836 0.037823
vt 0.134574 0.039579
vt 0.131339 0.041386
vt 0.128133 0.043243
vt 0.124956 0.045149
vt 0.121809 0.047104
vt 0.118692 0.049107
vt 0.115606 0.051158
vt 0.112552 0.053256
vt 0.109532 0.055401
vt 0.106544 0.057593
vt 0.103591 0.059830
vt 0.100673 0.062113
vt 0.097790 0.064441
vt 0.094944 0.066813
vt 0.092135 0.069228
vt 0.089363 0.071687
vt 0.086629 0.074188
vt 0.083935 0.076731
vt 0.081280 0.079315
vt 0.078665 0.081940
vt 0.076091 0.084605
vt 0.073558 0.087309
vt 0.071068 0.090052
vt 0.068620 0.092833
vt 0.066216 0.095652
vt 0.063855 0.098508
vt 0.061538 0.101399
vt 0.059267 0.104326
vt 0.057041 0.107288
vt 0.054861 0.110284
vt 0.052727 0.113313
vt 0.050640 0.116374
vt 0.048601 0.119468
vt 0.046610 0.122593
vt 0.044668 0.125747
vt 0.042774 0.128932
vt 0.040930 0.132145
vt 0.039135 0.135387
vt 0.037391 0.138656
vt 0.035698 0.141951
vt 0.034055 0.145272
vt 0.032464 0.148618
vt 0.030925 0.151988
vt 0.029438 0.155382
vt 0.028004 0.158798
vt 0.026623 0.162236
vt 0.025294 0.165695
vt 0.024020 0.169174
vt 0.022799 0.172672
vt 0.021632 0.176188
vt 0.020520 0.179723
vt 0.019462 0.183273
vt 0.018460 0.186840
vt 0.017512 0.190422
vt 0.016620 0.194018
vt 0.015784 0.197628
vt 0.015003 0.201249
vt 0.014279 0.204883
vt 0.013610 0.208527
vt 0.012998 0.212181
vt 0.012443 0.215844
vt 0.011944 0.219516
vt 0.011502 0.223194
vt 0.011116 0.226879
vt 0.010788 0.230570
vt 0.010516 0.234265
vt 0.010302 0.237964
vt 0.010145 0.241665
vt 0.010045 0.245369
vt 0.010002 0.249074
vt 0.010016 0.252779
vt 0.010088 0.256483
vt 0.010216 0.260186
vt 0.010402 0.263886
vt 0.010645 0.267583
vt 0.010945 0.271276
vt 0.011302 0.274964
vt 0.011716 0.278646
vt 0.012186 0.282321
vt 0.012714 0.285988
vt 0.013297 0.289647
vt 0.013938 0.293296
vt 0.014634 0.296935
vt 0.015387 0.300563
vt 0.016195 0.304179
vt 0.017059 0.307782
vt 0.017979 0.311371
vt 0.018954 0.314945
vt 0.019984 0.318504
vt 0.021069 0.322047
vt 0.022209 0.325572
vt 0.023403 0.329080
vt 0.024650 0.332568
vt 0.025952 0.336037
vt 0.027307 0.339486
vt 0.028715 0.342913
vt 0.030175 0.346318
vt 0.031688 0.349700
vt 0.033253 0.353058
vt 0.034870 0.356392
vt 0.036538 0.359700
vt 0.038257 0.362982
vt 0.040026 0.366237
vt 0.041846 0.369465
vt 0.043715 0.372664
vt 0.045633 0.375834
vt 0.047600 0.378974
vt 0.049615 0.382083
vt 0.051678 0.385160
vt 0.053788 0.388206
vt 0.055945 0.391218
vt 0.058148 0.394197
vt 0.060397 0.397142
vt 0.062691 0.400051
vt 0.065030 0.402925
vt 0.067412 0.405762
vt 0.069839 0.408562
vt 0.072308 0.411324
vt 0.074819 0.414048
vt 0.077373 0.416733
vt 0.079967 0.419378
vt 0.082602 0.421982
vt 0.085277 0.424546
vt 0.087991 0.427068
vt 0.090744 0.429548
vt 0.093535 0.431985
vt 0.096363 0.434379
vt 0.099227 0.436729
vt 0.102128 0.439034
vt 0.105064 0.441294
vt 0.108034 0.443509
vt 0.111038 0.445677
vt 0.114075 0.447799
vt 0.117145 0.449874
vt 0.120246 0.451901
vt 0.123378 0.453880
vt 0.126541 0.455810
vt 0.129733 0.457692
vt 0.132953 0.459523
vt 0.136202 0.461305
vt 0.139477 0.463037
vt 0.142779 0.464718
vt 0.146106 0.466347
vt 0.149459 0.467925
vt 0.152835 0.469451
vt 0.156234 0.470925
vt 0.159656 0.472346
vt 0.163099 0.473715
vt 0.166563 0.475029
vt 0.170046 0.476291
vt 0.173549 0.477498
vt 0.177070 0.478651
vt 0.180609 0.479750
vt 0.184164 0.480793
vt 0.187734 0.481782
vt 0.191320 0.482716
vt 0.194919 0.483594
vt 0.198532 0.484416
vt 0.202157 0.485183
vt 0.205793 0.485893
vt 0.209440 0.486548
vt 0.213096 0.487146
vt 0.216762 0.487687
vt 0.220435 0.488172
vt 0.224115 0.488600
vt 0.227801 0.488971
vt 0.231493 0.489285
vt 0.235189 0.489543
vt 0.238889 0.489743
vt 0.242591 0.489886
vt 0.750000 0.490000
vt 0.753705 0.489971
vt 0.757409 0.489886
vt 0.761111 0.489743
vt 0.764811 0.489543
vt 0.768507 0.489285
vt 0.772199 0.488971
vt 0.775885 0.488600
vt 0.779565 0.488172
vt 0.783238 0.487687
vt 0.786904 0.487146
vt 0.790560 0.486548
vt 0.794207 0.485893
vt 0.797843 0.485183
vt 0.801468 0.484416
vt 0.805081 0.483594
vt 0.808680 0.482716
vt 0.812266 0.481782
vt 0.815836 0.480793
vt 0.819391 0.479750
vt 0.822930 0.478651
vt 0.826451 0.477498
vt 0.829954 0.476291
vt 0.833437 0.475029
vt 0.836901 0.473715
vt 0.840344 0.472346
vt 0.843766 0.470925
vt 0.847165 0.469451
vt 0.850541 0.467925
vt 0.853894 0.466347
vt 0.857221 0.464718
vt 0.860523 0.463037
vt 0.863798 0.461305
vt 0.867047 0.459523
vt 0.870267 0.457692
vt 0.873459 0.455810
vt 0.876622 0.453880
vt 0.879754 0.451901
vt 0.882855 0.449874
vt 0.885925 0.447799
vt 0.888962 0.445677
vt 0.891966 0.443509
vt 0.894937 0.441294
vt 0.897872 0.439034
vt 0.900773 0.436729
vt 0.903637 0.434379
vt 0.906465 0.431985
vt 0.909256 0.429548
vt 0.912009 0.427068
vt 0.914723 0.424546
vt 0.917398 0.421982
vt 0.920033 0.419378
vt 0.922627 0.416733
vt 0.925181 0.414048
vt 0.927692 0.411324
vt 0.930161 0.408562
vt 0.932588 0.405762
vt 0.934970 0.402925
vt 0.937309 0.400051
vt 0.939603 0.397142
vt 0.941852 0.394197
vt 0.944055 0.391218
vt 0.946212 0.388206
vt 0.948322 0.385160
vt 0.950385 0.382083
vt 0.952400 0.378974
vt 0.954367 0.375834
vt 0.956285 0.372664
vt 0.958154 0.369465
vt 0.959974 0.366237
vt 0.961743 0.362982
vt 0.963462 0.359700
vt 0.965130 0.356392
vt 0.966747 0.353058
vt 0.968312 0.349700
vt 0.969825 0.346318
vt 0.971285 0.342913
vt 0.972693 0.339486
vt 0.974048 0.336037
vt 0.975350 0.332568
vt 0.976597 0.329080
vt 0.977791 0.325572
vt 0.978931 0.322047
vt 0.980016 0.318504
vt 0.981046 0.314945
vt 0.982021 0.311371
vt 0.982941 0.307782
vt 0.983805 0.304179
vt 0.984613 0.300563
vt 0.985366 0.296935
vt 0.986062 0.293296
vt 0.986703 0.289647
vt 0.987286 0.285988
vt 0.987814 0.282321
vt 0.988284 0.278646
vt 0.988698 0.274964
vt 0.989055 0.271276
vt 0.989355 0.267583
vt 0.989598 0.263886
vt 0.989784 0.260186
vt 0.989912 0.256483
vt 0.989984 0.252779
vt 0.989998 0.249074
vt 0.989955 0.245369
vt 0.989855 0.241665
vt 0.989698 0.237964
vt 0.989484 0.234265
vt 0.989212 0.230570
vt 0.988884 0.226879
vt 0.988498 0.223194
vt 0.988056 0.219516
vt 0.987557 0.215844
vt 0.987002 0.212181
vt 0.986390 0.208527
vt 0.985721 0.204883
vt 0.984997 0.201249
vt 0.984216 0.197628
vt 0.983380 0.194018
vt 0.982488 0.190422
vt 0.981540 0.186840
vt 0.980538 0.183273
vt 0.979480 0.179723
vt 0.978368 0.176188
vt 0.977201 0.172672
vt 0.975980 0.169174
vt 0.974706 0.165695
vt 0.973377 0.162236
vt 0.971996 0.158798
vt 0.970562 0.155382
vt 0.969075 0.151988
vt 0.967536 0.148618
vt 0.965945 0.145272
vt 0.964302 0.141951
vt 0.962609 0.138656
vt 0.960865 0.135387
vt 0.959070 0.132145
vt 0.957226 0.128932
vt 0.955332 0.125747
vt 0.953390 0.122593
vt 0.951399 0.119468
vt 0.949360 0.116374
vt 0.947273 0.113313
vt 0.945139 0.110284
vt 0.942959 0.107288
vt 0.940733 0.104326
vt 0.938462 0.101399
vt 0.936145 0.098508
vt 0.933784 0.095652
vt 0.931380 0.092833
vt 0.928932 0.090052
vt 0.926442 0.087309
vt 0.923909 0.084605
vt 0.921335 0.081940
vt 0.918720 0.079315
vt 0.916065 0.076731
vt 0.913371 0.074188
vt 0.910637 0.071687
vt 0.907865 0.069228
vt 0.905056 0.066813
vt 0.902210 0.064441
vt 0.899327 0.062113
vt 0.896409 0.059830
vt 0.893456 0.057593
vt 0.890468 0.055401
vt 0.887447 0.053256
vt 0.884394 0.051158
vt 0.881308 0.049107
vt 0.878191 0.047104
vt 0.875044 0.045149
vt 0.871867 0.043243
vt 0.868661 0.041386
vt 0.865426 0.039579
vt 0.862164 0.037823
vt 0.858875 0.036116
vt 0.855560 0.034461
vt 0.852221 0.032857
vt 0.848856 0.031305
vt 0.845468 0.029805
vt 0.842058 0.028358
vt 0.838625 0.026963
vt 0.835172 0.025621
vt 0.831698 0.024333
vt 0.828204 0.023099
vt 0.824692 0.021919
vt 0.821163 0.020793
vt 0.817616 0.019722
vt 0.814053 0.018705
vt 0.810475 0.017744
vt 0.806882 0.016838
vt 0.803276 0.015988
vt 0.799657 0.015193
vt 0.796027 0.014455
vt 0.792385 0.013772
vt 0.788733 0.013146
vt 0.785072 0.012576
vt 0.781403 0.012063
vt 0.777726 0.011607
vt 0.774043 0.011207
vt 0.770353 0.010865
vt 0.766659 0.010579
vt 0.762961 0.010350
vt 0.759260 0.010179
vt 0.755557 0.010064
vt 0.751853 0.010007
vt 0.748147 0.010007
vt 0.744443 0.010064
vt 0.740740 0.010179
vt 0.737039 0.010350
vt 0.733341 0.010579
vt 0.729647 0.010865
vt 0.725957 0.011207
vt 0.722274 0.011607
vt 0.718597 0.012063
vt 0.714928 0.012576
vt 0.711267 0.013146
vt 0.707615 0.013772
vt 0.703973 0.014455
vt 0.700343 0.015193
vt 0.696724 0.015988
vt 0.693118 0.016838
vt 0.689525 0.017744
vt 0.685947 0.018705
vt 0.682384 0.019722
vt 0.678837 0.020793
vt 0.675308 0.021919
vt 0.671796 0.023099
vt 0.668302 0.024333
vt 0.664828 0.025621
vt 0.661375 0.026963
vt 0.657942 0.028358
vt 0.654532 0.029805
vt 0.651144 0.031305
vt 0.647779 0.032857
vt 0.644440 0.034461
vt 0.641125 0.036116
vt 0.637836 0.037823
vt 0.634574 0.039579
vt 0.631339 0.041386
vt 0.628133 0.043243
vt 0.624956 0.045149
vt 0.621809 0.047104
vt 0.618692 0.049107
vt 0.615606 0.051158
vt 0.612553 0.053256
vt 0.609532 0.055401
vt 0.606544 0.057593
vt 0.603591 0.059830
vt 0.600673 0.062113
vt 0.597790 0.064441
vt 0.594944 0.066813
vt 0.592135 0.069228
vt 0.589363 0.071687
vt 0.586629 0.074188
vt 0.583935 0.076731
vt 0.581280 0.079315
vt 0.578665 0.081940
vt 0.576091 0.084605
vt 0.573558 0.087309
vt 0.571068 0.090052
vt 0.568620 0.092833
vt 0.566216 0.095652
vt 0.563855 0.098508
vt 0.561538 0.101399
vt 0.559267 0.104326
vt 0.557041 0.107288
vt 0.554861 0.110284
vt 0.552727 0.113313
vt 0.550640 0.116374
vt 0.548601 0.119468
vt 0.546610 0.122593
vt 0.544668 0.125747
vt 0.542774 0.128932
vt 0.540930 0.132145
vt 0.539135 0.135387
vt 0.537391 0.138656
vt 0.535698 0.141951
vt 0.534055 0.145272
vt 0.532464 0.148618
vt 0.530925 0.151988
vt 0.529438 0.155382
vt 0.528004 0.158798
vt 0.526623 0.162236
vt 0.525294 0.165695
vt 0.524020 0.169174
vt 0.522799 0.172672
vt 0.521632 0.176188
vt 0.520520 0.179723
vt 0.519462 0.183273
vt 0.518460 0.186840
vt 0.517512 0.190422
vt 0.516620 0.194018
vt 0.515784 0.197628
vt 0.515003 0.201249
vt 0.514279 0.204883
vt 0.513610 0.208527
vt 0.512998 0.212181
vt 0.512443 0.215844
vt 0.511944 0.219516
vt 0.511502 0.223194
vt 0.511116 0.226879
vt 0.510788 0.230570
vt 0.510516 0.234265
vt 0.510302 0.237964
vt 0.510145 0.241665
vt 0.510045 0.245369
vt 0.510002 0.249074
vt 0.510016 0.252779
vt 0.510088 0.256483
vt 0.510216 0.260186
vt 0.510402 0.263886
vt 0.510645 0.267583
vt 0.510945 0.271276
vt 0.511302 0.274964
vt 0.511716 0.278646
vt 0.512186 0.282321
vt 0.512714 0.285988
vt 0.513297 0.289647
vt 0.513938 0.293296
vt 0.514634 0.296935
vt 0.515387 0.300563
vt 0.516195 0.304179
vt 0.517059 0.307782
vt 0.517979 0.311371
vt 0.518954 0.314945
vt 0.519984 0.318504
vt 0.521069 0.322047
vt 0.522209 0.325572
vt 0.523403 0.329080
vt 0.524650 0.332568
vt 0.525952 0.336037
vt 0.527307 0.339486
vt 0.528715 0.342913
vt 0.530175 0.346318
vt 0.531688 0.349700
vt 0.533253 0.353058
vt 0.534870 0.356392
vt 0.536538 0.359700
vt 0.538257 0.362982
vt 0.540026 0.366237
vt 0.541846 0.369465
vt 0.543715 0.372664
vt 0.545633 0.375834
vt 0.547600 0.378974
vt 0.549615 0.382083
vt 0.551678 0.385160
vt 0.553788 0.388206
vt 0.555945 0.391218
vt 0.558148 0.394197
vt 0.560397 0.397142
vt 0.562691 0.400051
vt 0.565030 0.402925
vt 0.567412 0.405762
vt 0.569839 0.408562
vt 0.572308 0.411324
vt 0.574819 0.414048
vt 0.577373 0.416733
vt 0.579967 0.419378
vt 0.582602 0.421982
vt 0.585277 0.424546
vt 0.587991 0.427068
vt 0.590744 0.429548
vt 0.593535 0.431985
vt 0.596363 0.434379
vt 0.599227 0.436729
vt 0.602128 0.439034
vt 0.605063 0.441294
vt 0.608034 0.443509
vt 0.611038 0.445677
vt 0.614075 0.447799
vt 0.617145 0.449874
vt 0.620246 0.451901
vt 0.623378 0.453880
vt 0.626541 0.455810
vt 0.629733 0.457692
vt 0.632953 0.459523
vt 0.636202 0.461305
vt 0.639477 0.463037
vt 0.642779 0.464718
vt 0.646106 0.466347
vt 0.649459 0.467925
vt 0.652835 0.469451
vt 0.656234 0.470925
vt 0.659656 0.472346
vt 0.663099 0.473715
vt 0.666563 0.475029
vt 0.670046 0.476291
vt 0.673549 0.477498
vt 0.677070 0.478651
vt 0.680609 0.479750
vt 0.684164 0.480793
vt 0.687734 0.481782
vt 0.691320 0.482716
vt 0.694919 0.483594
vt 0.698532 0.484416
vt 0.702157 0.485183
vt 0.705793 0.485893
vt 0.709440 0.486548
vt 0.713096 0.487146
vt 0.716762 0.487687
vt 0.720435 0.488172
vt 0.724115 0.488600
vt 0.727801 0.488971
vt 0.731493 0.489285
vt 0.735189 0.489543
vt 0.738889 0.489743
vt 0.742591 0.489886
vt 0.746295 0.489971
vt 0.246295 0.489971
s 0
f 1/1/1 408/2/1 2/3/1
f 2/3/2 408/2/2 3/4/2
f 3/4/3 408/2/3 4/5/3
f 4/5/4 408/2/4 5/6/4
f 5/6/5 408/2/5 6/7/5
f 6/7/6 408/2/6 7/8/6
f 7/8/7 408/2/7 8/9/7
f 8/9/8 408/2/8 9/10/8
f 9/10/9 408/2/9 10/11/9
f 10/11/10 408/2/10 11/12/10
f 11/12/11 408/2/11 12/13/11
f 12/13/12 408/2/12 13/14/12
f 13/14/13 408/2/13 14/15/13
f 14/15/14 408/2/14 15/16/14
f 15/16/15 408/2/15 16/17/15
f 16/17/16 408/2/16 17/18/16
f 17/18/17 408/2/17 18/19/17
f 18/19/18 408/2/18 19/20/18
f 19/20/19 408/2/19 20/21/19
f 20/21/20 408/2/20 21/22/20
f 21/22/21 408/2/21 22/23/21
f 22/23/22 408/2/22 23/24/22
f 23/24/23 408/2/23 24/25/23
f 24/25/24 408/2/24 25/26/24
f 25/26/25 408/2/25 26/27/25
f 26/27/26 408/2/26 27/28/26
f 27/28/27 408/2/27 28/29/27
f 28/29/28 408/2/28 29/30/28
f 29/30/29 408/2/29 30/31/29
f 30/31/30 408/2/30 31/32/30
f 31/32/31 408/2/31 32/33/31
f 32/33/32 408/2/32 33/34/32
f 33/34/33 408/2/33 34/35/33
f 34/35/34 408/2/34 35/36/34
f 35/36/35 408/2/35 36/37/35
f 36/37/36 408/2/36 37/38/36
f 37/38/37 408/2/37 38/39/37
f 38/39/38 408/2/38 39/40/38
f 39/40/39 408/2/39 40/41/39
f 40/41/40 408/2/40 41/42/40
f 41/42/41 408/2/41 42/43/41
f 42/43/42 408/2/42 43/44/42
f 43/44/43 408/2/43 44/45/43
f 44/45/44 408/2/44 45/46/44
f 45/46/45 408/2/45 46/47/45
f 46/47/46 408/2/46 47/48/46
f 47/48/47 408/2/47 48/49/47
f 48/49/48 408/2/48 49/50/48
f 49/50/49 408/2/49 50/51/49
f 50/51/50 408/2/50 51/52/50
f 51/52/51 408/2/51 52/53/51
f 52/53/52 408/2/52 53/54/52
f 53/54/53 408/2/53 54/55/53
f 54/55/54 408/2/54 55/56/54
f 55/56/55 408/2/55 56/57/55
f 56/57/56 408/2/56 57/58/56
f 57/58/57 408/2/57 58/59/57
f 58/59/58 408/2/58 59/60/58
f 59/60/59 408/2/59 60/61/59
f 60/61/60 408/2/60 61/62/60
f 61/62/61 408/2/61 62/63/61
f 62/63/62 408/2/62 63/64/62
f 63/64/63 408/2/63 64/65/63
f 64/65/64 408/2/64 65/66/64
f 65/66/65 408/2/65 66/67/65
f 66/67/66 408/2/66 67/68/66
f 67/68/67 408/2/67 68/69/67
f 68/69/68 408/2/68 69/70/68
f 69/70/69 408/2/69 70/71/69
f 70/71/70 408/2/70 71/72/70
f 71/72/71 408/2/71 72/73/71
f 72/73/72 408/2/72 73/74/72
f 73/74/73 408/2/73 74/75/73
f 74/75/74 408/2/74 75/76/74
f 75/76/75 408/2/75 76/77/75
f 76/77/76 408/2/76 77/78/76
f 77/78/77 408/2/77 78/79/77
f 78/79/78 408/2/78 79/80/78
f 79/80/79 408/2/79 80/81/79
f 80/81/80 408/2/80 81/82/80
f 81/82/81 408/2/81 82/83/81
f 82/83/82 408/2/82 83/84/82
f 83/84/83 408/2/83 84/85/83
f 84/85/84 408/2/84 85/86/84
f 85/86/85 408/2/85 86/87/85
f 86/87/86 408/2/86 87/88/86
f 87/88/87 408/2/87 88/89/87
f 88/89/88 408/2/88 89/90/88
f 89/90/89 408/2/89 90/91/89
f 90/91/90 408/2/90 91/92/90
f 91/92/91 408/2/91 92/93/91
f 92/93/92 408/2/92 93/94/92
f 93/94/93 408/2/93 94/95/93
f 94/95/94 408/2/94 95/96/94
f 95/96/95 408/2/95 96/97/95
f 96/97/96 408/2/96 97/98/96
f 97/98/97 408/2/97 98/99/97
f 98/99/98 408/2/98 99/100/98
f 99/100/99 408/2/99 100/101/99
f 100/101/100 408/2/100 101/102/100
f 101/102/101 408/2/101 102/103/101
f 102/103/102 408/2/102 103/104/102
f 103/104/103 408/2/103 104/105/103
f 104/105/104 408/2/104 105/106/104
f 105/106/105 408/2/105 106/107/105
f 106/107/106 408/2/106 107/108/106
f 107/108/107 408/2/107 108/109/107
f 108/109/108 408/2/108 109/110/108
f 109/110/109 408/2/109 110/111/109
f 110/111/110 408/2/110 111/112/110
f 111/112/111 408/2/111 112/113/111
f 112/113/112 408/2/112 113/114/112
f 113/114/113 408/2/113 114/115/113
f 114/115/114 408/2/114 115/116/114
f 115/116/115 408/2/115 116/117/115
f 116/117/116 408/2/116 117/118/116
f 117/118/117 408/2/117 118/119/117
f 118/119/118 408/2/118 119/120/118
f 119/120/119 408/2/119 120/121/119
f 120/121/120 408/2/120 121/122/120
f 121/122/121 408/2/121 122/123/121
f 122/123/122 408/2/122 123/124/122
f 123/124/123 408/2/123 124/125/123
f 124/125/124 408/2/124 125/126/124
f 125/126/125 408/2/125 126/127/125
f 126/127/126 408/2/126 127/128/126
f 127/128/127 408/2/127 128/129/127
f 128/129/128 408/2/128 129/130/128
f 129/130/129 408/2/129 130/131/129
f 130/131/130 408/2/130 131/132/130
f 131/132/131 408/2/131 132/133/131
f 132/133/132 408/2/132 133/134/132
f 133/134/133 408/2/133 134/135/133
f 134/135/134 408/2/134 135/136/134
f 135/136/135 408/2/135 136/137/135
f 136/137/136 408/2/136 137/138/136
f 137/138/137 408/2/137 138/139/137
f 138/139/138 408/2/138 139/140/138
f 139/140/139 408/2/139 140/141/139
f 140/141/140 408/2/140 141/142/140
f 141/142/141 408/2/141 142/143/141
f 142/143/142 408/2/142 143/144/142
f 143/144/143 408/2/143 144/145/143
f 144/145/144 408/2/144 145/146/144
f 145/146/145 408/2/145 146/147/145
f 146/147/146 408/2/146 147/148/146
f 147/148/147 408/2/147 148/149/147
f 148/149/148 408/2/148 149/150/148
f 149/150/149 408/2/149 150/151/149
f 150/151/150 408/2/150 151/152/150
f 151/152/151 408/2/151 152/153/151
f 152/153/152 408/2/152 153/154/152
f 153/154/153 408/2/153 154/155/153
f 154/155/154 408/2/154 155/156/154
f 155/156/155 408/2/155 156/157/155
f 156/157/156 408/2/156 157/158/156
f 157/158/157 408/2/157 158/159/157
f 158/159/158 408/2/158 159/160/158
f 159/160/159 408/2/159 160/161/159
f 160/161/160 408/2/160 161/162/160
f 161/162/161 408/2/161 162/163/161
f 162/163/162 408/2/162 163/164/162
f 163/164/163 408/2/163 164/165/163
f 164/165/164 408/2/164 165/166/164
f 165/166/165 408/2/165 166/167/165
f 166/167/166 408/2/166 167/168/166
f 167/168/167 408/2/167 168/169/167
f 168/169/168 408/2/168 169/170/168
f 169/170/169 408/2/169 170/171/169
f 170/171/170 408/2/170 171/172/170
f 171/172/171 408/2/171 172/173/171
f 172/173/172 408/2/172 173/174/172
f 173/174/173 408/2/173 174/175/173
f 174/175/174 408/2/174 175/176/174
f 175/176/175 408/2/175 176/177/175
f 176/177/176 408/2/176 177/178/176
f 177/178/177 408/2/177 178/179/177
f 178/179/178 408/2/178 179/180/178
f 179/180/179 408/2/179 180/181/179
f 180/181/180 408/2/180 181/182/180
f 181/182/181 408/2/181 182/183/181
f 182/183/182 408/2/182 183/184/182
f 183/184/183 408/2/183 184/185/183
f 184/185/184 408/2/184 185/186/184
f 185/186/185 408/2/185 186/187/185
f 186/187/186 408/2/186 187/188/186
f 187/188/187 408/2/187 188/189/187
f 188/189/188 408/2/188 189/190/188
f 189/190/189 408/2/189 190/191/189
f 190/191/190 408/2/190 191/192/190
f 191/192/191 408/2/191 192/193/191
f 192/193/192 408/2/192 193/194/192
f 193/194/193 408/2/193 194/195/193
f 194/195/194 408/2/194 195/196/194
f 195/196/195 408/2/195 196/197/195
f 196/197/196 408/2/196 197/198/196
f 197/198/197 408/2/197 198/199/197
f 198/199/198 408/2/198 199/200/198
f 199/200/199 408/2/199 200/201/199
f 200/201/200 408/2/200 201/202/200
f 201/202/201 408/2/201 202/203/201
f 202/203/202 408/2/202 203/204/202
f 203/204/203 408/2/203 204/205/203
f 204/205/204 408/2/204 205/206/204
f 205/206/205 408/2/205 206/207/205
f 206/207/206 408/2/206 207/208/206
f 207/208/207 408/2/207 208/209/207
f 208/209/208 408/2/208 209/210/208
f 209/210/209 408/2/209 210/211/209
f 210/211/210 408/2/210 211/212/210
f 211/212/211 408/2/211 212/213/211
f 212/213/212 408/2/212 213/214/212
f 213/214/213 408/2/213 214/215/213
f 214/215/214 408/2/214 215/216/214
f 215/216/215 408/2/215 216/217/215
f 216/217/216 408/2/216 217/218/216
f 217/218/217 408/2/217 218/219/217
f 218/219/218 408/2/218 219/220/218
f 219/220/219 408/2/219 220/221/219
f 220/221/220 408/2/220 221/222/220
f 221/222/221 408/2/221 222/223/221
f 222/223/222 408/2/222 223/224/222
f 223/224/223 408/2/223 224/225/223
f 224/225/224 408/2/224 225/226/224
f 225/226/225 408/2/225 226/227/225
f 226/227/226 408/2/226 227/228/226
f 227/228/227 408/2/227 228/229/227
f 228/229/228 408/2/228 229/230/228
f 229/230/229 408/2/229 230/231/229
f 230/231/230 408/2/230 231/232/230
f 231/232/231 408/2/231 232/233/231
f 232/233/232 408/2/232 233/234/232
f 233/234/233 408/2/233 234/235/233
f 234/235/234 408/2/234 235/236/234
f 235/236/235 408/2/235 236/237/235
f 236/237/236 408/2/236 237/238/236
f 237/238/237 408/2/237 238/239/237
f 238/239/238 408/2/238 239/240/238
f 239/240/239 408/2/239 240/241/239
f 240/241/240 408/2/240 241/242/240
f 241/242/241 408/2/241 242/243/241
f 242/243/242 408/2/242 243/244/242
f 243/244/243 408/2/243 244/245/243
f 244/245/244 408/2/244 245/246/244
f 245/246/245 408/2/245 246/247/245
f 246/247/246 408/2/246 247/248/246
f 247/248/247 408/2/247 248/249/247
f 248/249/248 408/2/248 249/250/248
f 249/250/249 408/2/249 250/251/249
f 250/251/250 408/2/250 251/252/250
f 251/252/251 408/2/251 252/253/251
f 252/253/252 408/2/252 253/254/252
f 253/254/253 408/2/253 254/255/253
f 254/255/254 408/2/254 255/256/254
f 255/256/255 408/2/255 256/257/255
f 256/257/256 408/2/256 257/258/256
f 257/258/257 408/2/257 258/259/257
f 258/259/258 408/2/258 259/260/258
f 259/260/259 408/2/259 260/261/259
f 260/261/260 408/2/260 261/262/260
f 261/262/261 408/2/261 262/263/261
f 262/263/262 408/2/262 263/264/262
f 263/264/263 408/2/263 264/265/263
f 264/265/264 408/2/264 265/266/264
f 265/266/265 408/2/265 266/267/265
f 266/267/266 408/2/266 267/268/266
f 267/268/267 408/2/267 268/269/267
f 268/269/268 408/2/268 269/270/268
f 269/270/269 408/2/269 270/271/269
f 270/271/270 408/2/270 271/272/270
f 271/272/271 408/2/271 272/273/271
f 272/273/272 408/2/272 273/274/272
f 273/274/273 408/2/273 274/275/273
f 274/275/274 408/2/274 275/276/274
f 275/276/275 408/2/275 276/277/275
f 276/277/276 408/2/276 277/278/276
f 277/278/277 408/2/277 278/279/277
f 278/279/278 408/2/278 279/280/278
f 279/280/279 408/2/279 280/281/279
f 280/281/280 408/2/280 281/282/280
f 281/282/281 408/2/281 282/283/281
f 282/283/282 408/2/282 283/284/282
f 283/284/283 408/2/283 284/285/283
f 284/285/284 408/2/284 285/286/284
f 285/286/285 408/2/285 286/287/285
f 286/287/286 408/2/286 287/288/286
f 287/288/287 408/2/287 288/289/287
f 288/289/288 408/2/288 289/290/288
f 289/290/289 408/2/289 290/291/289
f 290/291/290 408/2/290 291/292/290
f 291/292/291 408/2/291 292/293/291
f 292/293/292 408/2/292 293/294/292
f 293/294/293 408/2/293 294/295/293
f 294/295/294 408/2/294 295/296/294
f 295/296/295 408/2/295 296/297/295
f 296/297/296 408/2/296 297/298/296
f 297/298/297 408/2/297 298/299/297
f 298/299/298 408/2/298 299/300/298
f 299/300/299 408/2/299 300/301/299
f 300/301/300 408/2/300 301/302/300
f 301/302/301 408/2/301 302/303/301
f 302/303/302 408/2/302 303/304/302
f 303/304/303 408/2/303 304/305/303
f 304/305/304 408/2/304 305/306/304
f 305/306/305 408/2/305 306/307/305
f 306/307/306 408/2/306 307/308/306
f 307/308/307 408/2/307 308/309/307
f 308/309/308 408/2/308 309/310/308
f 309/310/309 408/2/309 310/311/309
f 310/311/310 408/2/310 311/312/310
f 311/312/311 408/2/311 312/313/311
f 312/313/312 408/2/312 313/314/312
f 313/314/313 408/2/313 314/315/313
f 314/315/314 408/2/314 315/316/314
f 315/316/315 408/2/315 316/317/315
f 316/317/316 408/2/316 317/318/316
f 317/318/317 408/2/317 318/319/317
f 318/319/318 408/2/318 319/320/318
f 319/320/319 408/2/319 320/321/319
f 320/321/320 408/2/320 321/322/320
f 321/322/321 408/2/321 322/323/321
f 322/323/322 408/2/322 323/324/322
f 323/324/323 408/2/323 324/325/323
f 324/325/324 408/2/324 325/326/324
f 325/326/325 408/2/325 326/327/325
f 326/327/326 408/2/326 327/328/326
f 327/328/327 408/2/327 328/329/327
f 328/329/328 408/2/328 329/330/328
f 329/330/329 408/2/329 330/331/329
f 330/331/330 408/2/330 331/332/330
f 331/332/331 408/2/331 332/333/331
f 332/333/332 408/2/332 333/334/332
f 333/334/333 408/2/333 334/335/333
f 334/335/334 408/2/334 335/336/334
f 335/336/335 408/2/335 336/337/335
f 336/337/336 408/2/336 337/338/336
f 337/338/337 408/2/337 338/339/337
f 338/339/338 408/2/338 339/340/338
f 339/340/339 408/2/339 340/341/339
f 340/341/340 408/2/340 341/342/340
f 341/342/341 408/2/341 342/343/341
f 342/343/342 408/2/342 343/344/342
f 343/344/343 408/2/343 344/345/343
f 344/345/344 408/2/344 345/346/344
f 345/346/345 408/2/345 346/347/345
f 346/347/346 408/2/346 347/348/346
f 347/348/347 408/2/347 348/349/347
f 348/349/348 408/2/348 349/350/348
f 349/350/349 408/2/349 350/351/349
f 350/351/350 408/2/350 351/352/350
f 351/352/351 408/2/351 352/353/351
f 352/353/352 408/2/352 353/354/352
f 353/354/353 408/2/353 354/355/353
f 354/355/354 408/2/354 355/356/354
f 355/356/355 408/2/355 356/357/355
f 356/357/356 408/2/356 357/358/356
f 357/358/357 408/2/357 358/359/357
f 358/359/358 408/2/358 359/360/358
f 359/360/359 408/2/359 360/361/359
f 360/361/360 408/2/360 361/362/360
f 361/362/361 408/2/361 362/363/361
f 362/363/362 408/2/362 363/364/362
f 363/364/363 408/2/363 364/365/363
f 364/365/364 408/2/364 365/366/364
f 365/366/365 408/2/365 366/367/365
f 366/367/366 408/2/366 367/368/366
f 367/368/367 408/2/367 368/369/367
f 368/369/368 408/2/368 369/370/368
f 369/370/369 408/2/369 370/371/369
f 370/371/370 408/2/370 371/372/370
f 371/372/371 408/2/371 372/373/371
f 372/373/372 408/2/372 373/374/372
f 373/374/373 408/2/373 374/375/373
f 374/375/374 408/2/374 375/376/374
f 375/376/375 408/2/375 376/377/375
f 376/377/376 408/2/376 377/378/376
f 377/378/377 408/2/377 378/379/377
f 378/379/378 408/2/378 379/380/378
f 379/380/379 408/2/379 380/381/379
f 380/381/380 408/2/380 381/382/380
f 381/382/381 408/2/381 382/383/381
f 382/383/382 408/2/382 383/384/382
f 383/384/383 408/2/383 384/385/383
f 384/385/384 408/2/384 385/386/384
f 385/386/385 408/2/385 386/387/385
f 386/387/386 408/2/386 387/388/386
f 387/388/387 408/2/387 388/389/387
f 388/389/388 408/2/388 389/390/388
f 389/390/389 408/2/389 390/391/389
f 390/391/390 408/2/390 391/392/390
f 391/392/391 408/2/391 392/393/391
f 392/393/392 408/2/392 393/394/392
f 393/394/393 408/2/393 394/395/393
f 394/395/394 408/2/394 395/396/394
f 395/396/395 408/2/395 396/397/395
f 396/397/396 408/2/396 397/398/396
f 397/398/397 408/2/397 398/399/397
f 398/399/398 408/2/398 399/400/398
f 399/400/399 408/2/399 400/401/399
f 400/401/400 408/2/400 401/402/400
f 401/402/401 408/2/401 402/403/401
f 402/403/402 408/2/402 403/404/402
f 403/404/403 408/2/403 404/405/403
f 404/405/404 408/2/404 405/406/404
f 405/406/405 408/2/405 406/407/405
f 1/408/406 2/409/406 3/410/406 4/411/406 5/412/406 6/413/406 7/414/406 8/415/406 9/416/406 10/417/406 11/418/406 12/419/406 13/420/406 14/421/406 15/422/406 16/423/406 17/424/406 18/425/406 19/426/406 20/427/406 21/428/406 22/429/406 23/430/406 24/431/406 25/432/406 26/433/406 27/434/406 28/435/406 29/436/406 30/437/406 31/438/406 32/439/406 33/440/406 34/441/406 35/442/406 36/443/406 37/444/406 38/445/406 39/446/406 40/447/406 41/448/406 42/449/406 43/450/406 44/451/406 45/452/406 46/453/406 47/454/406 48/455/406 49/456/406 50/457/406 51/458/406 52/459/406 53/460/406 54/461/406 55/462/406 56/463/406 57/464/406 58/465/406 59/466/406 60/467/406 61/468/406 62/469/406 63/470/406 64/471/406 65/472/406 66/473/406 67/474/406 68/475/406 69/476/406 70/477/406 71/478/406 72/479/406 73/480/406 74/481/406 75/482/406 76/483/406 77/484/406 78/485/406 79/486/406 80/487/406 81/488/406 82/489/406 83/490/406 84/491/406 85/492/406 86/493/406 87/494/406 88/495/406 89/496/406 90/497/406 91/498/406 92/499/406 93/500/406 94/501/406 95/502/406 96/503/406 97/504/406 98/505/406 99/506/406 100/507/406 101/508/406 102/509/406 103/510/406 104/511/406 105/512/406 106/513/406 107/514/406 108/515/406 109/516/406 110/517/406 111/518/406 112/519/406 113/520/406 114/521/406 115/522/406 116/523/406 117/524/406 118/525/406 119/526/406 120/527/406 121/528/406 122/529/406 123/530/406 124/531/406 125/532/406 126/533/406 127/534/406 128/535/406 129/536/406 130/537/406 131/538/406 132/539/406 133/540/406 134/541/406 135/542/406 136/543/406 137/544/406 138/545/406 139/546/406 140/547/406 141/548/406 142/549/406 143/550/406 144/551/406 145/552/406 146/553/406 147/554/406 148/555/406 149/556/406 150/557/406 151/558/406 152/559/406 153/560/406 154/561/406 155/562/406 156/563/406 157/564/406 158/565/406 159/566/406 160/567/406 161/568/406 162/569/406 163/570/406 164/571/406 165/572/406 166/573/406 167/574/406 168/575/406 169/576/406 170/577/406 171/578/406 172/579/406 173/580/406 174/581/406 175/582/406 176/583/406 177/584/406 178/585/406 179/586/406 180/587/406 181/588/406 182/589/406 183/590/406 184/591/406 185/592/406 186/593/406 187/594/406 188/595/406 189/596/406 190/597/406 191/598/406 192/599/406 193/600/406 194/601/406 195/602/406 196/603/406 197/604/406 198/605/406 199/606/406 200/607/406 201/608/406 202/609/406 203/610/406 204/611/406 205/612/406 206/613/406 207/614/406 208/615/406 209/616/406 210/617/406 211/618/406 212/619/406 213/620/406 214/621/406 215/622/406 216/623/406 217/624/406 218/625/406 219/626/406 220/627/406 221/628/406 222/629/406 223/630/406 224/631/406 225/632/406 226/633/406 227/634/406 228/635/406 229/636/406 230/637/406 231/638/406 232/639/406 233/640/406 234/641/406 235/642/406 236/643/406 237/644/406 238/645/406 239/646/406 240/647/406 241/648/406 242/649/406 243/650/406 244/651/406 245/652/406 246/653/406 247/654/406 248/655/406 249/656/406 250/657/406 251/658/406 252/659/406 253/660/406 254/661/406 255/662/406 256/663/406 257/664/406 258/665/406 259/666/406 260/667/406 261/668/406 262/669/406 263/670/406 264/671/406 265/672/406 266/673/406 267/674/406 268/675/406 269/676/406 270/677/406 271/678/406 272/679/406 273/680/406 274/681/406 275/682/406 276/683/406 277/684/406 278/685/406 279/686/406 280/687/406 281/688/406 282/689/406 283/690/406 284/691/406 285/692/406 286/693/406 287/694/406 288/695/406 289/696/406 290/697/406 291/698/406 292/699/406 293/700/406 294/701/406 295/702/406 296/703/406 297/704/406 298/705/406 299/706/406 300/707/406 301/708/406 302/709/406 303/710/406 304/711/406 305/712/406 306/713/406 307/714/406 308/715/406 309/716/406 310/717/406 311/718/406 312/719/406 313/720/406 314/721/406 315/722/406 316/723/406 317/724/406 318/725/406 319/726/406 320/727/406 321/728/406 322/729/406 323/730/406 324/731/406 325/732/406 326/733/406 327/734/406 328/735/406 329/736/406 330/737/406 331/738/406 332/739/406 333/740/406 334/741/406 335/742/406 336/743/406 337/744/406 338/745/406 339/746/406 340/747/406 341/748/406 342/749/406 343/750/406 344/751/406 345/752/406 346/753/406 347/754/406 348/755/406 349/756/406 350/757/406 351/758/406 352/759/406 353/760/406 354/761/406 355/762/406 356/763/406 357/764/406 358/765/406 359/766/406 360/767/406 361/768/406 362/769/406 363/770/406 364/771/406 365/772/406 366/773/406 367/774/406 368/775/406 369/776/406 370/777/406 371/778/406 372/779/406 373/780/406 374/781/406 375/782/406 376/783/406 377/784/406 378/785/406 379/786/406 380/787/406 381/788/406 382/789/406 383/790/406 384/791/406 385/792/406 386/793/406 387/794/406 388/795/406 389/796/406 390/797/406 391/798/406 392/799/406 393/800/406 394/801/406 395/802/406 396/803/406 397/804/406 398/805/406 399/806/406 400/807/406 401/808/406 402/809/406 403/810/406 404/811/406 405/812/406 406/813/406 407/814/406
f 406/407/407 408/2/407 407/815/407
f 407/815/408 408/2/408 1/1/408
